{"glyphs":{"0":{"ha":831,"x_min":82,"x_max":750,"o":"m 415 840 q 662 740 574 840 q 750 408 750 640 q 661 78 750 178 q 415 -22 572 -22 q 169 78 257 -22 q 82 408 82 178 q 169 741 82 642 q 415 840 257 840 m 415 732 q 267 663 319 732 q 215 408 215 594 q 268 155 215 224 q 415 86 321 86 q 564 155 511 86 q 617 408 617 224 q 564 663 617 594 q 415 732 511 732 z "},"1":{"ha":686,"x_min":54,"x_max":649,"o":"m 358 824 l 436 824 l 435 108 l 649 108 l 649 0 l 83 0 l 83 108 l 311 108 l 313 640 l 124 485 l 54 571 l 358 824 z "},"2":{"ha":757,"x_min":47,"x_max":706,"o":"m 47 113 q 233 274 121 181 q 308 338 254 292 q 397 418 363 383 q 474 510 449 467 q 499 599 499 553 q 455 698 499 663 q 344 733 411 733 q 242 711 294 733 q 149 650 190 689 l 71 725 q 203 816 131 786 q 354 846 276 846 q 494 817 431 846 q 594 733 557 788 q 632 606 632 679 q 592 483 632 544 q 476 351 551 421 q 304 203 426 303 q 252 160 281 183 q 192 108 224 136 l 546 108 l 617 221 l 706 172 l 606 0 l 83 0 l 47 113 z "},"3":{"ha":711,"x_min":46,"x_max":651,"o":"m 344 475 q 447 513 408 475 q 485 614 485 551 q 444 701 485 668 q 335 733 403 733 q 228 713 281 733 q 143 658 176 692 l 61 738 q 183 814 110 788 q 342 840 256 840 q 539 779 465 840 q 613 618 613 718 q 575 497 613 551 q 476 421 538 443 q 603 353 554 406 q 651 226 651 300 q 567 46 651 114 q 344 -22 483 -22 q 174 3 246 -22 q 46 78 101 28 l 124 168 q 231 105 182 124 q 346 86 279 86 q 472 124 424 86 q 519 226 519 163 q 465 329 519 290 q 319 368 410 368 l 250 368 l 250 475 l 344 475 z "},"4":{"ha":771,"x_min":33,"x_max":704,"o":"m 304 0 l 304 108 l 456 108 l 456 231 l 35 231 l 33 301 l 325 865 l 425 808 l 179 335 l 456 335 l 456 686 l 581 686 l 581 335 l 704 336 l 704 231 l 581 231 l 581 108 l 699 108 l 699 0 l 304 0 z "},"5":{"ha":722,"x_min":65,"x_max":663,"o":"m 233 503 q 393 550 306 550 q 587 479 511 550 q 663 281 663 408 q 581 56 663 133 q 347 -22 499 -22 q 190 8 265 -22 q 65 96 115 39 l 154 167 q 242 105 192 126 q 351 83 293 83 q 487 131 440 83 q 533 268 533 179 q 482 399 533 351 q 356 446 431 446 q 265 426 310 446 q 183 369 219 407 l 110 403 l 110 818 l 601 818 l 601 708 l 233 708 l 233 503 z "},"6":{"ha":771,"x_min":82,"x_max":711,"o":"m 618 685 q 454 733 521 733 q 273 642 331 733 q 213 424 215 550 q 306 491 247 464 q 433 518 365 518 q 633 456 554 518 q 711 249 711 394 q 683 127 711 189 q 587 22 656 65 q 403 -22 518 -22 q 82 403 82 -22 q 127 625 82 525 q 256 783 172 725 q 451 840 340 840 q 551 827 504 840 q 628 799 597 814 q 668 776 660 783 l 618 685 m 425 415 q 297 390 354 415 q 215 322 240 365 q 278 133 225 183 q 413 83 332 83 q 506 108 468 83 q 564 170 544 132 q 583 249 583 208 q 543 373 583 331 q 425 415 503 415 z "},"7":{"ha":708,"x_min":42,"x_max":685,"o":"m 685 749 q 469 369 539 568 q 393 0 399 171 l 267 0 q 524 710 297 353 l 171 710 l 150 621 l 42 644 l 74 818 l 685 818 l 685 749 z "},"8":{"ha":744,"x_min":76,"x_max":668,"o":"m 371 840 q 572 778 492 840 q 651 604 651 717 q 614 492 651 544 q 513 422 576 440 q 625 353 582 408 q 668 226 668 297 q 628 89 668 144 q 520 6 588 33 q 372 -22 453 -22 q 224 6 292 -22 q 117 89 157 33 q 76 226 76 144 q 119 353 76 297 q 232 422 161 410 q 131 492 168 440 q 93 604 93 544 q 172 778 93 717 q 371 840 250 840 m 372 736 q 263 699 303 736 q 224 604 224 663 q 263 508 224 546 q 372 469 303 469 q 481 508 442 469 q 521 604 521 546 q 481 699 521 663 q 372 736 442 736 m 372 369 q 251 329 293 369 q 210 226 210 289 q 255 122 210 163 q 372 82 300 82 q 490 122 444 82 q 535 226 535 163 q 493 329 535 289 q 372 369 451 369 z "},"9":{"ha":769,"x_min":68,"x_max":703,"o":"m 163 133 q 343 85 260 85 q 510 166 460 85 q 567 368 561 247 q 472 298 531 326 q 346 269 414 269 q 147 337 225 269 q 68 561 68 404 q 96 687 68 624 q 192 795 124 750 q 376 840 261 840 q 621 732 539 840 q 703 414 703 624 q 649 158 703 256 q 513 19 596 61 q 336 -22 429 -22 q 196 1 257 -22 q 111 42 135 25 l 163 133 m 367 735 q 240 681 283 735 q 196 547 196 628 q 237 421 196 469 q 353 372 278 372 q 485 401 431 372 q 565 479 540 431 q 503 683 557 631 q 367 735 450 735 z "},"\u0000":{"ha":0,"x_min":0,"x_max":0,"o":""},"\r":{"ha":344,"x_min":0,"x_max":0,"o":""}," ":{"ha":344,"x_min":0,"x_max":0,"o":""},"A":{"ha":915,"x_min":13,"x_max":903,"o":"m 13 0 l 13 108 l 147 108 l 372 710 l 238 710 l 238 818 l 521 818 l 772 108 l 903 108 l 903 0 l 558 0 l 558 108 l 643 108 l 599 233 l 306 233 l 260 108 l 346 108 l 346 0 l 13 0 m 342 332 l 564 332 l 458 672 l 342 332 z "},"Á":{"ha":915,"x_min":13,"x_max":903,"o":"m 13 0 l 13 108 l 147 108 l 372 710 l 238 710 l 238 818 l 521 818 l 772 108 l 903 108 l 903 0 l 558 0 l 558 108 l 643 108 l 599 233 l 306 233 l 260 108 l 346 108 l 346 0 l 13 0 m 342 332 l 564 332 l 458 672 l 342 332 m 660 1076 l 688 967 l 338 904 l 322 957 l 660 1076 z "},"Ă":{"ha":915,"x_min":13,"x_max":903,"o":"m 13 0 l 13 108 l 147 108 l 372 710 l 238 710 l 238 818 l 521 818 l 772 108 l 903 108 l 903 0 l 558 0 l 558 108 l 643 108 l 599 233 l 306 233 l 260 108 l 346 108 l 346 0 l 13 0 m 342 332 l 564 332 l 458 672 l 342 332 m 446 906 q 294 950 351 906 q 222 1081 238 994 l 318 1096 q 446 999 331 999 q 537 1024 504 999 q 575 1096 569 1049 l 671 1081 q 598 950 656 994 q 446 906 540 906 z "},"Ắ":{"ha":915,"x_min":13,"x_max":903,"o":"m 13 0 l 13 108 l 147 108 l 372 710 l 238 710 l 238 818 l 521 818 l 772 108 l 903 108 l 903 0 l 558 0 l 558 108 l 643 108 l 599 233 l 306 233 l 260 108 l 346 108 l 346 0 l 13 0 m 342 332 l 564 332 l 458 672 l 342 332 m 446 906 q 294 950 351 906 q 222 1081 238 994 l 318 1096 q 446 999 331 999 q 537 1024 504 999 q 575 1096 569 1049 l 671 1081 q 598 950 656 994 q 446 906 540 906 m 692 1288 l 719 1178 l 369 1115 l 354 1168 l 692 1288 z "},"Ặ":{"ha":915,"x_min":13,"x_max":903,"o":"m 13 0 l 13 108 l 147 108 l 372 710 l 238 710 l 238 818 l 521 818 l 772 108 l 903 108 l 903 0 l 558 0 l 558 108 l 643 108 l 599 233 l 306 233 l 260 108 l 346 108 l 346 0 l 13 0 m 342 332 l 564 332 l 458 672 l 342 332 m 457 -81 q 521 -106 496 -81 q 546 -169 546 -131 q 521 -234 546 -210 q 457 -258 496 -258 q 394 -234 418 -258 q 369 -169 369 -210 q 394 -105 369 -129 q 457 -81 418 -81 m 446 906 q 294 950 351 906 q 222 1081 238 994 l 318 1096 q 446 999 331 999 q 537 1024 504 999 q 575 1096 569 1049 l 671 1081 q 598 950 656 994 q 446 906 540 906 z "},"Ằ":{"ha":915,"x_min":13,"x_max":903,"o":"m 13 0 l 13 108 l 147 108 l 372 710 l 238 710 l 238 818 l 521 818 l 772 108 l 903 108 l 903 0 l 558 0 l 558 108 l 643 108 l 599 233 l 306 233 l 260 108 l 346 108 l 346 0 l 13 0 m 342 332 l 564 332 l 458 672 l 342 332 m 446 906 q 294 950 351 906 q 222 1081 238 994 l 318 1096 q 446 999 331 999 q 537 1024 504 999 q 575 1096 569 1049 l 671 1081 q 598 950 656 994 q 446 906 540 906 m 229 1282 l 568 1163 l 553 1110 l 201 1172 l 229 1282 z "},"Ẳ":{"ha":915,"x_min":13,"x_max":903,"o":"m 13 0 l 13 108 l 147 108 l 372 710 l 238 710 l 238 818 l 521 818 l 772 108 l 903 108 l 903 0 l 558 0 l 558 108 l 643 108 l 599 233 l 306 233 l 260 108 l 346 108 l 346 0 l 13 0 m 342 332 l 564 332 l 458 672 l 342 332 m 446 906 q 294 950 351 906 q 222 1081 238 994 l 318 1096 q 446 999 331 999 q 537 1024 504 999 q 575 1096 569 1049 l 671 1081 q 598 950 656 994 q 446 906 540 906 m 407 1146 q 442 1187 429 1164 q 454 1231 454 1210 q 444 1261 454 1250 q 413 1272 433 1272 q 346 1235 378 1272 l 293 1294 q 356 1344 321 1328 q 429 1361 392 1361 q 515 1331 481 1361 q 549 1246 549 1300 q 446 1101 549 1171 l 407 1146 z "},"Ẵ":{"ha":915,"x_min":13,"x_max":903,"o":"m 13 0 l 13 108 l 147 108 l 372 710 l 238 710 l 238 818 l 521 818 l 772 108 l 903 108 l 903 0 l 558 0 l 558 108 l 643 108 l 599 233 l 306 233 l 260 108 l 346 108 l 346 0 l 13 0 m 342 332 l 564 332 l 458 672 l 342 332 m 219 1224 q 297 1268 267 1256 q 371 1281 328 1281 q 424 1272 400 1281 q 475 1249 447 1264 q 513 1231 499 1236 q 546 1225 528 1225 q 587 1234 569 1225 q 642 1269 604 1243 l 665 1192 q 597 1144 626 1157 q 532 1132 568 1132 q 447 1161 497 1132 q 403 1182 419 1175 q 367 1189 386 1189 q 317 1183 338 1189 q 274 1165 297 1176 q 242 1150 251 1154 l 219 1224 m 446 906 q 294 950 351 906 q 222 1081 238 994 l 318 1096 q 446 999 331 999 q 537 1024 504 999 q 575 1096 569 1049 l 671 1081 q 598 950 656 994 q 446 906 540 906 z "},"Â":{"ha":915,"x_min":13,"x_max":903,"o":"m 13 0 l 13 108 l 147 108 l 372 710 l 238 710 l 238 818 l 521 818 l 772 108 l 903 108 l 903 0 l 558 0 l 558 108 l 643 108 l 599 233 l 306 233 l 260 108 l 346 108 l 346 0 l 13 0 m 342 332 l 564 332 l 458 672 l 342 332 m 447 1088 l 689 950 l 658 901 l 447 981 l 235 901 l 206 950 l 447 1088 z "},"Ấ":{"ha":915,"x_min":13,"x_max":903,"o":"m 13 0 l 13 108 l 147 108 l 372 710 l 238 710 l 238 818 l 521 818 l 772 108 l 903 108 l 903 0 l 558 0 l 558 108 l 643 108 l 599 233 l 306 233 l 260 108 l 346 108 l 346 0 l 13 0 m 342 332 l 564 332 l 458 672 l 342 332 m 544 1303 l 599 1206 l 331 1097 l 306 1147 l 544 1303 m 447 1088 l 689 950 l 658 901 l 447 981 l 235 901 l 206 950 l 447 1088 z "},"Ậ":{"ha":915,"x_min":13,"x_max":903,"o":"m 13 0 l 13 108 l 147 108 l 372 710 l 238 710 l 238 818 l 521 818 l 772 108 l 903 108 l 903 0 l 558 0 l 558 108 l 643 108 l 599 233 l 306 233 l 260 108 l 346 108 l 346 0 l 13 0 m 342 332 l 564 332 l 458 672 l 342 332 m 457 -81 q 521 -106 496 -81 q 546 -169 546 -131 q 521 -234 546 -210 q 457 -258 496 -258 q 394 -234 418 -258 q 369 -169 369 -210 q 394 -105 369 -129 q 457 -81 418 -81 m 447 1088 l 689 950 l 658 901 l 447 981 l 235 901 l 206 950 l 447 1088 z "},"Ầ":{"ha":915,"x_min":13,"x_max":903,"o":"m 13 0 l 13 108 l 147 108 l 372 710 l 238 710 l 238 818 l 521 818 l 772 108 l 903 108 l 903 0 l 558 0 l 558 108 l 643 108 l 599 233 l 306 233 l 260 108 l 346 108 l 346 0 l 13 0 m 342 332 l 564 332 l 458 672 l 342 332 m 356 1292 l 593 1136 l 569 1088 l 301 1194 l 356 1292 m 447 1088 l 689 950 l 658 901 l 447 981 l 235 901 l 206 950 l 447 1088 z "},"Ẩ":{"ha":915,"x_min":13,"x_max":903,"o":"m 13 0 l 13 108 l 147 108 l 372 710 l 238 710 l 238 818 l 521 818 l 772 108 l 903 108 l 903 0 l 558 0 l 558 108 l 643 108 l 599 233 l 306 233 l 260 108 l 346 108 l 346 0 l 13 0 m 342 332 l 564 332 l 458 672 l 342 332 m 447 1088 l 689 950 l 658 901 l 447 981 l 235 901 l 206 950 l 447 1088 m 558 1092 q 593 1133 581 1110 q 606 1176 606 1156 q 595 1207 606 1196 q 564 1218 585 1218 q 497 1181 529 1218 l 444 1240 q 508 1290 472 1274 q 581 1307 543 1307 q 666 1276 632 1307 q 700 1192 700 1246 q 597 1047 700 1117 l 558 1092 z "},"Ẫ":{"ha":915,"x_min":13,"x_max":903,"o":"m 13 0 l 13 108 l 147 108 l 372 710 l 238 710 l 238 818 l 521 818 l 772 108 l 903 108 l 903 0 l 558 0 l 558 108 l 643 108 l 599 233 l 306 233 l 260 108 l 346 108 l 346 0 l 13 0 m 342 332 l 564 332 l 458 672 l 342 332 m 232 1193 q 310 1238 279 1225 q 383 1250 340 1250 q 436 1242 413 1250 q 488 1218 460 1233 q 524 1199 508 1206 q 558 1193 540 1193 q 599 1202 581 1193 q 654 1239 617 1211 l 678 1160 q 609 1113 638 1125 q 546 1100 581 1100 q 461 1129 511 1100 q 417 1150 435 1143 q 379 1157 399 1157 q 330 1151 350 1157 q 287 1133 310 1144 q 254 1118 264 1122 l 232 1193 m 453 1086 l 694 949 l 664 900 l 453 979 l 240 900 l 211 949 l 453 1086 z "},"Ȁ":{"ha":915,"x_min":13,"x_max":903,"o":"m 13 0 l 13 108 l 147 108 l 372 710 l 238 710 l 238 818 l 521 818 l 772 108 l 903 108 l 903 0 l 558 0 l 558 108 l 643 108 l 599 233 l 306 233 l 260 108 l 346 108 l 346 0 l 13 0 m 342 332 l 564 332 l 458 672 l 342 332 m 343 1131 l 544 943 l 513 903 l 281 1049 l 343 1131 m 129 1071 l 378 951 l 357 906 l 90 975 l 129 1071 z "},"Ä":{"ha":915,"x_min":13,"x_max":903,"o":"m 13 0 l 13 108 l 147 108 l 372 710 l 238 710 l 238 818 l 521 818 l 772 108 l 903 108 l 903 0 l 558 0 l 558 108 l 643 108 l 599 233 l 306 233 l 260 108 l 346 108 l 346 0 l 13 0 m 342 332 l 564 332 l 458 672 l 342 332 m 321 1090 q 379 1065 354 1090 q 404 1007 404 1040 q 379 949 404 974 q 321 925 354 925 q 263 949 288 925 q 239 1007 239 974 q 263 1065 239 1040 q 321 1090 288 1090 m 574 1090 q 631 1065 607 1090 q 656 1007 656 1040 q 631 949 656 974 q 574 925 607 925 q 515 949 539 925 q 490 1007 490 974 q 515 1065 490 1040 q 574 1090 539 1090 z "},"Ạ":{"ha":915,"x_min":13,"x_max":903,"o":"m 13 0 l 13 108 l 147 108 l 372 710 l 238 710 l 238 818 l 521 818 l 772 108 l 903 108 l 903 0 l 558 0 l 558 108 l 643 108 l 599 233 l 306 233 l 260 108 l 346 108 l 346 0 l 13 0 m 342 332 l 564 332 l 458 672 l 342 332 m 457 -81 q 521 -106 496 -81 q 546 -169 546 -131 q 521 -234 546 -210 q 457 -258 496 -258 q 394 -234 418 -258 q 369 -169 369 -210 q 394 -105 369 -129 q 457 -81 418 -81 z "},"À":{"ha":915,"x_min":13,"x_max":903,"o":"m 13 0 l 13 108 l 147 108 l 372 710 l 238 710 l 238 818 l 521 818 l 772 108 l 903 108 l 903 0 l 558 0 l 558 108 l 643 108 l 599 233 l 306 233 l 260 108 l 346 108 l 346 0 l 13 0 m 342 332 l 564 332 l 458 672 l 342 332 m 197 1071 l 536 951 l 521 899 l 169 961 l 197 1071 z "},"Ả":{"ha":915,"x_min":13,"x_max":903,"o":"m 13 0 l 13 108 l 147 108 l 372 710 l 238 710 l 238 818 l 521 818 l 772 108 l 903 108 l 903 0 l 558 0 l 558 108 l 643 108 l 599 233 l 306 233 l 260 108 l 346 108 l 346 0 l 13 0 m 342 332 l 564 332 l 458 672 l 342 332 m 425 935 q 460 976 447 953 q 472 1019 472 999 q 462 1050 472 1039 q 431 1061 451 1061 q 364 1024 396 1061 l 311 1083 q 374 1133 339 1117 q 447 1150 410 1150 q 533 1119 499 1150 q 567 1035 567 1089 q 464 890 567 960 l 425 935 z "},"Ȃ":{"ha":915,"x_min":13,"x_max":903,"o":"m 13 0 l 13 108 l 147 108 l 372 710 l 238 710 l 238 818 l 521 818 l 772 108 l 903 108 l 903 0 l 558 0 l 558 108 l 643 108 l 599 233 l 306 233 l 260 108 l 346 108 l 346 0 l 13 0 m 342 332 l 564 332 l 458 672 l 342 332 m 446 1111 q 598 1067 540 1111 q 671 936 656 1022 l 575 921 q 537 993 569 968 q 446 1018 504 1018 q 318 921 331 1018 l 222 936 q 294 1067 238 1022 q 446 1111 351 1111 z "},"Ā":{"ha":915,"x_min":13,"x_max":903,"o":"m 13 0 l 13 108 l 147 108 l 372 710 l 238 710 l 238 818 l 521 818 l 772 108 l 903 108 l 903 0 l 558 0 l 558 108 l 643 108 l 599 233 l 306 233 l 260 108 l 346 108 l 346 0 l 13 0 m 342 332 l 564 332 l 458 672 l 342 332 m 232 1044 l 661 1044 l 661 956 l 232 956 l 232 1044 z "},"Ą":{"ha":915,"x_min":13,"x_max":903,"o":"m 765 0 q 682 -67 708 -31 q 656 -146 656 -103 q 678 -193 656 -176 q 739 -210 700 -210 q 807 -197 772 -210 l 807 -286 q 693 -312 753 -312 q 578 -278 624 -312 q 532 -185 532 -243 q 565 -83 532 -128 q 665 0 597 -37 l 558 0 l 558 108 l 643 108 l 599 233 l 306 233 l 260 108 l 346 108 l 346 0 l 13 0 l 13 108 l 147 108 l 372 710 l 238 710 l 238 818 l 521 818 l 772 108 l 903 108 l 903 0 l 765 0 m 342 332 l 564 332 l 458 672 l 342 332 z "},"Å":{"ha":956,"x_min":13,"x_max":903,"o":"m 903 108 l 903 0 l 558 0 l 558 108 l 643 108 l 599 233 l 306 233 l 260 108 l 346 108 l 346 0 l 13 0 l 13 108 l 147 108 l 372 710 l 238 710 l 238 818 l 382 818 q 344 913 344 853 q 378 1004 344 969 q 469 1039 413 1039 q 563 1004 528 1039 q 597 913 597 969 q 578 842 597 872 q 528 797 560 813 l 772 108 l 903 108 m 469 971 q 428 954 444 971 q 413 913 413 938 q 428 870 413 886 q 469 854 444 854 q 512 870 496 854 q 528 913 528 886 q 512 954 528 938 q 469 971 496 971 m 342 332 l 564 332 l 458 672 l 342 332 z "},"Ǻ":{"ha":956,"x_min":13,"x_max":903,"o":"m 903 108 l 903 0 l 558 0 l 558 108 l 643 108 l 599 233 l 306 233 l 260 108 l 346 108 l 346 0 l 13 0 l 13 108 l 147 108 l 372 710 l 238 710 l 238 818 l 382 818 q 344 913 344 853 q 378 1004 344 969 q 469 1039 413 1039 q 563 1004 528 1039 q 597 913 597 969 q 578 842 597 872 q 528 797 560 813 l 772 108 l 903 108 m 469 971 q 428 954 444 971 q 413 913 413 938 q 428 870 413 886 q 469 854 444 854 q 512 870 496 854 q 528 913 528 886 q 512 954 528 938 q 469 971 496 971 m 342 332 l 564 332 l 458 672 l 342 332 m 676 1246 l 704 1136 l 354 1074 l 339 1126 l 676 1246 z "},"Ã":{"ha":915,"x_min":13,"x_max":903,"o":"m 13 0 l 13 108 l 147 108 l 372 710 l 238 710 l 238 818 l 521 818 l 772 108 l 903 108 l 903 0 l 558 0 l 558 108 l 643 108 l 599 233 l 306 233 l 260 108 l 346 108 l 346 0 l 13 0 m 342 332 l 564 332 l 458 672 l 342 332 m 240 994 q 320 1041 289 1028 q 397 1054 351 1054 q 450 1046 426 1054 q 501 1022 474 1038 q 540 1004 525 1010 q 572 999 554 999 q 613 1008 596 999 q 668 1043 631 1017 l 703 963 q 631 913 661 926 q 563 900 601 900 q 523 908 542 900 q 479 929 504 915 q 435 950 453 943 q 397 957 417 957 q 348 951 368 957 q 305 933 328 944 q 272 918 282 922 l 240 994 z "},"Æ":{"ha":1285,"x_min":38,"x_max":1238,"o":"m 38 0 l 38 108 l 175 108 l 554 710 l 414 710 l 414 818 l 1133 818 l 1210 596 l 1106 561 l 1051 710 l 797 710 l 797 464 l 1021 464 l 1021 357 l 796 357 l 796 108 l 1081 108 l 1135 254 l 1238 219 l 1164 0 l 543 0 l 543 108 l 671 108 l 671 226 l 374 226 l 300 108 l 379 108 l 379 0 l 38 0 m 439 335 l 671 335 l 672 710 l 439 335 z "},"Ǽ":{"ha":1285,"x_min":38,"x_max":1238,"o":"m 38 0 l 38 108 l 175 108 l 554 710 l 414 710 l 414 818 l 1133 818 l 1210 596 l 1106 561 l 1051 710 l 797 710 l 797 464 l 1021 464 l 1021 357 l 796 357 l 796 108 l 1081 108 l 1135 254 l 1238 219 l 1164 0 l 543 0 l 543 108 l 671 108 l 671 226 l 374 226 l 300 108 l 379 108 l 379 0 l 38 0 m 439 335 l 671 335 l 672 710 l 439 335 m 939 1076 l 967 967 l 617 904 l 601 957 l 939 1076 z "},"B":{"ha":786,"x_min":53,"x_max":749,"o":"m 53 108 l 181 108 l 181 710 l 53 710 l 53 818 l 410 818 q 642 763 563 818 q 722 603 722 707 q 692 497 722 546 q 611 421 663 447 q 711 347 674 399 q 749 224 749 296 q 679 60 749 121 q 474 0 610 0 l 53 0 l 53 108 m 472 460 q 560 493 529 460 q 590 585 590 526 q 425 710 590 710 l 306 710 l 306 460 l 472 460 m 463 110 q 577 142 538 110 q 617 240 617 175 q 579 333 617 301 q 471 365 542 365 l 306 365 l 306 110 l 463 110 z "},"C":{"ha":811,"x_min":61,"x_max":753,"o":"m 618 704 q 556 725 597 715 q 461 735 514 735 q 263 649 332 735 q 193 410 193 564 q 263 169 193 254 q 461 83 333 83 q 618 114 542 83 l 646 228 l 751 203 l 715 32 q 678 16 715 31 q 585 -10 642 1 q 461 -22 529 -22 q 250 30 340 -22 q 110 180 160 82 q 61 413 61 278 q 110 638 61 542 q 249 788 160 735 q 457 840 339 840 q 597 826 539 840 q 688 794 656 811 q 719 774 719 776 l 753 603 l 647 579 l 618 704 z "},"Ć":{"ha":811,"x_min":61,"x_max":753,"o":"m 618 704 q 556 725 597 715 q 461 735 514 735 q 263 649 332 735 q 193 410 193 564 q 263 169 193 254 q 461 83 333 83 q 618 114 542 83 l 646 228 l 751 203 l 715 32 q 678 16 715 31 q 585 -10 642 1 q 461 -22 529 -22 q 250 30 340 -22 q 110 180 160 82 q 61 413 61 278 q 110 638 61 542 q 249 788 160 735 q 457 840 339 840 q 597 826 539 840 q 688 794 656 811 q 719 774 719 776 l 753 603 l 647 579 l 618 704 m 672 1076 l 700 967 l 350 904 l 335 957 l 672 1076 z "},"Č":{"ha":811,"x_min":61,"x_max":753,"o":"m 618 704 q 556 725 597 715 q 461 735 514 735 q 263 649 332 735 q 193 410 193 564 q 263 169 193 254 q 461 83 333 83 q 618 114 542 83 l 646 228 l 751 203 l 715 32 q 678 16 715 31 q 585 -10 642 1 q 461 -22 529 -22 q 250 30 340 -22 q 110 180 160 82 q 61 413 61 278 q 110 638 61 542 q 249 788 160 735 q 457 840 339 840 q 597 826 539 840 q 688 794 656 811 q 719 774 719 776 l 753 603 l 647 579 l 618 704 m 463 886 l 244 1029 l 285 1090 l 463 999 l 639 1093 l 675 1029 l 463 886 z "},"Ç":{"ha":811,"x_min":61,"x_max":753,"o":"m 646 228 l 751 203 l 715 32 q 682 17 708 28 q 608 -5 656 7 q 504 -21 561 -17 l 504 -83 q 661 -194 661 -81 q 618 -283 661 -251 q 503 -314 575 -314 q 411 -297 447 -314 q 347 -260 375 -279 l 382 -204 q 438 -231 406 -221 q 500 -242 471 -242 q 572 -193 572 -242 q 553 -157 572 -168 q 486 -146 533 -146 l 426 -146 l 426 -21 q 233 40 315 -14 q 106 190 150 94 q 61 413 61 285 q 110 638 61 542 q 249 788 160 735 q 457 840 339 840 q 597 826 539 840 q 688 794 656 811 q 719 774 719 776 l 753 603 l 647 579 l 618 704 q 556 725 597 715 q 461 735 514 735 q 263 649 332 735 q 193 410 193 564 q 263 169 193 254 q 461 83 333 83 q 618 114 542 83 l 646 228 z "},"Ḉ":{"ha":811,"x_min":61,"x_max":753,"o":"m 700 967 l 350 904 l 335 957 l 672 1076 l 700 967 m 646 228 l 751 203 l 715 32 q 682 17 708 28 q 608 -5 656 7 q 504 -21 561 -17 l 504 -83 q 661 -194 661 -81 q 618 -283 661 -251 q 503 -314 575 -314 q 411 -297 447 -314 q 347 -260 375 -279 l 382 -204 q 438 -231 406 -221 q 500 -242 471 -242 q 572 -193 572 -242 q 553 -157 572 -168 q 486 -146 533 -146 l 426 -146 l 426 -21 q 233 40 315 -14 q 106 190 150 94 q 61 413 61 285 q 110 638 61 542 q 249 788 160 735 q 457 840 339 840 q 597 826 539 840 q 688 794 656 811 q 719 774 719 776 l 753 603 l 647 579 l 618 704 q 556 725 597 715 q 461 735 514 735 q 263 649 332 735 q 193 410 193 564 q 263 169 193 254 q 461 83 333 83 q 618 114 542 83 l 646 228 z "},"Ĉ":{"ha":811,"x_min":61,"x_max":753,"o":"m 618 704 q 556 725 597 715 q 461 735 514 735 q 263 649 332 735 q 193 410 193 564 q 263 169 193 254 q 461 83 333 83 q 618 114 542 83 l 646 228 l 751 203 l 715 32 q 678 16 715 31 q 585 -10 642 1 q 461 -22 529 -22 q 250 30 340 -22 q 110 180 160 82 q 61 413 61 278 q 110 638 61 542 q 249 788 160 735 q 457 840 339 840 q 597 826 539 840 q 688 794 656 811 q 719 774 719 776 l 753 603 l 647 579 l 618 704 m 460 1088 l 701 950 l 671 901 l 460 981 l 247 901 l 218 950 l 460 1088 z "},"Ċ":{"ha":811,"x_min":61,"x_max":753,"o":"m 618 704 q 556 725 597 715 q 461 735 514 735 q 263 649 332 735 q 193 410 193 564 q 263 169 193 254 q 461 83 333 83 q 618 114 542 83 l 646 228 l 751 203 l 715 32 q 678 16 715 31 q 585 -10 642 1 q 461 -22 529 -22 q 250 30 340 -22 q 110 180 160 82 q 61 413 61 278 q 110 638 61 542 q 249 788 160 735 q 457 840 339 840 q 597 826 539 840 q 688 794 656 811 q 719 774 719 776 l 753 603 l 647 579 l 618 704 m 458 1115 q 522 1091 497 1115 q 547 1026 547 1067 q 522 963 547 988 q 458 938 497 938 q 395 962 419 938 q 371 1026 371 986 q 395 1091 371 1067 q 458 1115 419 1115 z "},"D":{"ha":910,"x_min":53,"x_max":850,"o":"m 425 818 q 738 706 625 818 q 850 396 850 594 q 740 105 850 210 q 436 0 631 0 l 53 0 l 53 108 l 181 108 l 181 710 l 53 710 l 53 818 l 425 818 m 411 108 q 640 181 563 108 q 718 394 718 254 q 644 630 718 550 q 425 710 569 710 l 306 710 l 306 108 l 411 108 z "},"Ð":{"ha":928,"x_min":71,"x_max":868,"o":"m 443 818 q 758 721 647 818 q 868 396 868 624 q 815 182 868 271 q 667 47 761 93 q 454 0 572 0 l 71 0 l 71 108 l 199 108 l 199 371 l 71 371 l 71 474 l 199 474 l 199 710 l 71 710 l 71 818 l 443 818 m 429 108 q 660 178 583 108 q 736 394 736 249 q 703 588 736 519 q 608 683 671 657 q 443 710 544 710 l 324 710 l 324 474 l 474 474 l 474 371 l 324 371 l 324 108 l 429 108 z "},"Ď":{"ha":910,"x_min":53,"x_max":850,"o":"m 425 818 q 738 706 625 818 q 850 396 850 594 q 740 105 850 210 q 436 0 631 0 l 53 0 l 53 108 l 181 108 l 181 710 l 53 710 l 53 818 l 425 818 m 411 108 q 640 181 563 108 q 718 394 718 254 q 644 630 718 550 q 425 710 569 710 l 306 710 l 306 108 l 411 108 m 401 896 l 160 1033 l 189 1082 l 401 1003 l 613 1082 l 643 1033 l 401 896 z "},"Đ":{"ha":928,"x_min":71,"x_max":868,"o":"m 443 818 q 758 721 647 818 q 868 396 868 624 q 815 182 868 271 q 667 47 761 93 q 454 0 572 0 l 71 0 l 71 108 l 199 108 l 199 371 l 71 371 l 71 474 l 199 474 l 199 710 l 71 710 l 71 818 l 443 818 m 429 108 q 660 178 583 108 q 736 394 736 249 q 703 588 736 519 q 608 683 671 657 q 443 710 544 710 l 324 710 l 324 474 l 474 474 l 474 371 l 324 371 l 324 108 l 429 108 z "},"Ḍ":{"ha":910,"x_min":53,"x_max":850,"o":"m 425 818 q 738 706 625 818 q 850 396 850 594 q 740 105 850 210 q 436 0 631 0 l 53 0 l 53 108 l 181 108 l 181 710 l 53 710 l 53 818 l 425 818 m 411 108 q 640 181 563 108 q 718 394 718 254 q 644 630 718 550 q 425 710 569 710 l 306 710 l 306 108 l 411 108 m 425 -81 q 489 -106 464 -81 q 514 -169 514 -131 q 489 -234 514 -210 q 425 -258 464 -258 q 362 -234 386 -258 q 338 -169 338 -210 q 362 -105 338 -129 q 425 -81 386 -81 z "},"Ḏ":{"ha":910,"x_min":53,"x_max":850,"o":"m 425 818 q 738 706 625 818 q 850 396 850 594 q 740 105 850 210 q 436 0 631 0 l 53 0 l 53 108 l 181 108 l 181 710 l 53 710 l 53 818 l 425 818 m 411 108 q 640 181 563 108 q 718 394 718 254 q 644 630 718 550 q 425 710 569 710 l 306 710 l 306 108 l 411 108 m 208 -61 l 643 -61 l 643 -153 l 208 -153 l 208 -61 z "},"E":{"ha":824,"x_min":53,"x_max":778,"o":"m 54 818 l 675 818 l 749 596 l 647 561 l 592 710 l 308 710 l 308 475 l 561 475 l 561 367 l 308 367 l 307 108 l 622 108 l 676 254 l 778 219 l 704 0 l 53 0 l 53 108 l 182 108 l 183 710 l 54 710 l 54 818 z "},"É":{"ha":824,"x_min":53,"x_max":778,"o":"m 54 818 l 675 818 l 749 596 l 647 561 l 592 710 l 308 710 l 308 475 l 561 475 l 561 367 l 308 367 l 307 108 l 622 108 l 676 254 l 778 219 l 704 0 l 53 0 l 53 108 l 182 108 l 183 710 l 54 710 l 54 818 m 622 1076 l 650 967 l 300 904 l 285 957 l 622 1076 z "},"Ĕ":{"ha":824,"x_min":53,"x_max":778,"o":"m 54 818 l 675 818 l 749 596 l 647 561 l 592 710 l 308 710 l 308 475 l 561 475 l 561 367 l 308 367 l 307 108 l 622 108 l 676 254 l 778 219 l 704 0 l 53 0 l 53 108 l 182 108 l 183 710 l 54 710 l 54 818 m 408 906 q 257 950 314 906 q 185 1081 200 994 l 281 1096 q 408 999 293 999 q 499 1024 467 999 q 538 1096 532 1049 l 633 1081 q 560 950 618 994 q 408 906 503 906 z "},"Ě":{"ha":824,"x_min":53,"x_max":778,"o":"m 54 818 l 675 818 l 749 596 l 647 561 l 592 710 l 308 710 l 308 475 l 561 475 l 561 367 l 308 367 l 307 108 l 622 108 l 676 254 l 778 219 l 704 0 l 53 0 l 53 108 l 182 108 l 183 710 l 54 710 l 54 818 m 413 886 l 194 1029 l 235 1090 l 413 999 l 589 1093 l 625 1029 l 413 886 z "},"Ḝ":{"ha":824,"x_min":53,"x_max":778,"o":"m 54 818 l 675 818 l 749 596 l 647 561 l 592 710 l 308 710 l 308 475 l 561 475 l 561 367 l 308 367 l 307 108 l 622 108 l 676 254 l 778 219 l 704 0 l 53 0 l 53 108 l 182 108 l 183 710 l 54 710 l 54 818 m 486 -314 q 394 -297 431 -314 q 331 -260 358 -279 l 365 -204 q 422 -231 389 -221 q 483 -242 454 -242 q 556 -193 556 -242 q 536 -157 556 -168 q 469 -146 517 -146 l 410 -146 l 410 0 l 488 0 l 488 -83 q 644 -194 644 -81 q 601 -283 644 -251 q 486 -314 558 -314 m 408 906 q 257 950 314 906 q 185 1081 200 994 l 281 1096 q 408 999 293 999 q 499 1024 467 999 q 538 1096 532 1049 l 633 1081 q 560 950 618 994 q 408 906 503 906 z "},"Ê":{"ha":824,"x_min":53,"x_max":778,"o":"m 54 818 l 675 818 l 749 596 l 647 561 l 592 710 l 308 710 l 308 475 l 561 475 l 561 367 l 308 367 l 307 108 l 622 108 l 676 254 l 778 219 l 704 0 l 53 0 l 53 108 l 182 108 l 183 710 l 54 710 l 54 818 m 410 1088 l 651 950 l 621 901 l 410 981 l 197 901 l 168 950 l 410 1088 z "},"Ế":{"ha":824,"x_min":53,"x_max":778,"o":"m 54 818 l 675 818 l 749 596 l 647 561 l 592 710 l 308 710 l 308 475 l 561 475 l 561 367 l 308 367 l 307 108 l 622 108 l 676 254 l 778 219 l 704 0 l 53 0 l 53 108 l 182 108 l 183 710 l 54 710 l 54 818 m 507 1303 l 561 1206 l 293 1097 l 268 1147 l 507 1303 m 410 1088 l 651 950 l 621 901 l 410 981 l 197 901 l 168 950 l 410 1088 z "},"Ệ":{"ha":824,"x_min":53,"x_max":778,"o":"m 54 818 l 675 818 l 749 596 l 647 561 l 592 710 l 308 710 l 308 475 l 561 475 l 561 367 l 308 367 l 307 108 l 622 108 l 676 254 l 778 219 l 704 0 l 53 0 l 53 108 l 182 108 l 183 710 l 54 710 l 54 818 m 408 -81 q 472 -106 447 -81 q 497 -169 497 -131 q 472 -234 497 -210 q 408 -258 447 -258 q 345 -234 369 -258 q 321 -169 321 -210 q 345 -105 321 -129 q 408 -81 369 -81 m 410 1088 l 651 950 l 621 901 l 410 981 l 197 901 l 168 950 l 410 1088 z "},"Ề":{"ha":824,"x_min":53,"x_max":778,"o":"m 54 818 l 675 818 l 749 596 l 647 561 l 592 710 l 308 710 l 308 475 l 561 475 l 561 367 l 308 367 l 307 108 l 622 108 l 676 254 l 778 219 l 704 0 l 53 0 l 53 108 l 182 108 l 183 710 l 54 710 l 54 818 m 318 1292 l 556 1136 l 532 1088 l 264 1194 l 318 1292 m 410 1088 l 651 950 l 621 901 l 410 981 l 197 901 l 168 950 l 410 1088 z "},"Ể":{"ha":824,"x_min":53,"x_max":778,"o":"m 54 818 l 675 818 l 749 596 l 647 561 l 592 710 l 308 710 l 308 475 l 561 475 l 561 367 l 308 367 l 307 108 l 622 108 l 676 254 l 778 219 l 704 0 l 53 0 l 53 108 l 182 108 l 183 710 l 54 710 l 54 818 m 410 1088 l 651 950 l 621 901 l 410 981 l 197 901 l 168 950 l 410 1088 m 521 1092 q 556 1133 543 1110 q 568 1176 568 1156 q 558 1207 568 1196 q 526 1218 547 1218 q 460 1181 492 1218 l 407 1240 q 470 1290 435 1274 q 543 1307 506 1307 q 628 1276 594 1307 q 663 1192 663 1246 q 560 1047 663 1117 l 521 1092 z "},"Ễ":{"ha":824,"x_min":53,"x_max":778,"o":"m 54 818 l 675 818 l 749 596 l 647 561 l 592 710 l 308 710 l 308 475 l 561 475 l 561 367 l 308 367 l 307 108 l 622 108 l 676 254 l 778 219 l 704 0 l 53 0 l 53 108 l 182 108 l 183 710 l 54 710 l 54 818 m 194 1193 q 272 1238 242 1225 q 346 1250 303 1250 q 399 1242 375 1250 q 450 1218 422 1233 q 487 1199 471 1206 q 521 1193 503 1193 q 561 1202 543 1193 q 617 1239 579 1211 l 640 1160 q 572 1113 600 1125 q 508 1100 543 1100 q 424 1129 474 1100 q 379 1150 397 1143 q 342 1157 361 1157 q 292 1151 313 1157 q 249 1133 272 1144 q 217 1118 226 1122 l 194 1193 m 415 1086 l 657 949 l 626 900 l 415 979 l 203 900 l 174 949 l 415 1086 z "},"Ȅ":{"ha":824,"x_min":53,"x_max":778,"o":"m 54 818 l 675 818 l 749 596 l 647 561 l 592 710 l 308 710 l 308 475 l 561 475 l 561 367 l 308 367 l 307 108 l 622 108 l 676 254 l 778 219 l 704 0 l 53 0 l 53 108 l 182 108 l 183 710 l 54 710 l 54 818 m 390 1199 l 567 938 l 511 897 l 301 1132 l 390 1199 m 147 1171 l 369 947 l 322 897 l 74 1089 l 147 1171 z "},"Ë":{"ha":824,"x_min":53,"x_max":778,"o":"m 54 818 l 675 818 l 749 596 l 647 561 l 592 710 l 308 710 l 308 475 l 561 475 l 561 367 l 308 367 l 307 108 l 622 108 l 676 254 l 778 219 l 704 0 l 53 0 l 53 108 l 182 108 l 183 710 l 54 710 l 54 818 m 283 1090 q 342 1065 317 1090 q 367 1007 367 1040 q 342 949 367 974 q 283 925 317 925 q 226 949 250 925 q 201 1007 201 974 q 226 1065 201 1040 q 283 1090 250 1090 m 536 1090 q 594 1065 569 1090 q 618 1007 618 1040 q 594 949 618 974 q 536 925 569 925 q 477 949 501 925 q 453 1007 453 974 q 477 1065 453 1040 q 536 1090 501 1090 z "},"Ė":{"ha":824,"x_min":53,"x_max":778,"o":"m 54 818 l 675 818 l 749 596 l 647 561 l 592 710 l 308 710 l 308 475 l 561 475 l 561 367 l 308 367 l 307 108 l 622 108 l 676 254 l 778 219 l 704 0 l 53 0 l 53 108 l 182 108 l 183 710 l 54 710 l 54 818 m 408 1115 q 472 1091 447 1115 q 497 1026 497 1067 q 472 963 497 988 q 408 938 447 938 q 345 962 369 938 q 321 1026 321 986 q 345 1091 321 1067 q 408 1115 369 1115 z "},"Ẹ":{"ha":824,"x_min":53,"x_max":778,"o":"m 54 818 l 675 818 l 749 596 l 647 561 l 592 710 l 308 710 l 308 475 l 561 475 l 561 367 l 308 367 l 307 108 l 622 108 l 676 254 l 778 219 l 704 0 l 53 0 l 53 108 l 182 108 l 183 710 l 54 710 l 54 818 m 408 -81 q 472 -106 447 -81 q 497 -169 497 -131 q 472 -234 497 -210 q 408 -258 447 -258 q 345 -234 369 -258 q 321 -169 321 -210 q 345 -105 321 -129 q 408 -81 369 -81 z "},"È":{"ha":824,"x_min":53,"x_max":778,"o":"m 54 818 l 675 818 l 749 596 l 647 561 l 592 710 l 308 710 l 308 475 l 561 475 l 561 367 l 308 367 l 307 108 l 622 108 l 676 254 l 778 219 l 704 0 l 53 0 l 53 108 l 182 108 l 183 710 l 54 710 l 54 818 m 160 1071 l 499 951 l 483 899 l 132 961 l 160 1071 z "},"Ẻ":{"ha":824,"x_min":53,"x_max":778,"o":"m 54 818 l 675 818 l 749 596 l 647 561 l 592 710 l 308 710 l 308 475 l 561 475 l 561 367 l 308 367 l 307 108 l 622 108 l 676 254 l 778 219 l 704 0 l 53 0 l 53 108 l 182 108 l 183 710 l 54 710 l 54 818 m 388 935 q 422 976 410 953 q 435 1019 435 999 q 424 1050 435 1039 q 393 1061 414 1061 q 326 1024 358 1061 l 274 1083 q 337 1133 301 1117 q 410 1150 372 1150 q 495 1119 461 1150 q 529 1035 529 1089 q 426 890 529 960 l 388 935 z "},"Ȇ":{"ha":824,"x_min":53,"x_max":778,"o":"m 54 818 l 675 818 l 749 596 l 647 561 l 592 710 l 308 710 l 308 475 l 561 475 l 561 367 l 308 367 l 307 108 l 622 108 l 676 254 l 778 219 l 704 0 l 53 0 l 53 108 l 182 108 l 183 710 l 54 710 l 54 818 m 408 1111 q 560 1067 503 1111 q 633 936 618 1022 l 538 921 q 499 993 532 968 q 408 1018 467 1018 q 281 921 293 1018 l 185 936 q 257 1067 200 1022 q 408 1111 314 1111 z "},"Ē":{"ha":824,"x_min":53,"x_max":778,"o":"m 54 818 l 675 818 l 749 596 l 647 561 l 592 710 l 308 710 l 308 475 l 561 475 l 561 367 l 308 367 l 307 108 l 622 108 l 676 254 l 778 219 l 704 0 l 53 0 l 53 108 l 182 108 l 183 710 l 54 710 l 54 818 m 194 1044 l 624 1044 l 624 956 l 194 956 l 194 1044 z "},"Ḗ":{"ha":824,"x_min":53,"x_max":778,"o":"m 54 818 l 675 818 l 749 596 l 647 561 l 592 710 l 308 710 l 308 475 l 561 475 l 561 367 l 308 367 l 307 108 l 622 108 l 676 254 l 778 219 l 704 0 l 53 0 l 53 108 l 182 108 l 183 710 l 54 710 l 54 818 m 194 1044 l 624 1044 l 624 956 l 194 956 l 194 1044 m 642 1283 l 669 1174 l 319 1111 l 304 1164 l 642 1283 z "},"Ḕ":{"ha":824,"x_min":53,"x_max":778,"o":"m 54 818 l 675 818 l 749 596 l 647 561 l 592 710 l 308 710 l 308 475 l 561 475 l 561 367 l 308 367 l 307 108 l 622 108 l 676 254 l 778 219 l 704 0 l 53 0 l 53 108 l 182 108 l 183 710 l 54 710 l 54 818 m 194 1044 l 624 1044 l 624 956 l 194 956 l 194 1044 m 179 1278 l 518 1158 l 503 1106 l 151 1168 l 179 1278 z "},"Ę":{"ha":824,"x_min":53,"x_max":778,"o":"m 596 -146 q 618 -193 596 -176 q 679 -210 640 -210 q 747 -197 713 -210 l 747 -286 q 633 -312 693 -312 q 518 -278 564 -312 q 472 -185 472 -243 q 505 -83 472 -128 q 606 0 538 -37 l 53 0 l 53 108 l 182 108 l 183 710 l 54 710 l 54 818 l 675 818 l 749 596 l 647 561 l 592 710 l 308 710 l 308 475 l 561 475 l 561 367 l 308 367 l 307 108 l 622 108 l 676 254 l 778 219 l 704 1 l 706 0 q 622 -67 649 -31 q 596 -146 596 -103 z "},"Ẽ":{"ha":824,"x_min":53,"x_max":778,"o":"m 54 818 l 675 818 l 749 596 l 647 561 l 592 710 l 308 710 l 308 475 l 561 475 l 561 367 l 308 367 l 307 108 l 622 108 l 676 254 l 778 219 l 704 0 l 53 0 l 53 108 l 182 108 l 183 710 l 54 710 l 54 818 m 203 994 q 283 1041 251 1028 q 360 1054 314 1054 q 413 1046 389 1054 q 464 1022 436 1038 q 502 1004 488 1010 q 535 999 517 999 q 576 1008 558 999 q 631 1043 593 1017 l 665 963 q 594 913 624 926 q 525 900 564 900 q 485 908 504 900 q 442 929 467 915 q 397 950 415 943 q 360 957 379 957 q 310 951 331 957 q 267 933 290 944 q 235 918 244 922 l 203 994 z "},"F":{"ha":788,"x_min":53,"x_max":749,"o":"m 54 818 l 674 818 l 749 593 l 647 558 l 592 710 l 307 710 l 307 468 l 532 468 l 532 360 l 306 360 l 306 108 l 478 108 l 478 0 l 53 0 l 53 108 l 182 108 l 183 710 l 54 710 l 54 818 z "},"G":{"ha":835,"x_min":60,"x_max":760,"o":"m 751 76 q 613 0 674 22 q 454 -22 553 -22 q 251 27 340 -22 q 111 174 163 76 q 60 410 60 271 q 110 638 60 540 q 251 788 160 735 q 464 840 342 840 q 725 761 624 840 l 760 603 l 653 578 l 626 693 q 556 726 590 715 q 467 736 521 736 q 331 697 394 736 q 230 584 268 658 q 192 410 192 510 q 265 165 192 247 q 453 83 339 83 q 553 94 514 83 q 633 133 592 106 l 633 303 l 456 303 l 456 408 l 751 408 l 751 76 z "},"Ğ":{"ha":835,"x_min":60,"x_max":760,"o":"m 751 76 q 613 0 674 22 q 454 -22 553 -22 q 251 27 340 -22 q 111 174 163 76 q 60 410 60 271 q 110 638 60 540 q 251 788 160 735 q 464 840 342 840 q 725 761 624 840 l 760 603 l 653 578 l 626 693 q 556 726 590 715 q 467 736 521 736 q 331 697 394 736 q 230 584 268 658 q 192 410 192 510 q 265 165 192 247 q 453 83 339 83 q 553 94 514 83 q 633 133 592 106 l 633 303 l 456 303 l 456 408 l 751 408 l 751 76 m 469 906 q 318 950 375 906 q 246 1081 261 994 l 342 1096 q 469 999 354 999 q 560 1024 528 999 q 599 1096 593 1049 l 694 1081 q 622 950 679 994 q 469 906 564 906 z "},"Ǧ":{"ha":835,"x_min":60,"x_max":760,"o":"m 751 76 q 613 0 674 22 q 454 -22 553 -22 q 251 27 340 -22 q 111 174 163 76 q 60 410 60 271 q 110 638 60 540 q 251 788 160 735 q 464 840 342 840 q 725 761 624 840 l 760 603 l 653 578 l 626 693 q 556 726 590 715 q 467 736 521 736 q 331 697 394 736 q 230 584 268 658 q 192 410 192 510 q 265 165 192 247 q 453 83 339 83 q 553 94 514 83 q 633 133 592 106 l 633 303 l 456 303 l 456 408 l 751 408 l 751 76 m 474 886 l 256 1029 l 296 1090 l 474 999 l 650 1093 l 686 1029 l 474 886 z "},"Ĝ":{"ha":835,"x_min":60,"x_max":760,"o":"m 751 76 q 613 0 674 22 q 454 -22 553 -22 q 251 27 340 -22 q 111 174 163 76 q 60 410 60 271 q 110 638 60 540 q 251 788 160 735 q 464 840 342 840 q 725 761 624 840 l 760 603 l 653 578 l 626 693 q 556 726 590 715 q 467 736 521 736 q 331 697 394 736 q 230 584 268 658 q 192 410 192 510 q 265 165 192 247 q 453 83 339 83 q 553 94 514 83 q 633 133 592 106 l 633 303 l 456 303 l 456 408 l 751 408 l 751 76 m 471 1088 l 713 950 l 682 901 l 471 981 l 258 901 l 229 950 l 471 1088 z "},"Ģ":{"ha":835,"x_min":60,"x_max":760,"o":"m 751 76 q 613 0 674 22 q 454 -22 553 -22 q 251 27 340 -22 q 111 174 163 76 q 60 410 60 271 q 110 638 60 540 q 251 788 160 735 q 464 840 342 840 q 725 761 624 840 l 760 603 l 653 578 l 626 693 q 556 726 590 715 q 467 736 521 736 q 331 697 394 736 q 230 584 268 658 q 192 410 192 510 q 265 165 192 247 q 453 83 339 83 q 553 94 514 83 q 633 133 592 106 l 633 303 l 456 303 l 456 408 l 751 408 l 751 76 m 388 -385 q 417 -340 394 -375 q 453 -275 439 -306 q 394 -245 415 -269 q 372 -189 372 -221 q 399 -123 372 -149 q 468 -97 426 -97 q 538 -127 508 -97 q 568 -197 568 -157 q 438 -429 569 -297 l 388 -385 z "},"Ġ":{"ha":835,"x_min":60,"x_max":760,"o":"m 751 76 q 613 0 674 22 q 454 -22 553 -22 q 251 27 340 -22 q 111 174 163 76 q 60 410 60 271 q 110 638 60 540 q 251 788 160 735 q 464 840 342 840 q 725 761 624 840 l 760 603 l 653 578 l 626 693 q 556 726 590 715 q 467 736 521 736 q 331 697 394 736 q 230 584 268 658 q 192 410 192 510 q 265 165 192 247 q 453 83 339 83 q 553 94 514 83 q 633 133 592 106 l 633 303 l 456 303 l 456 408 l 751 408 l 751 76 m 469 1115 q 533 1091 508 1115 q 558 1026 558 1067 q 533 963 558 988 q 469 938 508 938 q 406 962 431 938 q 382 1026 382 986 q 406 1091 382 1067 q 469 1115 431 1115 z "},"Ḡ":{"ha":835,"x_min":60,"x_max":760,"o":"m 751 76 q 613 0 674 22 q 454 -22 553 -22 q 251 27 340 -22 q 111 174 163 76 q 60 410 60 271 q 110 638 60 540 q 251 788 160 735 q 464 840 342 840 q 725 761 624 840 l 760 603 l 653 578 l 626 693 q 556 726 590 715 q 467 736 521 736 q 331 697 394 736 q 230 584 268 658 q 192 410 192 510 q 265 165 192 247 q 453 83 339 83 q 553 94 514 83 q 633 133 592 106 l 633 303 l 456 303 l 456 408 l 751 408 l 751 76 m 256 1044 l 685 1044 l 685 956 l 256 956 l 256 1044 z "},"H":{"ha":1000,"x_min":53,"x_max":947,"o":"m 54 818 l 394 818 l 394 710 l 308 710 l 307 471 l 693 471 l 694 710 l 608 710 l 608 818 l 947 818 l 947 710 l 819 710 l 817 108 l 946 108 l 946 0 l 607 0 l 607 108 l 693 108 l 693 364 l 307 364 l 306 108 l 392 108 l 392 0 l 53 0 l 53 108 l 182 108 l 183 710 l 54 710 l 54 818 z "},"Ħ":{"ha":1000,"x_min":53,"x_max":947,"o":"m 947 710 l 819 710 l 819 632 l 922 632 l 922 557 l 818 557 l 817 108 l 946 108 l 946 0 l 607 0 l 607 108 l 693 108 l 693 364 l 307 364 l 306 108 l 392 108 l 392 0 l 53 0 l 53 108 l 182 108 l 183 557 l 69 557 l 69 632 l 183 632 l 183 710 l 54 710 l 54 818 l 394 818 l 394 710 l 308 710 l 308 632 l 694 632 l 694 710 l 608 710 l 608 818 l 947 818 l 947 710 m 693 471 l 693 557 l 307 557 l 307 471 l 693 471 z "},"Ḫ":{"ha":1000,"x_min":53,"x_max":947,"o":"m 54 818 l 394 818 l 394 710 l 308 710 l 307 471 l 693 471 l 694 710 l 608 710 l 608 818 l 947 818 l 947 710 l 819 710 l 817 108 l 946 108 l 946 0 l 607 0 l 607 108 l 693 108 l 693 364 l 307 364 l 306 108 l 392 108 l 392 0 l 53 0 l 53 108 l 182 108 l 183 710 l 54 710 l 54 818 m 499 -260 q 347 -215 404 -260 q 275 -85 290 -171 l 371 -69 q 499 -167 383 -167 q 590 -142 557 -167 q 628 -69 622 -117 l 724 -85 q 651 -215 708 -171 q 499 -260 593 -260 z "},"Ĥ":{"ha":1000,"x_min":53,"x_max":947,"o":"m 54 818 l 394 818 l 394 710 l 308 710 l 307 471 l 693 471 l 694 710 l 608 710 l 608 818 l 947 818 l 947 710 l 819 710 l 817 108 l 946 108 l 946 0 l 607 0 l 607 108 l 693 108 l 693 364 l 307 364 l 306 108 l 392 108 l 392 0 l 53 0 l 53 108 l 182 108 l 183 710 l 54 710 l 54 818 m 500 1088 l 742 950 l 711 901 l 500 981 l 288 901 l 258 950 l 500 1088 z "},"Ḥ":{"ha":1000,"x_min":53,"x_max":947,"o":"m 54 818 l 394 818 l 394 710 l 308 710 l 307 471 l 693 471 l 694 710 l 608 710 l 608 818 l 947 818 l 947 710 l 819 710 l 817 108 l 946 108 l 946 0 l 607 0 l 607 108 l 693 108 l 693 364 l 307 364 l 306 108 l 392 108 l 392 0 l 53 0 l 53 108 l 182 108 l 183 710 l 54 710 l 54 818 m 499 -81 q 563 -106 538 -81 q 588 -169 588 -131 q 563 -234 588 -210 q 499 -258 538 -258 q 435 -234 460 -258 q 411 -169 411 -210 q 435 -105 411 -129 q 499 -81 460 -81 z "},"I":{"ha":496,"x_min":53,"x_max":443,"o":"m 54 818 l 443 818 l 443 710 l 314 710 l 311 108 l 443 108 l 443 0 l 53 0 l 53 108 l 188 108 l 188 710 l 54 710 l 54 818 z "},"Í":{"ha":496,"x_min":53,"x_max":489,"o":"m 54 818 l 443 818 l 443 710 l 314 710 l 311 108 l 443 108 l 443 0 l 53 0 l 53 108 l 188 108 l 188 710 l 54 710 l 54 818 m 461 1076 l 489 967 l 139 904 l 124 957 l 461 1076 z "},"Ĭ":{"ha":496,"x_min":24,"x_max":472,"o":"m 54 818 l 443 818 l 443 710 l 314 710 l 311 108 l 443 108 l 443 0 l 53 0 l 53 108 l 188 108 l 188 710 l 54 710 l 54 818 m 247 906 q 96 950 153 906 q 24 1081 39 994 l 119 1096 q 247 999 132 999 q 338 1024 306 999 q 376 1096 371 1049 l 472 1081 q 399 950 457 994 q 247 906 342 906 z "},"Î":{"ha":496,"x_min":7,"x_max":490,"o":"m 54 818 l 443 818 l 443 710 l 314 710 l 311 108 l 443 108 l 443 0 l 53 0 l 53 108 l 188 108 l 188 710 l 54 710 l 54 818 m 249 1088 l 490 950 l 460 901 l 249 981 l 36 901 l 7 950 l 249 1088 z "},"Ȉ":{"ha":496,"x_min":-87,"x_max":443,"o":"m 54 818 l 443 818 l 443 710 l 314 710 l 311 108 l 443 108 l 443 0 l 53 0 l 53 108 l 188 108 l 188 710 l 54 710 l 54 818 m 229 1199 l 406 938 l 350 897 l 140 1132 l 229 1199 m -14 1171 l 208 947 l 161 897 l -87 1089 l -14 1171 z "},"Ï":{"ha":496,"x_min":40,"x_max":457,"o":"m 54 818 l 443 818 l 443 710 l 314 710 l 311 108 l 443 108 l 443 0 l 53 0 l 53 108 l 188 108 l 188 710 l 54 710 l 54 818 m 122 1090 q 181 1065 156 1090 q 206 1007 206 1040 q 181 949 206 974 q 122 925 156 925 q 65 949 89 925 q 40 1007 40 974 q 65 1065 40 1040 q 122 1090 89 1090 m 375 1090 q 433 1065 408 1090 q 457 1007 457 1040 q 433 949 457 974 q 375 925 408 925 q 316 949 340 925 q 292 1007 292 974 q 316 1065 292 1040 q 375 1090 340 1090 z "},"Ḯ":{"ha":496,"x_min":40,"x_max":489,"o":"m 54 818 l 443 818 l 443 710 l 314 710 l 311 108 l 443 108 l 443 0 l 53 0 l 53 108 l 188 108 l 188 710 l 54 710 l 54 818 m 122 1090 q 181 1065 156 1090 q 206 1007 206 1040 q 181 949 206 974 q 122 925 156 925 q 65 949 89 925 q 40 1007 40 974 q 65 1065 40 1040 q 122 1090 89 1090 m 375 1090 q 433 1065 408 1090 q 457 1007 457 1040 q 433 949 457 974 q 375 925 408 925 q 316 949 340 925 q 292 1007 292 974 q 316 1065 292 1040 q 375 1090 340 1090 m 461 1268 l 489 1158 l 139 1096 l 124 1149 l 461 1268 z "},"İ":{"ha":496,"x_min":53,"x_max":443,"o":"m 54 818 l 443 818 l 443 710 l 314 710 l 311 108 l 443 108 l 443 0 l 53 0 l 53 108 l 188 108 l 188 710 l 54 710 l 54 818 m 247 1115 q 311 1091 286 1115 q 336 1026 336 1067 q 311 963 336 988 q 247 938 286 938 q 184 962 208 938 q 160 1026 160 986 q 184 1091 160 1067 q 247 1115 208 1115 z "},"Ị":{"ha":496,"x_min":53,"x_max":443,"o":"m 54 818 l 443 818 l 443 710 l 314 710 l 311 108 l 443 108 l 443 0 l 53 0 l 53 108 l 188 108 l 188 710 l 54 710 l 54 818 m 258 -81 q 322 -106 297 -81 q 347 -169 347 -131 q 322 -234 347 -210 q 258 -258 297 -258 q 195 -234 219 -258 q 171 -169 171 -210 q 195 -105 171 -129 q 258 -81 219 -81 z "},"Ì":{"ha":496,"x_min":-29,"x_max":443,"o":"m 54 818 l 443 818 l 443 710 l 314 710 l 311 108 l 443 108 l 443 0 l 53 0 l 53 108 l 188 108 l 188 710 l 54 710 l 54 818 m -1 1071 l 338 951 l 322 899 l -29 961 l -1 1071 z "},"Ỉ":{"ha":496,"x_min":53,"x_max":443,"o":"m 54 818 l 443 818 l 443 710 l 314 710 l 311 108 l 443 108 l 443 0 l 53 0 l 53 108 l 188 108 l 188 710 l 54 710 l 54 818 m 226 935 q 261 976 249 953 q 274 1019 274 999 q 263 1050 274 1039 q 232 1061 253 1061 q 165 1024 197 1061 l 113 1083 q 176 1133 140 1117 q 249 1150 211 1150 q 334 1119 300 1150 q 368 1035 368 1089 q 265 890 368 960 l 226 935 z "},"Ȋ":{"ha":496,"x_min":24,"x_max":472,"o":"m 54 818 l 443 818 l 443 710 l 314 710 l 311 108 l 443 108 l 443 0 l 53 0 l 53 108 l 188 108 l 188 710 l 54 710 l 54 818 m 247 1111 q 399 1067 342 1111 q 472 936 457 1022 l 376 921 q 338 993 371 968 q 247 1018 306 1018 q 119 921 132 1018 l 24 936 q 96 1067 39 1022 q 247 1111 153 1111 z "},"Ī":{"ha":496,"x_min":33,"x_max":463,"o":"m 54 818 l 443 818 l 443 710 l 314 710 l 311 108 l 443 108 l 443 0 l 53 0 l 53 108 l 188 108 l 188 710 l 54 710 l 54 818 m 33 1044 l 463 1044 l 463 956 l 33 956 l 33 1044 z "},"Į":{"ha":496,"x_min":53,"x_max":486,"o":"m 418 -210 q 486 -197 450 -210 l 486 -286 q 372 -312 432 -312 q 257 -278 303 -312 q 211 -185 211 -243 q 244 -83 211 -128 q 344 0 276 -37 l 53 0 l 53 108 l 188 108 l 188 710 l 54 710 l 54 818 l 443 818 l 443 710 l 314 710 l 311 108 l 443 108 l 443 1 l 444 0 q 361 -67 388 -31 q 335 -146 335 -103 q 357 -193 335 -176 q 418 -210 379 -210 z "},"Ĩ":{"ha":496,"x_min":42,"x_max":504,"o":"m 54 818 l 443 818 l 443 710 l 314 710 l 311 108 l 443 108 l 443 0 l 53 0 l 53 108 l 188 108 l 188 710 l 54 710 l 54 818 m 42 994 q 122 1041 90 1028 q 199 1054 153 1054 q 251 1046 228 1054 q 303 1022 275 1038 q 341 1004 326 1010 q 374 999 356 999 q 415 1008 397 999 q 469 1043 432 1017 l 504 963 q 433 913 463 926 q 364 900 403 900 q 324 908 343 900 q 281 929 306 915 q 236 950 254 943 q 199 957 218 957 q 149 951 169 957 q 106 933 129 944 q 74 918 83 922 l 42 994 z "},"J":{"ha":719,"x_min":33,"x_max":681,"o":"m 554 329 q 481 69 554 161 q 269 -22 407 -22 q 71 24 183 -22 l 33 204 l 140 229 l 169 103 q 268 81 224 81 q 385 141 343 81 q 428 314 428 201 l 429 710 l 249 710 l 249 818 l 681 818 l 681 710 l 554 710 l 554 329 z "},"Ĵ":{"ha":719,"x_min":33,"x_max":725,"o":"m 554 329 q 481 69 554 161 q 269 -22 407 -22 q 71 24 183 -22 l 33 204 l 140 229 l 169 103 q 268 81 224 81 q 385 141 343 81 q 428 314 428 201 l 429 710 l 249 710 l 249 818 l 681 818 l 681 710 l 554 710 l 554 329 m 483 1088 l 725 950 l 694 901 l 483 981 l 271 901 l 242 950 l 483 1088 z "},"K":{"ha":939,"x_min":53,"x_max":892,"o":"m 53 818 l 390 818 l 390 710 l 304 710 l 304 465 l 425 465 l 606 710 l 513 710 l 513 818 l 860 818 l 860 710 l 732 710 l 528 436 l 753 108 l 892 108 l 892 0 l 508 0 l 508 108 l 617 108 l 447 358 l 304 358 l 304 108 l 390 108 l 390 0 l 53 0 l 53 108 l 181 108 l 181 710 l 53 710 l 53 818 z "},"Ķ":{"ha":939,"x_min":53,"x_max":892,"o":"m 53 818 l 390 818 l 390 710 l 304 710 l 304 465 l 425 465 l 606 710 l 513 710 l 513 818 l 860 818 l 860 710 l 732 710 l 528 436 l 753 108 l 892 108 l 892 0 l 508 0 l 508 108 l 617 108 l 447 358 l 304 358 l 304 108 l 390 108 l 390 0 l 53 0 l 53 108 l 181 108 l 181 710 l 53 710 l 53 818 m 369 -385 q 399 -340 376 -375 q 435 -275 421 -306 q 376 -245 397 -269 q 354 -189 354 -221 q 381 -123 354 -149 q 450 -97 408 -97 q 520 -127 490 -97 q 550 -197 550 -157 q 419 -429 551 -297 l 369 -385 z "},"L":{"ha":771,"x_min":53,"x_max":735,"o":"m 53 818 l 483 818 l 483 710 l 331 710 l 328 108 l 579 108 l 632 253 l 735 218 l 658 0 l 53 0 l 53 108 l 204 108 l 206 710 l 53 710 l 53 818 z "},"Ĺ":{"ha":771,"x_min":53,"x_max":735,"o":"m 53 818 l 483 818 l 483 710 l 331 710 l 328 108 l 579 108 l 632 253 l 735 218 l 658 0 l 53 0 l 53 108 l 204 108 l 206 710 l 53 710 l 53 818 m 490 1076 l 518 967 l 168 904 l 153 957 l 490 1076 z "},"Ľ":{"ha":771,"x_min":53,"x_max":735,"o":"m 53 818 l 483 818 l 483 710 l 331 710 l 328 108 l 579 108 l 632 253 l 735 218 l 658 0 l 53 0 l 53 108 l 204 108 l 206 710 l 53 710 l 53 818 m 615 847 l 724 822 l 626 522 l 560 538 l 615 847 z "},"Ļ":{"ha":771,"x_min":53,"x_max":735,"o":"m 53 818 l 483 818 l 483 710 l 331 710 l 328 108 l 579 108 l 632 253 l 735 218 l 658 0 l 53 0 l 53 108 l 204 108 l 206 710 l 53 710 l 53 818 m 289 -385 q 318 -340 296 -375 q 354 -275 340 -306 q 295 -245 317 -269 q 274 -189 274 -221 q 301 -123 274 -149 q 369 -97 328 -97 q 440 -127 410 -97 q 469 -197 469 -157 q 339 -429 471 -297 l 289 -385 z "},"Ŀ":{"ha":833,"x_min":53,"x_max":735,"o":"m 53 818 l 483 818 l 483 710 l 331 710 l 328 108 l 579 108 l 632 253 l 735 218 l 658 0 l 53 0 l 53 108 l 204 108 l 206 710 l 53 710 l 53 818 m 499 551 q 563 524 536 551 q 590 458 590 497 q 563 392 590 419 q 499 365 536 365 q 433 392 460 365 q 406 458 406 419 q 433 524 406 497 q 499 551 460 551 z "},"Ḷ":{"ha":771,"x_min":53,"x_max":735,"o":"m 53 818 l 483 818 l 483 710 l 331 710 l 328 108 l 579 108 l 632 253 l 735 218 l 658 0 l 53 0 l 53 108 l 204 108 l 206 710 l 53 710 l 53 818 m 371 -81 q 435 -106 410 -81 q 460 -169 460 -131 q 435 -234 460 -210 q 371 -258 410 -258 q 308 -234 332 -258 q 283 -169 283 -210 q 308 -105 283 -129 q 371 -81 332 -81 z "},"Ḻ":{"ha":771,"x_min":53,"x_max":735,"o":"m 53 818 l 483 818 l 483 710 l 331 710 l 328 108 l 579 108 l 632 253 l 735 218 l 658 0 l 53 0 l 53 108 l 204 108 l 206 710 l 53 710 l 53 818 m 154 -61 l 589 -61 l 589 -153 l 154 -153 l 154 -61 z "},"Ł":{"ha":771,"x_min":53,"x_max":735,"o":"m 632 253 l 735 218 l 658 0 l 53 0 l 53 108 l 204 108 l 204 281 l 106 224 l 106 329 l 204 386 l 206 710 l 53 710 l 53 818 l 483 818 l 483 710 l 331 710 l 329 457 l 572 596 l 572 490 l 329 351 l 328 108 l 579 108 l 632 253 z "},"M":{"ha":1183,"x_min":51,"x_max":1131,"o":"m 57 818 l 381 818 l 600 247 l 814 818 l 1131 818 l 1131 710 l 1003 710 l 1003 108 l 1131 108 l 1131 0 l 789 0 l 789 108 l 878 108 l 878 717 l 817 535 l 654 99 l 535 99 l 360 542 l 299 714 l 294 108 l 386 108 l 386 0 l 51 0 l 51 108 l 181 108 l 182 710 l 57 710 l 57 818 z "},"Ṃ":{"ha":1183,"x_min":51,"x_max":1131,"o":"m 57 818 l 381 818 l 600 247 l 814 818 l 1131 818 l 1131 710 l 1003 710 l 1003 108 l 1131 108 l 1131 0 l 789 0 l 789 108 l 878 108 l 878 717 l 817 535 l 654 99 l 535 99 l 360 542 l 299 714 l 294 108 l 386 108 l 386 0 l 51 0 l 51 108 l 181 108 l 182 710 l 57 710 l 57 818 m 592 -81 q 656 -106 631 -81 q 681 -169 681 -131 q 656 -234 681 -210 q 592 -258 631 -258 q 528 -234 553 -258 q 504 -169 504 -210 q 528 -105 504 -129 q 592 -81 553 -81 z "},"N":{"ha":1006,"x_min":53,"x_max":968,"o":"m 54 818 l 376 818 l 714 186 l 714 710 l 600 710 l 600 818 l 968 818 l 968 710 l 835 710 l 835 0 l 685 0 l 301 710 l 304 108 l 421 108 l 421 0 l 53 0 l 53 108 l 183 108 l 182 710 l 54 710 l 54 818 z "},"Ń":{"ha":1006,"x_min":53,"x_max":968,"o":"m 54 818 l 376 818 l 714 186 l 714 710 l 600 710 l 600 818 l 968 818 l 968 710 l 835 710 l 835 0 l 685 0 l 301 710 l 304 108 l 421 108 l 421 0 l 53 0 l 53 108 l 183 108 l 182 710 l 54 710 l 54 818 m 717 1076 l 744 967 l 394 904 l 379 957 l 717 1076 z "},"Ň":{"ha":1006,"x_min":53,"x_max":968,"o":"m 54 818 l 376 818 l 714 186 l 714 710 l 600 710 l 600 818 l 968 818 l 968 710 l 835 710 l 835 0 l 685 0 l 301 710 l 304 108 l 421 108 l 421 0 l 53 0 l 53 108 l 183 108 l 182 710 l 54 710 l 54 818 m 507 886 l 289 1029 l 329 1090 l 507 999 l 683 1093 l 719 1029 l 507 886 z "},"Ņ":{"ha":1006,"x_min":53,"x_max":968,"o":"m 54 818 l 376 818 l 714 186 l 714 710 l 600 710 l 600 818 l 968 818 l 968 710 l 835 710 l 835 0 l 685 0 l 301 710 l 304 108 l 421 108 l 421 0 l 53 0 l 53 108 l 183 108 l 182 710 l 54 710 l 54 818 m 421 -385 q 450 -340 428 -375 q 486 -275 472 -306 q 427 -245 449 -269 q 406 -189 406 -221 q 433 -123 406 -149 q 501 -97 460 -97 q 572 -127 542 -97 q 601 -197 601 -157 q 471 -429 603 -297 l 421 -385 z "},"Ṅ":{"ha":1006,"x_min":53,"x_max":968,"o":"m 54 818 l 376 818 l 714 186 l 714 710 l 600 710 l 600 818 l 968 818 l 968 710 l 835 710 l 835 0 l 685 0 l 301 710 l 304 108 l 421 108 l 421 0 l 53 0 l 53 108 l 183 108 l 182 710 l 54 710 l 54 818 m 503 1115 q 567 1091 542 1115 q 592 1026 592 1067 q 567 963 592 988 q 503 938 542 938 q 440 962 464 938 q 415 1026 415 986 q 440 1091 415 1067 q 503 1115 464 1115 z "},"Ṇ":{"ha":1006,"x_min":53,"x_max":968,"o":"m 54 818 l 376 818 l 714 186 l 714 710 l 600 710 l 600 818 l 968 818 l 968 710 l 835 710 l 835 0 l 685 0 l 301 710 l 304 108 l 421 108 l 421 0 l 53 0 l 53 108 l 183 108 l 182 710 l 54 710 l 54 818 m 503 -81 q 567 -106 542 -81 q 592 -169 592 -131 q 567 -234 592 -210 q 503 -258 542 -258 q 440 -234 464 -258 q 415 -169 415 -210 q 440 -105 415 -129 q 503 -81 464 -81 z "},"Ŋ":{"ha":1006,"x_min":53,"x_max":968,"o":"m 592 -317 q 413 -276 506 -317 l 440 -183 q 569 -210 511 -210 q 671 -169 635 -210 q 713 -42 707 -128 l 301 710 l 304 108 l 421 108 l 421 0 l 53 0 l 53 108 l 183 108 l 182 710 l 54 710 l 54 818 l 376 818 l 714 186 l 714 710 l 600 710 l 600 818 l 968 818 l 968 710 l 835 710 l 835 -4 q 766 -235 829 -154 q 592 -317 703 -317 z "},"Ṉ":{"ha":1006,"x_min":53,"x_max":968,"o":"m 54 818 l 376 818 l 714 186 l 714 710 l 600 710 l 600 818 l 968 818 l 968 710 l 835 710 l 835 0 l 685 0 l 301 710 l 304 108 l 421 108 l 421 0 l 53 0 l 53 108 l 183 108 l 182 710 l 54 710 l 54 818 m 286 -61 l 721 -61 l 721 -153 l 286 -153 l 286 -61 z "},"Ñ":{"ha":1006,"x_min":53,"x_max":968,"o":"m 54 818 l 376 818 l 714 186 l 714 710 l 600 710 l 600 818 l 968 818 l 968 710 l 835 710 l 835 0 l 685 0 l 301 710 l 304 108 l 421 108 l 421 0 l 53 0 l 53 108 l 183 108 l 182 710 l 54 710 l 54 818 m 297 994 q 377 1041 346 1028 q 454 1054 408 1054 q 507 1046 483 1054 q 558 1022 531 1038 q 597 1004 582 1010 q 629 999 611 999 q 670 1008 653 999 q 725 1043 688 1017 l 760 963 q 688 913 718 926 q 619 900 658 900 q 580 908 599 900 q 536 929 561 915 q 492 950 510 943 q 454 957 474 957 q 405 951 425 957 q 362 933 385 944 q 329 918 339 922 l 297 994 z "},"O":{"ha":896,"x_min":61,"x_max":835,"o":"m 446 840 q 649 788 561 840 q 786 637 738 735 q 835 410 835 539 q 786 181 835 279 q 650 31 738 83 q 447 -22 563 -22 q 246 31 333 -22 q 110 181 158 83 q 61 410 61 279 q 109 637 61 539 q 244 788 157 735 q 446 840 332 840 m 447 733 q 260 649 326 733 q 193 410 193 564 q 260 169 193 254 q 447 85 326 85 q 637 169 569 85 q 704 410 704 254 q 637 649 704 564 q 447 733 569 733 z "},"Ó":{"ha":896,"x_min":61,"x_max":835,"o":"m 446 840 q 649 788 561 840 q 786 637 738 735 q 835 410 835 539 q 786 181 835 279 q 650 31 738 83 q 447 -22 563 -22 q 246 31 333 -22 q 110 181 158 83 q 61 410 61 279 q 109 637 61 539 q 244 788 157 735 q 446 840 332 840 m 447 733 q 260 649 326 733 q 193 410 193 564 q 260 169 193 254 q 447 85 326 85 q 637 169 569 85 q 704 410 704 254 q 637 649 704 564 q 447 733 569 733 m 660 1076 l 688 967 l 338 904 l 322 957 l 660 1076 z "},"Ŏ":{"ha":896,"x_min":61,"x_max":835,"o":"m 446 840 q 649 788 561 840 q 786 637 738 735 q 835 410 835 539 q 786 181 835 279 q 650 31 738 83 q 447 -22 563 -22 q 246 31 333 -22 q 110 181 158 83 q 61 410 61 279 q 109 637 61 539 q 244 788 157 735 q 446 840 332 840 m 447 733 q 260 649 326 733 q 193 410 193 564 q 260 169 193 254 q 447 85 326 85 q 637 169 569 85 q 704 410 704 254 q 637 649 704 564 q 447 733 569 733 m 446 906 q 294 950 351 906 q 222 1081 238 994 l 318 1096 q 446 999 331 999 q 537 1024 504 999 q 575 1096 569 1049 l 671 1081 q 598 950 656 994 q 446 906 540 906 z "},"Ô":{"ha":896,"x_min":61,"x_max":835,"o":"m 446 840 q 649 788 561 840 q 786 637 738 735 q 835 410 835 539 q 786 181 835 279 q 650 31 738 83 q 447 -22 563 -22 q 246 31 333 -22 q 110 181 158 83 q 61 410 61 279 q 109 637 61 539 q 244 788 157 735 q 446 840 332 840 m 447 733 q 260 649 326 733 q 193 410 193 564 q 260 169 193 254 q 447 85 326 85 q 637 169 569 85 q 704 410 704 254 q 637 649 704 564 q 447 733 569 733 m 447 1088 l 689 950 l 658 901 l 447 981 l 235 901 l 206 950 l 447 1088 z "},"Ố":{"ha":896,"x_min":61,"x_max":835,"o":"m 446 840 q 649 788 561 840 q 786 637 738 735 q 835 410 835 539 q 786 181 835 279 q 650 31 738 83 q 447 -22 563 -22 q 246 31 333 -22 q 110 181 158 83 q 61 410 61 279 q 109 637 61 539 q 244 788 157 735 q 446 840 332 840 m 447 733 q 260 649 326 733 q 193 410 193 564 q 260 169 193 254 q 447 85 326 85 q 637 169 569 85 q 704 410 704 254 q 637 649 704 564 q 447 733 569 733 m 544 1303 l 599 1206 l 331 1097 l 306 1147 l 544 1303 m 447 1088 l 689 950 l 658 901 l 447 981 l 235 901 l 206 950 l 447 1088 z "},"Ộ":{"ha":896,"x_min":61,"x_max":835,"o":"m 446 840 q 649 788 561 840 q 786 637 738 735 q 835 410 835 539 q 786 181 835 279 q 650 31 738 83 q 447 -22 563 -22 q 246 31 333 -22 q 110 181 158 83 q 61 410 61 279 q 109 637 61 539 q 244 788 157 735 q 446 840 332 840 m 447 733 q 260 649 326 733 q 193 410 193 564 q 260 169 193 254 q 447 85 326 85 q 637 169 569 85 q 704 410 704 254 q 637 649 704 564 q 447 733 569 733 m 446 -81 q 510 -106 485 -81 q 535 -169 535 -131 q 510 -234 535 -210 q 446 -258 485 -258 q 383 -234 407 -258 q 358 -169 358 -210 q 383 -105 358 -129 q 446 -81 407 -81 m 447 1088 l 689 950 l 658 901 l 447 981 l 235 901 l 206 950 l 447 1088 z "},"Ồ":{"ha":896,"x_min":61,"x_max":835,"o":"m 446 840 q 649 788 561 840 q 786 637 738 735 q 835 410 835 539 q 786 181 835 279 q 650 31 738 83 q 447 -22 563 -22 q 246 31 333 -22 q 110 181 158 83 q 61 410 61 279 q 109 637 61 539 q 244 788 157 735 q 446 840 332 840 m 447 733 q 260 649 326 733 q 193 410 193 564 q 260 169 193 254 q 447 85 326 85 q 637 169 569 85 q 704 410 704 254 q 637 649 704 564 q 447 733 569 733 m 356 1292 l 593 1136 l 569 1088 l 301 1194 l 356 1292 m 447 1088 l 689 950 l 658 901 l 447 981 l 235 901 l 206 950 l 447 1088 z "},"Ổ":{"ha":896,"x_min":61,"x_max":835,"o":"m 446 840 q 649 788 561 840 q 786 637 738 735 q 835 410 835 539 q 786 181 835 279 q 650 31 738 83 q 447 -22 563 -22 q 246 31 333 -22 q 110 181 158 83 q 61 410 61 279 q 109 637 61 539 q 244 788 157 735 q 446 840 332 840 m 447 733 q 260 649 326 733 q 193 410 193 564 q 260 169 193 254 q 447 85 326 85 q 637 169 569 85 q 704 410 704 254 q 637 649 704 564 q 447 733 569 733 m 447 1088 l 689 950 l 658 901 l 447 981 l 235 901 l 206 950 l 447 1088 m 558 1092 q 593 1133 581 1110 q 606 1176 606 1156 q 595 1207 606 1196 q 564 1218 585 1218 q 497 1181 529 1218 l 444 1240 q 508 1290 472 1274 q 581 1307 543 1307 q 666 1276 632 1307 q 700 1192 700 1246 q 597 1047 700 1117 l 558 1092 z "},"Ỗ":{"ha":896,"x_min":61,"x_max":835,"o":"m 446 840 q 649 788 561 840 q 786 637 738 735 q 835 410 835 539 q 786 181 835 279 q 650 31 738 83 q 447 -22 563 -22 q 246 31 333 -22 q 110 181 158 83 q 61 410 61 279 q 109 637 61 539 q 244 788 157 735 q 446 840 332 840 m 447 733 q 260 649 326 733 q 193 410 193 564 q 260 169 193 254 q 447 85 326 85 q 637 169 569 85 q 704 410 704 254 q 637 649 704 564 q 447 733 569 733 m 232 1193 q 310 1238 279 1225 q 383 1250 340 1250 q 436 1242 413 1250 q 488 1218 460 1233 q 524 1199 508 1206 q 558 1193 540 1193 q 599 1202 581 1193 q 654 1239 617 1211 l 678 1160 q 609 1113 638 1125 q 546 1100 581 1100 q 461 1129 511 1100 q 417 1150 435 1143 q 379 1157 399 1157 q 330 1151 350 1157 q 287 1133 310 1144 q 254 1118 264 1122 l 232 1193 m 453 1086 l 694 949 l 664 900 l 453 979 l 240 900 l 211 949 l 453 1086 z "},"Ȍ":{"ha":896,"x_min":61,"x_max":835,"o":"m 446 840 q 649 788 561 840 q 786 637 738 735 q 835 410 835 539 q 786 181 835 279 q 650 31 738 83 q 447 -22 563 -22 q 246 31 333 -22 q 110 181 158 83 q 61 410 61 279 q 109 637 61 539 q 244 788 157 735 q 446 840 332 840 m 447 733 q 260 649 326 733 q 193 410 193 564 q 260 169 193 254 q 447 85 326 85 q 637 169 569 85 q 704 410 704 254 q 637 649 704 564 q 447 733 569 733 m 428 1199 l 604 938 l 549 897 l 339 1132 l 428 1199 m 185 1171 l 407 947 l 360 897 l 111 1089 l 185 1171 z "},"Ö":{"ha":896,"x_min":61,"x_max":835,"o":"m 446 840 q 649 788 561 840 q 786 637 738 735 q 835 410 835 539 q 786 181 835 279 q 650 31 738 83 q 447 -22 563 -22 q 246 31 333 -22 q 110 181 158 83 q 61 410 61 279 q 109 637 61 539 q 244 788 157 735 q 446 840 332 840 m 447 733 q 260 649 326 733 q 193 410 193 564 q 260 169 193 254 q 447 85 326 85 q 637 169 569 85 q 704 410 704 254 q 637 649 704 564 q 447 733 569 733 m 321 1090 q 379 1065 354 1090 q 404 1007 404 1040 q 379 949 404 974 q 321 925 354 925 q 263 949 288 925 q 239 1007 239 974 q 263 1065 239 1040 q 321 1090 288 1090 m 574 1090 q 631 1065 607 1090 q 656 1007 656 1040 q 631 949 656 974 q 574 925 607 925 q 515 949 539 925 q 490 1007 490 974 q 515 1065 490 1040 q 574 1090 539 1090 z "},"Ȫ":{"ha":896,"x_min":61,"x_max":835,"o":"m 446 840 q 649 788 561 840 q 786 637 738 735 q 835 410 835 539 q 786 181 835 279 q 650 31 738 83 q 447 -22 563 -22 q 246 31 333 -22 q 110 181 158 83 q 61 410 61 279 q 109 637 61 539 q 244 788 157 735 q 446 840 332 840 m 447 733 q 260 649 326 733 q 193 410 193 564 q 260 169 193 254 q 447 85 326 85 q 637 169 569 85 q 704 410 704 254 q 637 649 704 564 q 447 733 569 733 m 321 1090 q 379 1065 354 1090 q 404 1007 404 1040 q 379 949 404 974 q 321 925 354 925 q 263 949 288 925 q 239 1007 239 974 q 263 1065 239 1040 q 321 1090 288 1090 m 574 1090 q 631 1065 607 1090 q 656 1007 656 1040 q 631 949 656 974 q 574 925 607 925 q 515 949 539 925 q 490 1007 490 974 q 515 1065 490 1040 q 574 1090 539 1090 m 232 1236 l 661 1236 l 661 1147 l 232 1147 l 232 1236 z "},"Ȱ":{"ha":896,"x_min":61,"x_max":835,"o":"m 446 840 q 649 788 561 840 q 786 637 738 735 q 835 410 835 539 q 786 181 835 279 q 650 31 738 83 q 447 -22 563 -22 q 246 31 333 -22 q 110 181 158 83 q 61 410 61 279 q 109 637 61 539 q 244 788 157 735 q 446 840 332 840 m 447 733 q 260 649 326 733 q 193 410 193 564 q 260 169 193 254 q 447 85 326 85 q 637 169 569 85 q 704 410 704 254 q 637 649 704 564 q 447 733 569 733 m 446 1115 q 510 1091 485 1115 q 535 1026 535 1067 q 510 963 535 988 q 446 938 485 938 q 383 962 407 938 q 358 1026 358 986 q 383 1091 358 1067 q 446 1115 407 1115 m 235 1247 l 664 1247 l 664 1158 l 235 1158 l 235 1247 z "},"Ọ":{"ha":896,"x_min":61,"x_max":835,"o":"m 446 840 q 649 788 561 840 q 786 637 738 735 q 835 410 835 539 q 786 181 835 279 q 650 31 738 83 q 447 -22 563 -22 q 246 31 333 -22 q 110 181 158 83 q 61 410 61 279 q 109 637 61 539 q 244 788 157 735 q 446 840 332 840 m 447 733 q 260 649 326 733 q 193 410 193 564 q 260 169 193 254 q 447 85 326 85 q 637 169 569 85 q 704 410 704 254 q 637 649 704 564 q 447 733 569 733 m 446 -81 q 510 -106 485 -81 q 535 -169 535 -131 q 510 -234 535 -210 q 446 -258 485 -258 q 383 -234 407 -258 q 358 -169 358 -210 q 383 -105 358 -129 q 446 -81 407 -81 z "},"Ò":{"ha":896,"x_min":61,"x_max":835,"o":"m 446 840 q 649 788 561 840 q 786 637 738 735 q 835 410 835 539 q 786 181 835 279 q 650 31 738 83 q 447 -22 563 -22 q 246 31 333 -22 q 110 181 158 83 q 61 410 61 279 q 109 637 61 539 q 244 788 157 735 q 446 840 332 840 m 447 733 q 260 649 326 733 q 193 410 193 564 q 260 169 193 254 q 447 85 326 85 q 637 169 569 85 q 704 410 704 254 q 637 649 704 564 q 447 733 569 733 m 197 1071 l 536 951 l 521 899 l 169 961 l 197 1071 z "},"Ỏ":{"ha":896,"x_min":61,"x_max":835,"o":"m 446 840 q 649 788 561 840 q 786 637 738 735 q 835 410 835 539 q 786 181 835 279 q 650 31 738 83 q 447 -22 563 -22 q 246 31 333 -22 q 110 181 158 83 q 61 410 61 279 q 109 637 61 539 q 244 788 157 735 q 446 840 332 840 m 447 733 q 260 649 326 733 q 193 410 193 564 q 260 169 193 254 q 447 85 326 85 q 637 169 569 85 q 704 410 704 254 q 637 649 704 564 q 447 733 569 733 m 425 935 q 460 976 447 953 q 472 1019 472 999 q 462 1050 472 1039 q 431 1061 451 1061 q 364 1024 396 1061 l 311 1083 q 374 1133 339 1117 q 447 1150 410 1150 q 533 1119 499 1150 q 567 1035 567 1089 q 464 890 567 960 l 425 935 z "},"Ơ":{"ha":896,"x_min":61,"x_max":835,"o":"m 692 758 q 797 612 760 701 q 835 410 835 522 q 786 181 835 279 q 650 31 738 83 q 447 -22 563 -22 q 246 31 333 -22 q 110 181 158 83 q 61 410 61 279 q 109 637 61 539 q 244 788 157 735 q 446 840 332 840 q 581 819 521 840 q 640 851 619 824 q 660 928 660 879 l 757 928 q 692 758 757 808 m 447 85 q 637 169 569 85 q 704 410 704 254 q 637 649 704 564 q 447 733 569 733 q 260 649 326 733 q 193 410 193 564 q 260 169 193 254 q 447 85 326 85 z "},"Ớ":{"ha":896,"x_min":61,"x_max":835,"o":"m 692 758 q 797 612 760 701 q 835 410 835 522 q 786 181 835 279 q 650 31 738 83 q 447 -22 563 -22 q 246 31 333 -22 q 110 181 158 83 q 61 410 61 279 q 109 637 61 539 q 244 788 157 735 q 446 840 332 840 q 581 819 521 840 q 640 851 619 824 q 660 928 660 879 l 757 928 q 692 758 757 808 m 447 85 q 637 169 569 85 q 704 410 704 254 q 637 649 704 564 q 447 733 569 733 q 260 649 326 733 q 193 410 193 564 q 260 169 193 254 q 447 85 326 85 m 660 1076 l 688 967 l 338 904 l 322 957 l 660 1076 z "},"Ợ":{"ha":896,"x_min":61,"x_max":835,"o":"m 692 758 q 797 612 760 701 q 835 410 835 522 q 786 181 835 279 q 650 31 738 83 q 447 -22 563 -22 q 246 31 333 -22 q 110 181 158 83 q 61 410 61 279 q 109 637 61 539 q 244 788 157 735 q 446 840 332 840 q 581 819 521 840 q 640 851 619 824 q 660 928 660 879 l 757 928 q 692 758 757 808 m 447 85 q 637 169 569 85 q 704 410 704 254 q 637 649 704 564 q 447 733 569 733 q 260 649 326 733 q 193 410 193 564 q 260 169 193 254 q 447 85 326 85 m 446 -81 q 510 -106 485 -81 q 535 -169 535 -131 q 510 -234 535 -210 q 446 -258 485 -258 q 383 -234 407 -258 q 358 -169 358 -210 q 383 -105 358 -129 q 446 -81 407 -81 z "},"Ờ":{"ha":896,"x_min":61,"x_max":835,"o":"m 692 758 q 797 612 760 701 q 835 410 835 522 q 786 181 835 279 q 650 31 738 83 q 447 -22 563 -22 q 246 31 333 -22 q 110 181 158 83 q 61 410 61 279 q 109 637 61 539 q 244 788 157 735 q 446 840 332 840 q 581 819 521 840 q 640 851 619 824 q 660 928 660 879 l 757 928 q 692 758 757 808 m 447 85 q 637 169 569 85 q 704 410 704 254 q 637 649 704 564 q 447 733 569 733 q 260 649 326 733 q 193 410 193 564 q 260 169 193 254 q 447 85 326 85 m 264 1071 l 603 951 l 588 899 l 236 961 l 264 1071 z "},"Ở":{"ha":896,"x_min":61,"x_max":835,"o":"m 692 758 q 797 612 760 701 q 835 410 835 522 q 786 181 835 279 q 650 31 738 83 q 447 -22 563 -22 q 246 31 333 -22 q 110 181 158 83 q 61 410 61 279 q 109 637 61 539 q 244 788 157 735 q 446 840 332 840 q 581 819 521 840 q 640 851 619 824 q 660 928 660 879 l 757 928 q 692 758 757 808 m 447 85 q 637 169 569 85 q 704 410 704 254 q 637 649 704 564 q 447 733 569 733 q 260 649 326 733 q 193 410 193 564 q 260 169 193 254 q 447 85 326 85 m 425 935 q 460 976 447 953 q 472 1019 472 999 q 462 1050 472 1039 q 431 1061 451 1061 q 364 1024 396 1061 l 311 1083 q 374 1133 339 1117 q 447 1150 410 1150 q 533 1119 499 1150 q 567 1035 567 1089 q 464 890 567 960 l 425 935 z "},"Ỡ":{"ha":896,"x_min":61,"x_max":835,"o":"m 692 758 q 797 612 760 701 q 835 410 835 522 q 786 181 835 279 q 650 31 738 83 q 447 -22 563 -22 q 246 31 333 -22 q 110 181 158 83 q 61 410 61 279 q 109 637 61 539 q 244 788 157 735 q 446 840 332 840 q 581 819 521 840 q 640 851 619 824 q 660 928 660 879 l 757 928 q 692 758 757 808 m 447 85 q 637 169 569 85 q 704 410 704 254 q 637 649 704 564 q 447 733 569 733 q 260 649 326 733 q 193 410 193 564 q 260 169 193 254 q 447 85 326 85 m 217 1013 q 297 1059 265 1046 q 374 1072 328 1072 q 426 1064 403 1072 q 478 1040 450 1056 q 516 1022 501 1028 q 549 1017 531 1017 q 590 1026 572 1017 q 644 1061 607 1035 l 679 981 q 608 931 638 944 q 539 918 578 918 q 499 926 518 918 q 456 947 481 933 q 411 968 429 961 q 374 975 393 975 q 324 969 344 975 q 281 951 304 963 q 249 936 258 940 l 217 1013 z "},"Ő":{"ha":896,"x_min":61,"x_max":835,"o":"m 446 840 q 649 788 561 840 q 786 637 738 735 q 835 410 835 539 q 786 181 835 279 q 650 31 738 83 q 447 -22 563 -22 q 246 31 333 -22 q 110 181 158 83 q 61 410 61 279 q 109 637 61 539 q 244 788 157 735 q 446 840 332 840 m 447 733 q 260 649 326 733 q 193 410 193 564 q 260 169 193 254 q 447 85 326 85 q 637 169 569 85 q 704 410 704 254 q 637 649 704 564 q 447 733 569 733 m 550 1131 l 613 1049 l 382 903 l 350 943 l 550 1131 m 765 1071 l 803 975 l 538 906 l 517 951 l 765 1071 z "},"Ȏ":{"ha":896,"x_min":61,"x_max":835,"o":"m 446 840 q 649 788 561 840 q 786 637 738 735 q 835 410 835 539 q 786 181 835 279 q 650 31 738 83 q 447 -22 563 -22 q 246 31 333 -22 q 110 181 158 83 q 61 410 61 279 q 109 637 61 539 q 244 788 157 735 q 446 840 332 840 m 447 733 q 260 649 326 733 q 193 410 193 564 q 260 169 193 254 q 447 85 326 85 q 637 169 569 85 q 704 410 704 254 q 637 649 704 564 q 447 733 569 733 m 446 1111 q 598 1067 540 1111 q 671 936 656 1022 l 575 921 q 537 993 569 968 q 446 1018 504 1018 q 318 921 331 1018 l 222 936 q 294 1067 238 1022 q 446 1111 351 1111 z "},"Ō":{"ha":896,"x_min":61,"x_max":835,"o":"m 446 840 q 649 788 561 840 q 786 637 738 735 q 835 410 835 539 q 786 181 835 279 q 650 31 738 83 q 447 -22 563 -22 q 246 31 333 -22 q 110 181 158 83 q 61 410 61 279 q 109 637 61 539 q 244 788 157 735 q 446 840 332 840 m 447 733 q 260 649 326 733 q 193 410 193 564 q 260 169 193 254 q 447 85 326 85 q 637 169 569 85 q 704 410 704 254 q 637 649 704 564 q 447 733 569 733 m 232 1044 l 661 1044 l 661 956 l 232 956 l 232 1044 z "},"Ṓ":{"ha":896,"x_min":61,"x_max":835,"o":"m 446 840 q 649 788 561 840 q 786 637 738 735 q 835 410 835 539 q 786 181 835 279 q 650 31 738 83 q 447 -22 563 -22 q 246 31 333 -22 q 110 181 158 83 q 61 410 61 279 q 109 637 61 539 q 244 788 157 735 q 446 840 332 840 m 447 733 q 260 649 326 733 q 193 410 193 564 q 260 169 193 254 q 447 85 326 85 q 637 169 569 85 q 704 410 704 254 q 637 649 704 564 q 447 733 569 733 m 232 1044 l 661 1044 l 661 956 l 232 956 l 232 1044 m 679 1283 l 707 1174 l 357 1111 l 342 1164 l 679 1283 z "},"Ṑ":{"ha":896,"x_min":61,"x_max":835,"o":"m 446 840 q 649 788 561 840 q 786 637 738 735 q 835 410 835 539 q 786 181 835 279 q 650 31 738 83 q 447 -22 563 -22 q 246 31 333 -22 q 110 181 158 83 q 61 410 61 279 q 109 637 61 539 q 244 788 157 735 q 446 840 332 840 m 447 733 q 260 649 326 733 q 193 410 193 564 q 260 169 193 254 q 447 85 326 85 q 637 169 569 85 q 704 410 704 254 q 637 649 704 564 q 447 733 569 733 m 232 1044 l 661 1044 l 661 956 l 232 956 l 232 1044 m 217 1278 l 556 1158 l 540 1106 l 189 1168 l 217 1278 z "},"Ǫ":{"ha":896,"x_min":61,"x_max":835,"o":"m 608 10 q 531 -54 556 -19 q 507 -132 507 -89 q 529 -179 507 -162 q 590 -196 551 -196 q 658 -183 624 -196 l 658 -272 q 544 -299 604 -299 q 429 -264 475 -299 q 383 -171 383 -229 q 461 -22 383 -83 l 447 -22 q 246 31 333 -22 q 110 181 158 83 q 61 410 61 279 q 109 637 61 539 q 244 788 157 735 q 446 840 332 840 q 649 788 561 840 q 786 637 738 735 q 835 410 835 539 q 775 160 835 264 q 608 10 715 56 m 193 410 q 260 169 193 254 q 447 85 326 85 q 637 169 569 85 q 704 410 704 254 q 637 649 704 564 q 447 733 569 733 q 260 649 326 733 q 193 410 193 564 z "},"Ø":{"ha":896,"x_min":61,"x_max":835,"o":"m 690 758 q 797 613 760 703 q 835 410 835 524 q 786 181 835 279 q 650 31 738 83 q 447 -22 563 -22 q 328 -6 385 -22 l 286 -96 l 175 -96 l 235 38 q 107 188 153 92 q 61 410 61 283 q 109 637 61 539 q 244 788 157 735 q 446 840 332 840 q 604 811 533 840 l 646 904 l 757 904 l 690 758 m 447 733 q 260 649 326 733 q 193 410 193 564 q 218 248 193 317 q 290 139 243 179 l 553 714 q 447 733 506 733 m 447 85 q 637 169 569 85 q 704 410 704 254 q 633 653 704 569 l 379 93 q 447 85 411 85 z "},"Ǿ":{"ha":896,"x_min":61,"x_max":835,"o":"m 690 758 q 797 613 760 703 q 835 410 835 524 q 786 181 835 279 q 650 31 738 83 q 447 -22 563 -22 q 328 -6 385 -22 l 286 -96 l 175 -96 l 235 38 q 107 188 153 92 q 61 410 61 283 q 109 637 61 539 q 244 788 157 735 q 446 840 332 840 q 604 811 533 840 l 646 904 l 757 904 l 690 758 m 447 733 q 260 649 326 733 q 193 410 193 564 q 218 248 193 317 q 290 139 243 179 l 553 714 q 447 733 506 733 m 447 85 q 637 169 569 85 q 704 410 704 254 q 633 653 704 569 l 379 93 q 447 85 411 85 m 660 1076 l 688 967 l 338 904 l 322 957 l 660 1076 z "},"Õ":{"ha":896,"x_min":61,"x_max":835,"o":"m 446 840 q 649 788 561 840 q 786 637 738 735 q 835 410 835 539 q 786 181 835 279 q 650 31 738 83 q 447 -22 563 -22 q 246 31 333 -22 q 110 181 158 83 q 61 410 61 279 q 109 637 61 539 q 244 788 157 735 q 446 840 332 840 m 447 733 q 260 649 326 733 q 193 410 193 564 q 260 169 193 254 q 447 85 326 85 q 637 169 569 85 q 704 410 704 254 q 637 649 704 564 q 447 733 569 733 m 240 994 q 320 1041 289 1028 q 397 1054 351 1054 q 450 1046 426 1054 q 501 1022 474 1038 q 540 1004 525 1010 q 572 999 554 999 q 613 1008 596 999 q 668 1043 631 1017 l 703 963 q 631 913 661 926 q 563 900 601 900 q 523 908 542 900 q 479 929 504 915 q 435 950 453 943 q 397 957 417 957 q 348 951 368 957 q 305 933 328 944 q 272 918 282 922 l 240 994 z "},"Ṍ":{"ha":896,"x_min":61,"x_max":835,"o":"m 446 840 q 649 788 561 840 q 786 637 738 735 q 835 410 835 539 q 786 181 835 279 q 650 31 738 83 q 447 -22 563 -22 q 246 31 333 -22 q 110 181 158 83 q 61 410 61 279 q 109 637 61 539 q 244 788 157 735 q 446 840 332 840 m 447 733 q 260 649 326 733 q 193 410 193 564 q 260 169 193 254 q 447 85 326 85 q 637 169 569 85 q 704 410 704 254 q 637 649 704 564 q 447 733 569 733 m 240 994 q 320 1041 289 1028 q 397 1054 351 1054 q 450 1046 426 1054 q 501 1022 474 1038 q 540 1004 525 1010 q 572 999 554 999 q 613 1008 596 999 q 668 1043 631 1017 l 703 963 q 631 913 661 926 q 563 900 601 900 q 523 908 542 900 q 479 929 504 915 q 435 950 453 943 q 397 957 417 957 q 348 951 368 957 q 305 933 328 944 q 272 918 282 922 l 240 994 m 653 1285 l 681 1175 l 331 1113 l 315 1165 l 653 1285 z "},"Ṏ":{"ha":896,"x_min":61,"x_max":835,"o":"m 446 840 q 649 788 561 840 q 786 637 738 735 q 835 410 835 539 q 786 181 835 279 q 650 31 738 83 q 447 -22 563 -22 q 246 31 333 -22 q 110 181 158 83 q 61 410 61 279 q 109 637 61 539 q 244 788 157 735 q 446 840 332 840 m 447 733 q 260 649 326 733 q 193 410 193 564 q 260 169 193 254 q 447 85 326 85 q 637 169 569 85 q 704 410 704 254 q 637 649 704 564 q 447 733 569 733 m 240 994 q 320 1041 289 1028 q 397 1054 351 1054 q 450 1046 426 1054 q 501 1022 474 1038 q 540 1004 525 1010 q 572 999 554 999 q 613 1008 596 999 q 668 1043 631 1017 l 703 963 q 631 913 661 926 q 563 900 601 900 q 523 908 542 900 q 479 929 504 915 q 435 950 453 943 q 397 957 417 957 q 348 951 368 957 q 305 933 328 944 q 272 918 282 922 l 240 994 m 314 1299 q 372 1274 347 1299 q 397 1215 397 1249 q 372 1158 397 1182 q 314 1133 347 1133 q 256 1158 281 1133 q 232 1215 232 1182 q 256 1274 232 1249 q 314 1299 281 1299 m 567 1299 q 624 1274 600 1299 q 649 1215 649 1249 q 624 1158 649 1182 q 567 1133 600 1133 q 508 1158 532 1133 q 483 1215 483 1182 q 508 1274 483 1249 q 567 1299 532 1299 z "},"Ȭ":{"ha":896,"x_min":61,"x_max":835,"o":"m 446 840 q 649 788 561 840 q 786 637 738 735 q 835 410 835 539 q 786 181 835 279 q 650 31 738 83 q 447 -22 563 -22 q 246 31 333 -22 q 110 181 158 83 q 61 410 61 279 q 109 637 61 539 q 244 788 157 735 q 446 840 332 840 m 447 733 q 260 649 326 733 q 193 410 193 564 q 260 169 193 254 q 447 85 326 85 q 637 169 569 85 q 704 410 704 254 q 637 649 704 564 q 447 733 569 733 m 240 994 q 320 1041 289 1028 q 397 1054 351 1054 q 450 1046 426 1054 q 501 1022 474 1038 q 540 1004 525 1010 q 572 999 554 999 q 613 1008 596 999 q 668 1043 631 1017 l 703 963 q 631 913 661 926 q 563 900 601 900 q 523 908 542 900 q 479 929 504 915 q 435 950 453 943 q 397 957 417 957 q 348 951 368 957 q 305 933 328 944 q 272 918 282 922 l 240 994 m 225 1253 l 654 1253 l 654 1164 l 225 1164 l 225 1253 z "},"Œ":{"ha":1221,"x_min":61,"x_max":1176,"o":"m 471 0 q 260 48 353 0 q 114 188 167 96 q 61 411 61 281 q 169 726 61 633 q 479 818 278 818 l 1071 818 l 1147 594 l 1043 561 l 989 710 l 707 710 l 707 475 l 958 475 l 958 367 l 706 367 l 706 108 l 1018 108 l 1072 254 l 1176 219 l 1100 0 l 471 0 m 479 711 q 320 688 381 711 q 226 600 260 665 q 193 411 193 535 q 269 182 193 258 q 492 107 344 106 l 582 108 l 582 711 l 479 711 z "},"P":{"ha":760,"x_min":53,"x_max":732,"o":"m 419 818 q 652 752 572 818 q 732 560 732 686 q 652 363 732 431 q 419 296 572 296 l 304 296 l 304 108 l 463 108 l 463 0 l 53 0 l 53 108 l 179 108 l 179 710 l 53 710 l 53 818 l 419 818 m 418 401 q 600 557 600 401 q 418 710 600 710 l 306 710 l 306 401 l 418 401 z "},"Þ":{"ha":757,"x_min":53,"x_max":729,"o":"m 53 108 l 179 108 l 179 715 l 53 715 l 53 818 l 433 818 l 433 715 l 304 715 l 304 629 l 449 629 q 658 581 588 629 q 729 424 729 533 q 657 258 729 317 q 461 200 585 200 l 304 200 l 304 108 l 467 108 l 467 0 l 53 0 l 53 108 m 443 307 q 558 331 518 307 q 599 414 599 354 q 560 501 599 478 q 440 525 521 525 l 306 525 l 306 307 l 443 307 z "},"Q":{"ha":932,"x_min":61,"x_max":906,"o":"m 651 31 q 447 -22 565 -22 q 246 30 333 -22 q 110 180 158 82 q 61 410 61 278 q 110 639 61 542 q 245 788 158 736 q 446 840 332 840 q 649 788 561 840 q 786 639 738 736 q 835 410 835 542 q 725 92 835 208 l 906 -14 l 824 -115 l 651 31 m 447 735 q 257 651 321 735 q 193 410 193 567 q 257 168 193 253 q 447 83 321 83 q 640 168 575 83 q 704 410 704 253 q 640 651 704 567 q 447 735 575 735 z "},"R":{"ha":858,"x_min":53,"x_max":819,"o":"m 819 108 l 819 0 l 604 0 l 436 308 l 429 308 l 304 308 l 304 108 l 388 108 l 388 0 l 53 0 l 53 108 l 179 108 l 179 710 l 53 710 l 53 818 l 421 818 q 659 756 589 818 q 729 565 729 693 q 690 407 729 467 q 564 324 650 347 l 690 108 l 819 108 m 419 418 q 556 448 514 418 q 597 564 597 478 q 555 680 597 650 q 419 710 513 710 l 306 710 l 306 418 l 419 418 z "},"Ŕ":{"ha":858,"x_min":53,"x_max":819,"o":"m 819 108 l 819 0 l 604 0 l 436 308 l 429 308 l 304 308 l 304 108 l 388 108 l 388 0 l 53 0 l 53 108 l 179 108 l 179 710 l 53 710 l 53 818 l 421 818 q 659 756 589 818 q 729 565 729 693 q 690 407 729 467 q 564 324 650 347 l 690 108 l 819 108 m 419 418 q 556 448 514 418 q 597 564 597 478 q 555 680 597 650 q 419 710 513 710 l 306 710 l 306 418 l 419 418 m 597 1076 l 625 967 l 275 904 l 260 957 l 597 1076 z "},"Ř":{"ha":858,"x_min":53,"x_max":819,"o":"m 819 108 l 819 0 l 604 0 l 436 308 l 429 308 l 304 308 l 304 108 l 388 108 l 388 0 l 53 0 l 53 108 l 179 108 l 179 710 l 53 710 l 53 818 l 421 818 q 659 756 589 818 q 729 565 729 693 q 690 407 729 467 q 564 324 650 347 l 690 108 l 819 108 m 419 418 q 556 448 514 418 q 597 564 597 478 q 555 680 597 650 q 419 710 513 710 l 306 710 l 306 418 l 419 418 m 388 886 l 169 1029 l 210 1090 l 388 999 l 564 1093 l 600 1029 l 388 886 z "},"Ŗ":{"ha":858,"x_min":53,"x_max":819,"o":"m 819 108 l 819 0 l 604 0 l 436 308 l 429 308 l 304 308 l 304 108 l 388 108 l 388 0 l 53 0 l 53 108 l 179 108 l 179 710 l 53 710 l 53 818 l 421 818 q 659 756 589 818 q 729 565 729 693 q 690 407 729 467 q 564 324 650 347 l 690 108 l 819 108 m 419 418 q 556 448 514 418 q 597 564 597 478 q 555 680 597 650 q 419 710 513 710 l 306 710 l 306 418 l 419 418 m 346 -385 q 375 -340 353 -375 q 411 -275 397 -306 q 352 -245 374 -269 q 331 -189 331 -221 q 358 -123 331 -149 q 426 -97 385 -97 q 497 -127 467 -97 q 526 -197 526 -157 q 396 -429 528 -297 l 346 -385 z "},"Ȑ":{"ha":858,"x_min":49,"x_max":819,"o":"m 819 108 l 819 0 l 604 0 l 436 308 l 429 308 l 304 308 l 304 108 l 388 108 l 388 0 l 53 0 l 53 108 l 179 108 l 179 710 l 53 710 l 53 818 l 421 818 q 659 756 589 818 q 729 565 729 693 q 690 407 729 467 q 564 324 650 347 l 690 108 l 819 108 m 419 418 q 556 448 514 418 q 597 564 597 478 q 555 680 597 650 q 419 710 513 710 l 306 710 l 306 418 l 419 418 m 365 1199 l 542 938 l 486 897 l 276 1132 l 365 1199 m 122 1171 l 344 947 l 297 897 l 49 1089 l 122 1171 z "},"Ṛ":{"ha":858,"x_min":53,"x_max":819,"o":"m 819 108 l 819 0 l 604 0 l 436 308 l 429 308 l 304 308 l 304 108 l 388 108 l 388 0 l 53 0 l 53 108 l 179 108 l 179 710 l 53 710 l 53 818 l 421 818 q 659 756 589 818 q 729 565 729 693 q 690 407 729 467 q 564 324 650 347 l 690 108 l 819 108 m 419 418 q 556 448 514 418 q 597 564 597 478 q 555 680 597 650 q 419 710 513 710 l 306 710 l 306 418 l 419 418 m 428 -81 q 492 -106 467 -81 q 517 -169 517 -131 q 492 -234 517 -210 q 428 -258 467 -258 q 365 -234 389 -258 q 340 -169 340 -210 q 365 -105 340 -129 q 428 -81 389 -81 z "},"Ȓ":{"ha":858,"x_min":53,"x_max":819,"o":"m 819 108 l 819 0 l 604 0 l 436 308 l 429 308 l 304 308 l 304 108 l 388 108 l 388 0 l 53 0 l 53 108 l 179 108 l 179 710 l 53 710 l 53 818 l 421 818 q 659 756 589 818 q 729 565 729 693 q 690 407 729 467 q 564 324 650 347 l 690 108 l 819 108 m 419 418 q 556 448 514 418 q 597 564 597 478 q 555 680 597 650 q 419 710 513 710 l 306 710 l 306 418 l 419 418 m 383 1111 q 535 1067 478 1111 q 608 936 593 1022 l 513 921 q 474 993 507 968 q 383 1018 442 1018 q 256 921 268 1018 l 160 936 q 232 1067 175 1022 q 383 1111 289 1111 z "},"Ṟ":{"ha":858,"x_min":53,"x_max":819,"o":"m 819 108 l 819 0 l 604 0 l 436 308 l 429 308 l 304 308 l 304 108 l 388 108 l 388 0 l 53 0 l 53 108 l 179 108 l 179 710 l 53 710 l 53 818 l 421 818 q 659 756 589 818 q 729 565 729 693 q 690 407 729 467 q 564 324 650 347 l 690 108 l 819 108 m 419 418 q 556 448 514 418 q 597 564 597 478 q 555 680 597 650 q 419 710 513 710 l 306 710 l 306 418 l 419 418 m 211 -61 l 646 -61 l 646 -153 l 211 -153 l 211 -61 z "},"S":{"ha":754,"x_min":60,"x_max":693,"o":"m 382 -22 q 86 31 224 -22 l 60 206 l 163 217 l 181 113 q 273 90 228 97 q 379 82 318 82 q 518 116 464 82 q 572 224 572 150 q 541 317 572 281 q 432 364 510 353 l 328 379 q 142 458 207 397 q 78 614 78 519 q 157 778 78 717 q 381 840 236 840 q 517 830 458 840 q 643 793 575 819 l 668 613 l 563 601 l 544 717 q 379 739 478 739 q 242 708 292 739 q 192 619 192 676 q 228 533 192 564 q 336 492 265 503 l 457 472 q 635 395 576 456 q 693 240 693 335 q 650 94 693 153 q 536 6 607 35 q 382 -22 465 -22 z "},"Ś":{"ha":754,"x_min":60,"x_max":693,"o":"m 382 -22 q 86 31 224 -22 l 60 206 l 163 217 l 181 113 q 273 90 228 97 q 379 82 318 82 q 518 116 464 82 q 572 224 572 150 q 541 317 572 281 q 432 364 510 353 l 328 379 q 142 458 207 397 q 78 614 78 519 q 157 778 78 717 q 381 840 236 840 q 517 830 458 840 q 643 793 575 819 l 668 613 l 563 601 l 544 717 q 379 739 478 739 q 242 708 292 739 q 192 619 192 676 q 228 533 192 564 q 336 492 265 503 l 457 472 q 635 395 576 456 q 693 240 693 335 q 650 94 693 153 q 536 6 607 35 q 382 -22 465 -22 m 589 1076 l 617 967 l 267 904 l 251 957 l 589 1076 z "},"Ṥ":{"ha":754,"x_min":60,"x_max":693,"o":"m 382 -22 q 86 31 224 -22 l 60 206 l 163 217 l 181 113 q 273 90 228 97 q 379 82 318 82 q 518 116 464 82 q 572 224 572 150 q 541 317 572 281 q 432 364 510 353 l 328 379 q 142 458 207 397 q 78 614 78 519 q 157 778 78 717 q 381 840 236 840 q 517 830 458 840 q 643 793 575 819 l 668 613 l 563 601 l 544 717 q 379 739 478 739 q 242 708 292 739 q 192 619 192 676 q 228 533 192 564 q 336 492 265 503 l 457 472 q 635 395 576 456 q 693 240 693 335 q 650 94 693 153 q 536 6 607 35 q 382 -22 465 -22 m 589 1076 l 617 967 l 267 904 l 251 957 l 589 1076 m 433 1268 q 497 1244 472 1268 q 522 1179 522 1219 q 497 1115 522 1140 q 433 1090 472 1090 q 370 1115 394 1090 q 346 1179 346 1139 q 370 1244 346 1219 q 433 1268 394 1268 z "},"Š":{"ha":754,"x_min":60,"x_max":693,"o":"m 382 -22 q 86 31 224 -22 l 60 206 l 163 217 l 181 113 q 273 90 228 97 q 379 82 318 82 q 518 116 464 82 q 572 224 572 150 q 541 317 572 281 q 432 364 510 353 l 328 379 q 142 458 207 397 q 78 614 78 519 q 157 778 78 717 q 381 840 236 840 q 517 830 458 840 q 643 793 575 819 l 668 613 l 563 601 l 544 717 q 379 739 478 739 q 242 708 292 739 q 192 619 192 676 q 228 533 192 564 q 336 492 265 503 l 457 472 q 635 395 576 456 q 693 240 693 335 q 650 94 693 153 q 536 6 607 35 q 382 -22 465 -22 m 379 886 l 161 1029 l 201 1090 l 379 999 l 556 1093 l 592 1029 l 379 886 z "},"Ṧ":{"ha":754,"x_min":60,"x_max":693,"o":"m 382 -22 q 86 31 224 -22 l 60 206 l 163 217 l 181 113 q 273 90 228 97 q 379 82 318 82 q 518 116 464 82 q 572 224 572 150 q 541 317 572 281 q 432 364 510 353 l 328 379 q 142 458 207 397 q 78 614 78 519 q 157 778 78 717 q 381 840 236 840 q 517 830 458 840 q 643 793 575 819 l 668 613 l 563 601 l 544 717 q 379 739 478 739 q 242 708 292 739 q 192 619 192 676 q 228 533 192 564 q 336 492 265 503 l 457 472 q 635 395 576 456 q 693 240 693 335 q 650 94 693 153 q 536 6 607 35 q 382 -22 465 -22 m 379 886 l 161 1029 l 201 1090 l 379 999 l 556 1093 l 592 1029 l 379 886 m 375 1290 q 439 1266 414 1290 q 464 1201 464 1242 q 439 1138 464 1163 q 375 1113 414 1113 q 312 1137 336 1113 q 288 1201 288 1161 q 312 1266 288 1242 q 375 1290 336 1290 z "},"Ş":{"ha":754,"x_min":60,"x_max":693,"o":"m 693 240 q 626 65 693 129 q 454 -17 560 0 l 454 -83 q 611 -194 611 -81 q 568 -283 611 -251 q 453 -314 525 -314 q 361 -297 397 -314 q 297 -260 325 -279 l 332 -204 q 388 -231 356 -221 q 450 -242 421 -242 q 522 -193 522 -242 q 503 -157 522 -168 q 436 -146 483 -146 l 376 -146 l 376 -22 q 86 31 217 -21 l 60 206 l 163 217 l 181 113 q 273 90 228 97 q 379 82 318 82 q 518 116 464 82 q 572 224 572 150 q 541 317 572 281 q 432 364 510 353 l 328 379 q 142 458 207 397 q 78 614 78 519 q 157 778 78 717 q 381 840 236 840 q 517 830 458 840 q 643 793 575 819 l 668 613 l 563 601 l 544 717 q 379 739 478 739 q 242 708 292 739 q 192 619 192 676 q 228 533 192 564 q 336 492 265 503 l 457 472 q 635 395 576 456 q 693 240 693 335 z "},"Ŝ":{"ha":754,"x_min":60,"x_max":693,"o":"m 382 -22 q 86 31 224 -22 l 60 206 l 163 217 l 181 113 q 273 90 228 97 q 379 82 318 82 q 518 116 464 82 q 572 224 572 150 q 541 317 572 281 q 432 364 510 353 l 328 379 q 142 458 207 397 q 78 614 78 519 q 157 778 78 717 q 381 840 236 840 q 517 830 458 840 q 643 793 575 819 l 668 613 l 563 601 l 544 717 q 379 739 478 739 q 242 708 292 739 q 192 619 192 676 q 228 533 192 564 q 336 492 265 503 l 457 472 q 635 395 576 456 q 693 240 693 335 q 650 94 693 153 q 536 6 607 35 q 382 -22 465 -22 m 376 1088 l 618 950 l 588 901 l 376 981 l 164 901 l 135 950 l 376 1088 z "},"Ș":{"ha":754,"x_min":60,"x_max":693,"o":"m 382 -22 q 86 31 224 -22 l 60 206 l 163 217 l 181 113 q 273 90 228 97 q 379 82 318 82 q 518 116 464 82 q 572 224 572 150 q 541 317 572 281 q 432 364 510 353 l 328 379 q 142 458 207 397 q 78 614 78 519 q 157 778 78 717 q 381 840 236 840 q 517 830 458 840 q 643 793 575 819 l 668 613 l 563 601 l 544 717 q 379 739 478 739 q 242 708 292 739 q 192 619 192 676 q 228 533 192 564 q 336 492 265 503 l 457 472 q 635 395 576 456 q 693 240 693 335 q 650 94 693 153 q 536 6 607 35 q 382 -22 465 -22 m 293 -385 q 322 -340 300 -375 q 358 -275 344 -306 q 299 -245 321 -269 q 278 -189 278 -221 q 305 -123 278 -149 q 374 -97 332 -97 q 444 -127 414 -97 q 474 -197 474 -157 q 343 -429 475 -297 l 293 -385 z "},"Ṡ":{"ha":754,"x_min":60,"x_max":693,"o":"m 382 -22 q 86 31 224 -22 l 60 206 l 163 217 l 181 113 q 273 90 228 97 q 379 82 318 82 q 518 116 464 82 q 572 224 572 150 q 541 317 572 281 q 432 364 510 353 l 328 379 q 142 458 207 397 q 78 614 78 519 q 157 778 78 717 q 381 840 236 840 q 517 830 458 840 q 643 793 575 819 l 668 613 l 563 601 l 544 717 q 379 739 478 739 q 242 708 292 739 q 192 619 192 676 q 228 533 192 564 q 336 492 265 503 l 457 472 q 635 395 576 456 q 693 240 693 335 q 650 94 693 153 q 536 6 607 35 q 382 -22 465 -22 m 375 1115 q 439 1091 414 1115 q 464 1026 464 1067 q 439 963 464 988 q 375 938 414 938 q 312 962 336 938 q 288 1026 288 986 q 312 1091 288 1067 q 375 1115 336 1115 z "},"Ṣ":{"ha":754,"x_min":60,"x_max":693,"o":"m 382 -22 q 86 31 224 -22 l 60 206 l 163 217 l 181 113 q 273 90 228 97 q 379 82 318 82 q 518 116 464 82 q 572 224 572 150 q 541 317 572 281 q 432 364 510 353 l 328 379 q 142 458 207 397 q 78 614 78 519 q 157 778 78 717 q 381 840 236 840 q 517 830 458 840 q 643 793 575 819 l 668 613 l 563 601 l 544 717 q 379 739 478 739 q 242 708 292 739 q 192 619 192 676 q 228 533 192 564 q 336 492 265 503 l 457 472 q 635 395 576 456 q 693 240 693 335 q 650 94 693 153 q 536 6 607 35 q 382 -22 465 -22 m 375 -81 q 439 -106 414 -81 q 464 -169 464 -131 q 439 -234 464 -210 q 375 -258 414 -258 q 312 -234 336 -258 q 288 -169 288 -210 q 312 -105 288 -129 q 375 -81 336 -81 z "},"Ṩ":{"ha":754,"x_min":60,"x_max":693,"o":"m 382 -22 q 86 31 224 -22 l 60 206 l 163 217 l 181 113 q 273 90 228 97 q 379 82 318 82 q 518 116 464 82 q 572 224 572 150 q 541 317 572 281 q 432 364 510 353 l 328 379 q 142 458 207 397 q 78 614 78 519 q 157 778 78 717 q 381 840 236 840 q 517 830 458 840 q 643 793 575 819 l 668 613 l 563 601 l 544 717 q 379 739 478 739 q 242 708 292 739 q 192 619 192 676 q 228 533 192 564 q 336 492 265 503 l 457 472 q 635 395 576 456 q 693 240 693 335 q 650 94 693 153 q 536 6 607 35 q 382 -22 465 -22 m 375 -81 q 439 -106 414 -81 q 464 -169 464 -131 q 439 -234 464 -210 q 375 -258 414 -258 q 312 -234 336 -258 q 288 -169 288 -210 q 312 -105 288 -129 q 375 -81 336 -81 m 375 1115 q 439 1091 414 1115 q 464 1026 464 1067 q 439 963 464 988 q 375 938 414 938 q 312 962 336 938 q 288 1026 288 986 q 312 1091 288 1067 q 375 1115 336 1115 z "},"ẞ":{"ha":821,"x_min":53,"x_max":778,"o":"m 574 -21 q 469 -3 521 -21 q 393 42 418 15 l 371 164 l 471 185 l 483 106 q 522 84 497 92 q 574 76 546 76 q 640 99 614 76 q 665 158 665 122 q 639 223 665 196 q 556 271 613 250 q 432 347 475 301 q 389 450 389 393 q 413 543 389 508 q 483 617 438 578 q 534 665 518 646 q 550 714 550 685 q 517 776 550 751 q 432 801 483 801 q 323 764 354 801 q 292 635 292 726 l 292 0 l 53 0 l 53 100 l 169 100 l 169 503 l 53 503 l 53 603 l 169 603 l 169 663 q 232 841 169 783 q 425 899 294 899 q 599 849 535 899 q 664 714 664 799 q 640 626 664 661 q 571 551 615 590 q 524 504 539 524 q 508 461 508 485 q 532 410 508 431 q 619 367 556 390 q 739 285 700 336 q 778 161 778 235 q 721 30 778 81 q 574 -21 664 -21 z "},"Ə":{"ha":846,"x_min":33,"x_max":778,"o":"m 381 840 q 590 788 500 840 q 729 638 681 735 q 778 410 778 540 q 730 181 778 279 q 595 31 682 83 q 394 -22 508 -22 q 207 28 289 -22 q 79 173 125 79 q 33 392 33 267 l 33 446 l 647 446 q 376 735 624 735 q 197 701 269 735 l 171 585 l 64 608 l 96 774 q 196 819 133 797 q 381 840 258 840 m 394 85 q 574 154 504 85 q 644 344 644 224 l 157 344 q 222 153 157 221 q 394 85 288 85 z "},"T":{"ha":821,"x_min":47,"x_max":769,"o":"m 47 818 l 769 818 l 769 576 l 654 576 l 654 710 l 472 710 l 469 108 l 597 108 l 597 0 l 217 0 l 217 108 l 344 108 l 346 710 l 164 710 l 164 576 l 47 576 l 47 818 z "},"Ŧ":{"ha":821,"x_min":47,"x_max":769,"o":"m 47 818 l 769 818 l 769 576 l 654 576 l 654 710 l 472 710 l 471 458 l 626 458 l 626 368 l 471 368 l 469 108 l 597 108 l 597 0 l 217 0 l 217 108 l 344 108 l 344 368 l 192 368 l 192 458 l 346 458 l 346 710 l 164 710 l 164 576 l 47 576 l 47 818 z "},"Ť":{"ha":821,"x_min":47,"x_max":769,"o":"m 47 818 l 769 818 l 769 576 l 654 576 l 654 710 l 472 710 l 469 108 l 597 108 l 597 0 l 217 0 l 217 108 l 344 108 l 346 710 l 164 710 l 164 576 l 47 576 l 47 818 m 413 886 l 194 1029 l 235 1090 l 413 999 l 589 1093 l 625 1029 l 413 886 z "},"Ţ":{"ha":821,"x_min":47,"x_max":769,"o":"m 47 818 l 769 818 l 769 576 l 654 576 l 654 710 l 472 710 l 469 108 l 597 108 l 597 0 l 217 0 l 217 108 l 344 108 l 346 710 l 164 710 l 164 576 l 47 576 l 47 818 m 486 -314 q 394 -297 431 -314 q 331 -260 358 -279 l 365 -204 q 422 -231 389 -221 q 483 -242 454 -242 q 556 -193 556 -242 q 536 -157 556 -168 q 469 -146 517 -146 l 410 -146 l 410 0 l 488 0 l 488 -83 q 644 -194 644 -81 q 601 -283 644 -251 q 486 -314 558 -314 z "},"Ț":{"ha":821,"x_min":47,"x_max":769,"o":"m 47 818 l 769 818 l 769 576 l 654 576 l 654 710 l 472 710 l 469 108 l 597 108 l 597 0 l 217 0 l 217 108 l 344 108 l 346 710 l 164 710 l 164 576 l 47 576 l 47 818 m 326 -385 q 356 -340 333 -375 q 392 -275 378 -306 q 333 -245 354 -269 q 311 -189 311 -221 q 338 -123 311 -149 q 407 -97 365 -97 q 477 -127 447 -97 q 507 -197 507 -157 q 376 -429 508 -297 l 326 -385 z "},"Ṭ":{"ha":821,"x_min":47,"x_max":769,"o":"m 47 818 l 769 818 l 769 576 l 654 576 l 654 710 l 472 710 l 469 108 l 597 108 l 597 0 l 217 0 l 217 108 l 344 108 l 346 710 l 164 710 l 164 576 l 47 576 l 47 818 m 408 -81 q 472 -106 447 -81 q 497 -169 497 -131 q 472 -234 497 -210 q 408 -258 447 -258 q 345 -234 369 -258 q 321 -169 321 -210 q 345 -105 321 -129 q 408 -81 369 -81 z "},"Ṯ":{"ha":821,"x_min":47,"x_max":769,"o":"m 47 818 l 769 818 l 769 576 l 654 576 l 654 710 l 472 710 l 469 108 l 597 108 l 597 0 l 217 0 l 217 108 l 344 108 l 346 710 l 164 710 l 164 576 l 47 576 l 47 818 m 192 -61 l 626 -61 l 626 -153 l 192 -153 l 192 -61 z "},"U":{"ha":946,"x_min":38,"x_max":907,"o":"m 778 297 q 701 62 778 146 q 468 -22 624 -22 q 242 62 317 -22 q 167 297 167 146 l 167 710 l 38 710 l 38 818 l 379 818 l 379 710 l 292 710 l 292 263 q 338 126 292 171 q 468 82 385 82 q 604 131 556 82 q 653 276 653 179 l 653 710 l 567 710 l 567 818 l 907 818 l 907 710 l 778 710 l 778 297 z "},"Ú":{"ha":946,"x_min":38,"x_max":907,"o":"m 778 297 q 701 62 778 146 q 468 -22 624 -22 q 242 62 317 -22 q 167 297 167 146 l 167 710 l 38 710 l 38 818 l 379 818 l 379 710 l 292 710 l 292 263 q 338 126 292 171 q 468 82 385 82 q 604 131 556 82 q 653 276 653 179 l 653 710 l 567 710 l 567 818 l 907 818 l 907 710 l 778 710 l 778 297 m 685 1076 l 713 967 l 363 904 l 347 957 l 685 1076 z "},"Ŭ":{"ha":946,"x_min":38,"x_max":907,"o":"m 778 297 q 701 62 778 146 q 468 -22 624 -22 q 242 62 317 -22 q 167 297 167 146 l 167 710 l 38 710 l 38 818 l 379 818 l 379 710 l 292 710 l 292 263 q 338 126 292 171 q 468 82 385 82 q 604 131 556 82 q 653 276 653 179 l 653 710 l 567 710 l 567 818 l 907 818 l 907 710 l 778 710 l 778 297 m 471 906 q 319 950 376 906 q 247 1081 263 994 l 343 1096 q 471 999 356 999 q 562 1024 529 999 q 600 1096 594 1049 l 696 1081 q 623 950 681 994 q 471 906 565 906 z "},"Û":{"ha":946,"x_min":38,"x_max":907,"o":"m 778 297 q 701 62 778 146 q 468 -22 624 -22 q 242 62 317 -22 q 167 297 167 146 l 167 710 l 38 710 l 38 818 l 379 818 l 379 710 l 292 710 l 292 263 q 338 126 292 171 q 468 82 385 82 q 604 131 556 82 q 653 276 653 179 l 653 710 l 567 710 l 567 818 l 907 818 l 907 710 l 778 710 l 778 297 m 472 1088 l 714 950 l 683 901 l 472 981 l 260 901 l 231 950 l 472 1088 z "},"Ȕ":{"ha":946,"x_min":38,"x_max":907,"o":"m 778 297 q 701 62 778 146 q 468 -22 624 -22 q 242 62 317 -22 q 167 297 167 146 l 167 710 l 38 710 l 38 818 l 379 818 l 379 710 l 292 710 l 292 263 q 338 126 292 171 q 468 82 385 82 q 604 131 556 82 q 653 276 653 179 l 653 710 l 567 710 l 567 818 l 907 818 l 907 710 l 778 710 l 778 297 m 453 1199 l 629 938 l 574 897 l 364 1132 l 453 1199 m 210 1171 l 432 947 l 385 897 l 136 1089 l 210 1171 z "},"Ü":{"ha":946,"x_min":38,"x_max":907,"o":"m 778 297 q 701 62 778 146 q 468 -22 624 -22 q 242 62 317 -22 q 167 297 167 146 l 167 710 l 38 710 l 38 818 l 379 818 l 379 710 l 292 710 l 292 263 q 338 126 292 171 q 468 82 385 82 q 604 131 556 82 q 653 276 653 179 l 653 710 l 567 710 l 567 818 l 907 818 l 907 710 l 778 710 l 778 297 m 346 1090 q 404 1065 379 1090 q 429 1007 429 1040 q 404 949 429 974 q 346 925 379 925 q 288 949 313 925 q 264 1007 264 974 q 288 1065 264 1040 q 346 1090 313 1090 m 599 1090 q 656 1065 632 1090 q 681 1007 681 1040 q 656 949 681 974 q 599 925 632 925 q 540 949 564 925 q 515 1007 515 974 q 540 1065 515 1040 q 599 1090 564 1090 z "},"Ụ":{"ha":946,"x_min":38,"x_max":907,"o":"m 778 297 q 701 62 778 146 q 468 -22 624 -22 q 242 62 317 -22 q 167 297 167 146 l 167 710 l 38 710 l 38 818 l 379 818 l 379 710 l 292 710 l 292 263 q 338 126 292 171 q 468 82 385 82 q 604 131 556 82 q 653 276 653 179 l 653 710 l 567 710 l 567 818 l 907 818 l 907 710 l 778 710 l 778 297 m 463 -81 q 526 -106 501 -81 q 551 -169 551 -131 q 526 -234 551 -210 q 463 -258 501 -258 q 399 -234 424 -258 q 375 -169 375 -210 q 399 -105 375 -129 q 463 -81 424 -81 z "},"Ù":{"ha":946,"x_min":38,"x_max":907,"o":"m 778 297 q 701 62 778 146 q 468 -22 624 -22 q 242 62 317 -22 q 167 297 167 146 l 167 710 l 38 710 l 38 818 l 379 818 l 379 710 l 292 710 l 292 263 q 338 126 292 171 q 468 82 385 82 q 604 131 556 82 q 653 276 653 179 l 653 710 l 567 710 l 567 818 l 907 818 l 907 710 l 778 710 l 778 297 m 222 1071 l 561 951 l 546 899 l 194 961 l 222 1071 z "},"Ủ":{"ha":946,"x_min":38,"x_max":907,"o":"m 778 297 q 701 62 778 146 q 468 -22 624 -22 q 242 62 317 -22 q 167 297 167 146 l 167 710 l 38 710 l 38 818 l 379 818 l 379 710 l 292 710 l 292 263 q 338 126 292 171 q 468 82 385 82 q 604 131 556 82 q 653 276 653 179 l 653 710 l 567 710 l 567 818 l 907 818 l 907 710 l 778 710 l 778 297 m 450 935 q 485 976 472 953 q 497 1019 497 999 q 487 1050 497 1039 q 456 1061 476 1061 q 389 1024 421 1061 l 336 1083 q 399 1133 364 1117 q 472 1150 435 1150 q 558 1119 524 1150 q 592 1035 592 1089 q 489 890 592 960 l 450 935 z "},"Ư":{"ha":971,"x_min":38,"x_max":910,"o":"m 910 928 q 778 717 910 749 l 778 297 q 701 62 778 146 q 468 -22 624 -22 q 242 62 317 -22 q 167 297 167 146 l 167 710 l 38 710 l 38 818 l 379 818 l 379 710 l 292 710 l 292 263 q 338 126 292 171 q 468 82 385 82 q 604 131 556 82 q 653 276 653 179 l 653 710 l 567 710 l 567 818 l 717 818 q 788 846 764 818 q 813 928 813 874 l 910 928 z "},"Ứ":{"ha":971,"x_min":38,"x_max":910,"o":"m 910 928 q 778 717 910 749 l 778 297 q 701 62 778 146 q 468 -22 624 -22 q 242 62 317 -22 q 167 297 167 146 l 167 710 l 38 710 l 38 818 l 379 818 l 379 710 l 292 710 l 292 263 q 338 126 292 171 q 468 82 385 82 q 604 131 556 82 q 653 276 653 179 l 653 710 l 567 710 l 567 818 l 717 818 q 788 846 764 818 q 813 928 813 874 l 910 928 m 682 1076 l 710 967 l 360 904 l 344 957 l 682 1076 z "},"Ự":{"ha":971,"x_min":38,"x_max":910,"o":"m 910 928 q 778 717 910 749 l 778 297 q 701 62 778 146 q 468 -22 624 -22 q 242 62 317 -22 q 167 297 167 146 l 167 710 l 38 710 l 38 818 l 379 818 l 379 710 l 292 710 l 292 263 q 338 126 292 171 q 468 82 385 82 q 604 131 556 82 q 653 276 653 179 l 653 710 l 567 710 l 567 818 l 717 818 q 788 846 764 818 q 813 928 813 874 l 910 928 m 485 -81 q 549 -106 524 -81 q 574 -169 574 -131 q 549 -234 574 -210 q 485 -258 524 -258 q 422 -234 446 -258 q 397 -169 397 -210 q 422 -105 397 -129 q 485 -81 446 -81 z "},"Ừ":{"ha":971,"x_min":38,"x_max":910,"o":"m 910 928 q 778 717 910 749 l 778 297 q 701 62 778 146 q 468 -22 624 -22 q 242 62 317 -22 q 167 297 167 146 l 167 710 l 38 710 l 38 818 l 379 818 l 379 710 l 292 710 l 292 263 q 338 126 292 171 q 468 82 385 82 q 604 131 556 82 q 653 276 653 179 l 653 710 l 567 710 l 567 818 l 717 818 q 788 846 764 818 q 813 928 813 874 l 910 928 m 219 1071 l 558 951 l 543 899 l 192 961 l 219 1071 z "},"Ử":{"ha":971,"x_min":38,"x_max":910,"o":"m 910 928 q 778 717 910 749 l 778 297 q 701 62 778 146 q 468 -22 624 -22 q 242 62 317 -22 q 167 297 167 146 l 167 710 l 38 710 l 38 818 l 379 818 l 379 710 l 292 710 l 292 263 q 338 126 292 171 q 468 82 385 82 q 604 131 556 82 q 653 276 653 179 l 653 710 l 567 710 l 567 818 l 717 818 q 788 846 764 818 q 813 928 813 874 l 910 928 m 447 935 q 482 976 469 953 q 494 1019 494 999 q 484 1050 494 1039 q 453 1061 474 1061 q 386 1024 418 1061 l 333 1083 q 397 1133 361 1117 q 469 1150 432 1150 q 555 1119 521 1150 q 589 1035 589 1089 q 486 890 589 960 l 447 935 z "},"Ữ":{"ha":971,"x_min":38,"x_max":910,"o":"m 910 928 q 778 717 910 749 l 778 297 q 701 62 778 146 q 468 -22 624 -22 q 242 62 317 -22 q 167 297 167 146 l 167 710 l 38 710 l 38 818 l 379 818 l 379 710 l 292 710 l 292 263 q 338 126 292 171 q 468 82 385 82 q 604 131 556 82 q 653 276 653 179 l 653 710 l 567 710 l 567 818 l 717 818 q 788 846 764 818 q 813 928 813 874 l 910 928 m 263 994 q 342 1041 311 1028 q 419 1054 374 1054 q 472 1046 449 1054 q 524 1022 496 1038 q 562 1004 547 1010 q 594 999 576 999 q 635 1008 618 999 q 690 1043 653 1017 l 725 963 q 653 913 683 926 q 585 900 624 900 q 545 908 564 900 q 501 929 526 915 q 457 950 475 943 q 419 957 439 957 q 370 951 390 957 q 327 933 350 944 q 294 918 304 922 l 263 994 z "},"Ű":{"ha":946,"x_min":38,"x_max":907,"o":"m 778 297 q 701 62 778 146 q 468 -22 624 -22 q 242 62 317 -22 q 167 297 167 146 l 167 710 l 38 710 l 38 818 l 379 818 l 379 710 l 292 710 l 292 263 q 338 126 292 171 q 468 82 385 82 q 604 131 556 82 q 653 276 653 179 l 653 710 l 567 710 l 567 818 l 907 818 l 907 710 l 778 710 l 778 297 m 575 1131 l 638 1049 l 407 903 l 375 943 l 575 1131 m 790 1071 l 828 975 l 563 906 l 542 951 l 790 1071 z "},"Ȗ":{"ha":946,"x_min":38,"x_max":907,"o":"m 778 297 q 701 62 778 146 q 468 -22 624 -22 q 242 62 317 -22 q 167 297 167 146 l 167 710 l 38 710 l 38 818 l 379 818 l 379 710 l 292 710 l 292 263 q 338 126 292 171 q 468 82 385 82 q 604 131 556 82 q 653 276 653 179 l 653 710 l 567 710 l 567 818 l 907 818 l 907 710 l 778 710 l 778 297 m 471 1111 q 623 1067 565 1111 q 696 936 681 1022 l 600 921 q 562 993 594 968 q 471 1018 529 1018 q 343 921 356 1018 l 247 936 q 319 1067 263 1022 q 471 1111 376 1111 z "},"Ū":{"ha":946,"x_min":38,"x_max":907,"o":"m 778 297 q 701 62 778 146 q 468 -22 624 -22 q 242 62 317 -22 q 167 297 167 146 l 167 710 l 38 710 l 38 818 l 379 818 l 379 710 l 292 710 l 292 263 q 338 126 292 171 q 468 82 385 82 q 604 131 556 82 q 653 276 653 179 l 653 710 l 567 710 l 567 818 l 907 818 l 907 710 l 778 710 l 778 297 m 257 1044 l 686 1044 l 686 956 l 257 956 l 257 1044 z "},"Ṻ":{"ha":946,"x_min":38,"x_max":907,"o":"m 778 297 q 701 62 778 146 q 468 -22 624 -22 q 242 62 317 -22 q 167 297 167 146 l 167 710 l 38 710 l 38 818 l 379 818 l 379 710 l 292 710 l 292 263 q 338 126 292 171 q 468 82 385 82 q 604 131 556 82 q 653 276 653 179 l 653 710 l 567 710 l 567 818 l 907 818 l 907 710 l 778 710 l 778 297 m 257 1044 l 686 1044 l 686 956 l 257 956 l 257 1044 m 365 1297 q 424 1272 399 1297 q 449 1214 449 1247 q 424 1156 449 1181 q 365 1132 399 1132 q 308 1156 332 1132 q 283 1214 283 1181 q 308 1272 283 1247 q 365 1297 332 1297 m 618 1297 q 676 1272 651 1297 q 700 1214 700 1247 q 676 1156 700 1181 q 618 1132 651 1132 q 559 1156 583 1132 q 535 1214 535 1181 q 559 1272 535 1247 q 618 1297 583 1297 z "},"Ų":{"ha":946,"x_min":38,"x_max":907,"o":"m 907 818 l 907 710 l 778 710 l 778 297 q 735 108 778 185 q 604 0 692 32 q 519 -132 519 -56 q 542 -179 519 -162 q 603 -196 564 -196 q 671 -183 636 -196 l 671 -272 q 557 -299 617 -299 q 442 -264 488 -299 q 396 -171 396 -229 q 474 -22 396 -83 l 468 -22 q 242 62 317 -22 q 167 297 167 146 l 167 710 l 38 710 l 38 818 l 379 818 l 379 710 l 292 710 l 292 263 q 338 126 292 171 q 468 82 385 82 q 604 131 556 82 q 653 276 653 179 l 653 710 l 567 710 l 567 818 l 907 818 z "},"Ů":{"ha":946,"x_min":38,"x_max":907,"o":"m 778 297 q 701 62 778 146 q 468 -22 624 -22 q 242 62 317 -22 q 167 297 167 146 l 167 710 l 38 710 l 38 818 l 379 818 l 379 710 l 292 710 l 292 263 q 338 126 292 171 q 468 82 385 82 q 604 131 556 82 q 653 276 653 179 l 653 710 l 567 710 l 567 818 l 907 818 l 907 710 l 778 710 l 778 297 m 471 1165 q 564 1131 529 1165 q 599 1039 599 1096 q 564 947 599 982 q 471 913 529 913 q 380 947 414 913 q 346 1039 346 982 q 380 1131 346 1096 q 471 1165 414 1165 m 471 1097 q 430 1081 446 1097 q 414 1039 414 1064 q 430 997 414 1013 q 471 981 446 981 q 513 997 497 981 q 529 1039 529 1013 q 513 1081 529 1064 q 471 1097 497 1097 z "},"Ũ":{"ha":946,"x_min":38,"x_max":907,"o":"m 778 297 q 701 62 778 146 q 468 -22 624 -22 q 242 62 317 -22 q 167 297 167 146 l 167 710 l 38 710 l 38 818 l 379 818 l 379 710 l 292 710 l 292 263 q 338 126 292 171 q 468 82 385 82 q 604 131 556 82 q 653 276 653 179 l 653 710 l 567 710 l 567 818 l 907 818 l 907 710 l 778 710 l 778 297 m 265 994 q 345 1041 314 1028 q 422 1054 376 1054 q 475 1046 451 1054 q 526 1022 499 1038 q 565 1004 550 1010 q 597 999 579 999 q 638 1008 621 999 q 693 1043 656 1017 l 728 963 q 656 913 686 926 q 588 900 626 900 q 548 908 567 900 q 504 929 529 915 q 460 950 478 943 q 422 957 442 957 q 373 951 393 957 q 330 933 353 944 q 297 918 307 922 l 265 994 z "},"Ṹ":{"ha":946,"x_min":38,"x_max":907,"o":"m 778 297 q 701 62 778 146 q 468 -22 624 -22 q 242 62 317 -22 q 167 297 167 146 l 167 710 l 38 710 l 38 818 l 379 818 l 379 710 l 292 710 l 292 263 q 338 126 292 171 q 468 82 385 82 q 604 131 556 82 q 653 276 653 179 l 653 710 l 567 710 l 567 818 l 907 818 l 907 710 l 778 710 l 778 297 m 265 994 q 345 1041 314 1028 q 422 1054 376 1054 q 475 1046 451 1054 q 526 1022 499 1038 q 565 1004 550 1010 q 597 999 579 999 q 638 1008 621 999 q 693 1043 656 1017 l 728 963 q 656 913 686 926 q 588 900 626 900 q 548 908 567 900 q 504 929 529 915 q 460 950 478 943 q 422 957 442 957 q 373 951 393 957 q 330 933 353 944 q 297 918 307 922 l 265 994 m 678 1285 l 706 1175 l 356 1113 l 340 1165 l 678 1285 z "},"V":{"ha":919,"x_min":7,"x_max":913,"o":"m 7 818 l 357 818 l 357 710 l 268 710 l 407 344 l 475 135 l 538 336 l 671 710 l 581 710 l 581 818 l 913 818 l 913 710 l 790 710 l 543 0 l 406 0 l 133 710 l 7 710 l 7 818 z "},"W":{"ha":1275,"x_min":3,"x_max":1272,"o":"m 3 818 l 351 818 l 351 710 l 265 710 l 374 335 l 429 138 l 469 329 l 579 714 l 722 714 l 819 336 l 861 139 l 915 336 l 1032 710 l 943 710 l 943 818 l 1272 818 l 1272 710 l 1149 710 l 925 0 l 781 0 l 686 372 l 643 557 l 592 368 l 494 0 l 357 0 l 132 710 l 3 710 l 3 818 z "},"Ẃ":{"ha":1275,"x_min":3,"x_max":1272,"o":"m 3 818 l 351 818 l 351 710 l 265 710 l 374 335 l 429 138 l 469 329 l 579 714 l 722 714 l 819 336 l 861 139 l 915 336 l 1032 710 l 943 710 l 943 818 l 1272 818 l 1272 710 l 1149 710 l 925 0 l 781 0 l 686 372 l 643 557 l 592 368 l 494 0 l 357 0 l 132 710 l 3 710 l 3 818 m 858 1076 l 886 967 l 536 904 l 521 957 l 858 1076 z "},"Ŵ":{"ha":1275,"x_min":3,"x_max":1272,"o":"m 3 818 l 351 818 l 351 710 l 265 710 l 374 335 l 429 138 l 469 329 l 579 714 l 722 714 l 819 336 l 861 139 l 915 336 l 1032 710 l 943 710 l 943 818 l 1272 818 l 1272 710 l 1149 710 l 925 0 l 781 0 l 686 372 l 643 557 l 592 368 l 494 0 l 357 0 l 132 710 l 3 710 l 3 818 m 646 1088 l 888 950 l 857 901 l 646 981 l 433 901 l 404 950 l 646 1088 z "},"Ẅ":{"ha":1275,"x_min":3,"x_max":1272,"o":"m 3 818 l 351 818 l 351 710 l 265 710 l 374 335 l 429 138 l 469 329 l 579 714 l 722 714 l 819 336 l 861 139 l 915 336 l 1032 710 l 943 710 l 943 818 l 1272 818 l 1272 710 l 1149 710 l 925 0 l 781 0 l 686 372 l 643 557 l 592 368 l 494 0 l 357 0 l 132 710 l 3 710 l 3 818 m 519 1090 q 578 1065 553 1090 q 603 1007 603 1040 q 578 949 603 974 q 519 925 553 925 q 462 949 486 925 q 438 1007 438 974 q 462 1065 438 1040 q 519 1090 486 1090 m 772 1090 q 830 1065 806 1090 q 854 1007 854 1040 q 830 949 854 974 q 772 925 806 925 q 713 949 738 925 q 689 1007 689 974 q 713 1065 689 1040 q 772 1090 738 1090 z "},"Ẁ":{"ha":1275,"x_min":3,"x_max":1272,"o":"m 3 818 l 351 818 l 351 710 l 265 710 l 374 335 l 429 138 l 469 329 l 579 714 l 722 714 l 819 336 l 861 139 l 915 336 l 1032 710 l 943 710 l 943 818 l 1272 818 l 1272 710 l 1149 710 l 925 0 l 781 0 l 686 372 l 643 557 l 592 368 l 494 0 l 357 0 l 132 710 l 3 710 l 3 818 m 396 1071 l 735 951 l 719 899 l 368 961 l 396 1071 z "},"X":{"ha":936,"x_min":31,"x_max":914,"o":"m 31 0 l 31 107 l 154 107 l 386 415 l 150 710 l 32 710 l 32 818 l 389 818 l 389 710 l 303 710 l 468 503 l 626 710 l 536 710 l 536 818 l 888 818 l 888 710 l 758 710 l 539 419 l 788 107 l 914 107 l 914 0 l 540 0 l 540 107 l 638 107 l 457 331 l 286 107 l 381 107 l 381 0 l 31 0 z "},"Y":{"ha":908,"x_min":7,"x_max":903,"o":"m 7 818 l 351 818 l 351 710 l 274 710 l 461 447 l 665 710 l 565 710 l 565 818 l 903 818 l 903 710 l 807 710 l 518 350 l 517 108 l 647 108 l 647 0 l 263 0 l 263 108 l 393 108 l 394 346 l 121 710 l 7 710 l 7 818 z "},"Ý":{"ha":908,"x_min":7,"x_max":903,"o":"m 7 818 l 351 818 l 351 710 l 274 710 l 461 447 l 665 710 l 565 710 l 565 818 l 903 818 l 903 710 l 807 710 l 518 350 l 517 108 l 647 108 l 647 0 l 263 0 l 263 108 l 393 108 l 394 346 l 121 710 l 7 710 l 7 818 m 667 1076 l 694 967 l 344 904 l 329 957 l 667 1076 z "},"Ŷ":{"ha":908,"x_min":7,"x_max":903,"o":"m 7 818 l 351 818 l 351 710 l 274 710 l 461 447 l 665 710 l 565 710 l 565 818 l 903 818 l 903 710 l 807 710 l 518 350 l 517 108 l 647 108 l 647 0 l 263 0 l 263 108 l 393 108 l 394 346 l 121 710 l 7 710 l 7 818 m 454 1088 l 696 950 l 665 901 l 454 981 l 242 901 l 213 950 l 454 1088 z "},"Ÿ":{"ha":908,"x_min":7,"x_max":903,"o":"m 7 818 l 351 818 l 351 710 l 274 710 l 461 447 l 665 710 l 565 710 l 565 818 l 903 818 l 903 710 l 807 710 l 518 350 l 517 108 l 647 108 l 647 0 l 263 0 l 263 108 l 393 108 l 394 346 l 121 710 l 7 710 l 7 818 m 328 1090 q 386 1065 361 1090 q 411 1007 411 1040 q 386 949 411 974 q 328 925 361 925 q 270 949 294 925 q 246 1007 246 974 q 270 1065 246 1040 q 328 1090 294 1090 m 581 1090 q 638 1065 614 1090 q 663 1007 663 1040 q 638 949 663 974 q 581 925 614 925 q 522 949 546 925 q 497 1007 497 974 q 522 1065 497 1040 q 581 1090 546 1090 z "},"Ẏ":{"ha":908,"x_min":7,"x_max":903,"o":"m 7 818 l 351 818 l 351 710 l 274 710 l 461 447 l 665 710 l 565 710 l 565 818 l 903 818 l 903 710 l 807 710 l 518 350 l 517 108 l 647 108 l 647 0 l 263 0 l 263 108 l 393 108 l 394 346 l 121 710 l 7 710 l 7 818 m 453 1115 q 517 1091 492 1115 q 542 1026 542 1067 q 517 963 542 988 q 453 938 492 938 q 390 962 414 938 q 365 1026 365 986 q 390 1091 365 1067 q 453 1115 414 1115 z "},"Ỵ":{"ha":908,"x_min":7,"x_max":903,"o":"m 7 818 l 351 818 l 351 710 l 274 710 l 461 447 l 665 710 l 565 710 l 565 818 l 903 818 l 903 710 l 807 710 l 518 350 l 517 108 l 647 108 l 647 0 l 263 0 l 263 108 l 393 108 l 394 346 l 121 710 l 7 710 l 7 818 m 453 -81 q 517 -106 492 -81 q 542 -169 542 -131 q 517 -234 542 -210 q 453 -258 492 -258 q 390 -234 414 -258 q 365 -169 365 -210 q 390 -105 365 -129 q 453 -81 414 -81 z "},"Ỳ":{"ha":908,"x_min":7,"x_max":903,"o":"m 7 818 l 351 818 l 351 710 l 274 710 l 461 447 l 665 710 l 565 710 l 565 818 l 903 818 l 903 710 l 807 710 l 518 350 l 517 108 l 647 108 l 647 0 l 263 0 l 263 108 l 393 108 l 394 346 l 121 710 l 7 710 l 7 818 m 204 1071 l 543 951 l 528 899 l 176 961 l 204 1071 z "},"Ỷ":{"ha":908,"x_min":7,"x_max":903,"o":"m 7 818 l 351 818 l 351 710 l 274 710 l 461 447 l 665 710 l 565 710 l 565 818 l 903 818 l 903 710 l 807 710 l 518 350 l 517 108 l 647 108 l 647 0 l 263 0 l 263 108 l 393 108 l 394 346 l 121 710 l 7 710 l 7 818 m 432 935 q 467 976 454 953 q 479 1019 479 999 q 469 1050 479 1039 q 438 1061 458 1061 q 371 1024 403 1061 l 318 1083 q 381 1133 346 1117 q 454 1150 417 1150 q 540 1119 506 1150 q 574 1035 574 1089 q 471 890 574 960 l 432 935 z "},"Ȳ":{"ha":908,"x_min":7,"x_max":903,"o":"m 7 818 l 351 818 l 351 710 l 274 710 l 461 447 l 665 710 l 565 710 l 565 818 l 903 818 l 903 710 l 807 710 l 518 350 l 517 108 l 647 108 l 647 0 l 263 0 l 263 108 l 393 108 l 394 346 l 121 710 l 7 710 l 7 818 m 239 1044 l 668 1044 l 668 956 l 239 956 l 239 1044 z "},"Ỹ":{"ha":908,"x_min":7,"x_max":903,"o":"m 7 818 l 351 818 l 351 710 l 274 710 l 461 447 l 665 710 l 565 710 l 565 818 l 903 818 l 903 710 l 807 710 l 518 350 l 517 108 l 647 108 l 647 0 l 263 0 l 263 108 l 393 108 l 394 346 l 121 710 l 7 710 l 7 818 m 247 994 q 327 1041 296 1028 q 404 1054 358 1054 q 457 1046 433 1054 q 508 1022 481 1038 q 547 1004 532 1010 q 579 999 561 999 q 620 1008 603 999 q 675 1043 638 1017 l 710 963 q 638 913 668 926 q 569 900 608 900 q 530 908 549 900 q 486 929 511 915 q 442 950 460 943 q 404 957 424 957 q 355 951 375 957 q 312 933 335 944 q 279 918 289 922 l 247 994 z "},"Z":{"ha":754,"x_min":46,"x_max":708,"o":"m 85 818 l 678 818 l 678 738 l 221 108 l 551 108 l 604 253 l 708 218 l 635 0 l 60 0 l 60 88 l 511 710 l 175 710 l 149 578 l 46 593 l 85 818 z "},"Ź":{"ha":754,"x_min":46,"x_max":708,"o":"m 85 818 l 678 818 l 678 738 l 221 108 l 551 108 l 604 253 l 708 218 l 635 0 l 60 0 l 60 88 l 511 710 l 175 710 l 149 578 l 46 593 l 85 818 m 588 1076 l 615 967 l 265 904 l 250 957 l 588 1076 z "},"Ž":{"ha":754,"x_min":46,"x_max":708,"o":"m 85 818 l 678 818 l 678 738 l 221 108 l 551 108 l 604 253 l 708 218 l 635 0 l 60 0 l 60 88 l 511 710 l 175 710 l 149 578 l 46 593 l 85 818 m 378 886 l 160 1029 l 200 1090 l 378 999 l 554 1093 l 590 1029 l 378 886 z "},"Ż":{"ha":754,"x_min":46,"x_max":708,"o":"m 85 818 l 678 818 l 678 738 l 221 108 l 551 108 l 604 253 l 708 218 l 635 0 l 60 0 l 60 88 l 511 710 l 175 710 l 149 578 l 46 593 l 85 818 m 374 1115 q 438 1091 413 1115 q 463 1026 463 1067 q 438 963 463 988 q 374 938 413 938 q 310 962 335 938 q 286 1026 286 986 q 310 1091 286 1067 q 374 1115 335 1115 z "},"Ẓ":{"ha":754,"x_min":46,"x_max":708,"o":"m 85 818 l 678 818 l 678 738 l 221 108 l 551 108 l 604 253 l 708 218 l 635 0 l 60 0 l 60 88 l 511 710 l 175 710 l 149 578 l 46 593 l 85 818 m 374 -81 q 438 -106 413 -81 q 463 -169 463 -131 q 438 -234 463 -210 q 374 -258 413 -258 q 310 -234 335 -258 q 286 -169 286 -210 q 310 -105 286 -129 q 374 -81 335 -81 z "},"a":{"ha":739,"x_min":50,"x_max":710,"o":"m 493 38 q 296 -22 399 -22 q 113 26 175 -22 q 50 168 50 75 q 110 304 50 258 q 288 350 171 350 l 460 350 q 324 528 460 528 q 203 511 258 528 l 189 436 l 89 454 l 113 586 q 322 625 221 625 q 516 556 450 625 q 582 354 582 488 l 582 115 l 710 74 l 678 -26 l 493 38 m 292 258 q 205 235 235 258 q 175 167 175 211 q 301 75 175 75 q 460 124 392 75 l 460 257 l 292 258 z "},"á":{"ha":739,"x_min":50,"x_max":710,"o":"m 493 38 q 296 -22 399 -22 q 113 26 175 -22 q 50 168 50 75 q 110 304 50 258 q 288 350 171 350 l 460 350 q 324 528 460 528 q 203 511 258 528 l 189 436 l 89 454 l 113 586 q 322 625 221 625 q 516 556 450 625 q 582 354 582 488 l 582 115 l 710 74 l 678 -26 l 493 38 m 292 258 q 205 235 235 258 q 175 167 175 211 q 301 75 175 75 q 460 124 392 75 l 460 257 l 292 258 m 433 983 l 522 917 l 313 682 l 257 722 l 433 983 z "},"ă":{"ha":739,"x_min":50,"x_max":710,"o":"m 493 38 q 296 -22 399 -22 q 113 26 175 -22 q 50 168 50 75 q 110 304 50 258 q 288 350 171 350 l 460 350 q 324 528 460 528 q 203 511 258 528 l 189 436 l 89 454 l 113 586 q 322 625 221 625 q 516 556 450 625 q 582 354 582 488 l 582 115 l 710 74 l 678 -26 l 493 38 m 292 258 q 205 235 235 258 q 175 167 175 211 q 301 75 175 75 q 460 124 392 75 l 460 257 l 292 258 m 328 690 q 176 735 233 690 q 104 865 119 779 l 200 881 q 328 783 213 783 q 419 808 386 783 q 457 881 451 833 l 553 865 q 480 735 538 779 q 328 690 422 690 z "},"ắ":{"ha":739,"x_min":50,"x_max":710,"o":"m 493 38 q 296 -22 399 -22 q 113 26 175 -22 q 50 168 50 75 q 110 304 50 258 q 288 350 171 350 l 460 350 q 324 528 460 528 q 203 511 258 528 l 189 436 l 89 454 l 113 586 q 322 625 221 625 q 516 556 450 625 q 582 354 582 488 l 582 115 l 710 74 l 678 -26 l 493 38 m 292 258 q 205 235 235 258 q 175 167 175 211 q 301 75 175 75 q 460 124 392 75 l 460 257 l 292 258 m 399 1094 l 488 1028 l 329 858 l 274 899 l 399 1094 m 328 690 q 176 735 233 690 q 104 865 119 779 l 200 881 q 328 783 213 783 q 419 808 386 783 q 457 881 451 833 l 553 865 q 480 735 538 779 q 328 690 422 690 z "},"ặ":{"ha":739,"x_min":50,"x_max":710,"o":"m 493 38 q 296 -22 399 -22 q 113 26 175 -22 q 50 168 50 75 q 110 304 50 258 q 288 350 171 350 l 460 350 q 324 528 460 528 q 203 511 258 528 l 189 436 l 89 454 l 113 586 q 322 625 221 625 q 516 556 450 625 q 582 354 582 488 l 582 115 l 710 74 l 678 -26 l 493 38 m 292 258 q 205 235 235 258 q 175 167 175 211 q 301 75 175 75 q 460 124 392 75 l 460 257 l 292 258 m 357 -81 q 421 -106 396 -81 q 446 -169 446 -131 q 421 -234 446 -210 q 357 -258 396 -258 q 294 -234 318 -258 q 269 -169 269 -210 q 294 -105 269 -129 q 357 -81 318 -81 m 328 690 q 176 735 233 690 q 104 865 119 779 l 200 881 q 328 783 213 783 q 419 808 386 783 q 457 881 451 833 l 553 865 q 480 735 538 779 q 328 690 422 690 z "},"ằ":{"ha":739,"x_min":50,"x_max":710,"o":"m 493 38 q 296 -22 399 -22 q 113 26 175 -22 q 50 168 50 75 q 110 304 50 258 q 288 350 171 350 l 460 350 q 324 528 460 528 q 203 511 258 528 l 189 436 l 89 454 l 113 586 q 322 625 221 625 q 516 556 450 625 q 582 354 582 488 l 582 115 l 710 74 l 678 -26 l 493 38 m 292 258 q 205 235 235 258 q 175 167 175 211 q 301 75 175 75 q 460 124 392 75 l 460 257 l 292 258 m 332 858 l 174 1026 l 263 1093 l 389 899 l 332 858 m 328 690 q 176 735 233 690 q 104 865 119 779 l 200 881 q 328 783 213 783 q 419 808 386 783 q 457 881 451 833 l 553 865 q 480 735 538 779 q 328 690 422 690 z "},"ẳ":{"ha":739,"x_min":50,"x_max":710,"o":"m 493 38 q 296 -22 399 -22 q 113 26 175 -22 q 50 168 50 75 q 110 304 50 258 q 288 350 171 350 l 460 350 q 324 528 460 528 q 203 511 258 528 l 189 436 l 89 454 l 113 586 q 322 625 221 625 q 516 556 450 625 q 582 354 582 488 l 582 115 l 710 74 l 678 -26 l 493 38 m 292 258 q 205 235 235 258 q 175 167 175 211 q 301 75 175 75 q 460 124 392 75 l 460 257 l 292 258 m 328 690 q 176 735 233 690 q 104 865 119 779 l 200 881 q 328 783 213 783 q 419 808 386 783 q 457 881 451 833 l 553 865 q 480 735 538 779 q 328 690 422 690 m 289 931 q 324 972 311 949 q 336 1015 336 994 q 326 1046 336 1035 q 294 1057 315 1057 q 228 1019 260 1057 l 175 1079 q 238 1129 203 1113 q 311 1146 274 1146 q 397 1115 363 1146 q 431 1031 431 1085 q 328 886 431 956 l 289 931 z "},"ẵ":{"ha":739,"x_min":50,"x_max":710,"o":"m 493 38 q 296 -22 399 -22 q 113 26 175 -22 q 50 168 50 75 q 110 304 50 258 q 288 350 171 350 l 460 350 q 324 528 460 528 q 203 511 258 528 l 189 436 l 89 454 l 113 586 q 322 625 221 625 q 516 556 450 625 q 582 354 582 488 l 582 115 l 710 74 l 678 -26 l 493 38 m 292 258 q 205 235 235 258 q 175 167 175 211 q 301 75 175 75 q 460 124 392 75 l 460 257 l 292 258 m 101 1008 q 179 1053 149 1040 q 253 1065 210 1065 q 306 1057 282 1065 q 357 1033 329 1049 q 395 1015 381 1021 q 428 1010 410 1010 q 469 1019 451 1010 q 524 1054 486 1028 l 547 976 q 479 929 508 942 q 414 917 450 917 q 329 946 379 917 q 285 967 301 960 q 249 974 268 974 q 199 967 219 974 q 156 950 179 961 q 124 935 133 939 l 101 1008 m 328 690 q 176 735 233 690 q 104 865 119 779 l 200 881 q 328 783 213 783 q 419 808 386 783 q 457 881 451 833 l 553 865 q 480 735 538 779 q 328 690 422 690 z "},"â":{"ha":739,"x_min":50,"x_max":710,"o":"m 493 38 q 296 -22 399 -22 q 113 26 175 -22 q 50 168 50 75 q 110 304 50 258 q 288 350 171 350 l 460 350 q 324 528 460 528 q 203 511 258 528 l 189 436 l 89 454 l 113 586 q 322 625 221 625 q 516 556 450 625 q 582 354 582 488 l 582 115 l 710 74 l 678 -26 l 493 38 m 292 258 q 205 235 235 258 q 175 167 175 211 q 301 75 175 75 q 460 124 392 75 l 460 257 l 292 258 m 332 892 l 544 749 l 508 685 l 332 779 l 154 688 l 114 749 l 332 892 z "},"ấ":{"ha":739,"x_min":50,"x_max":710,"o":"m 493 38 q 296 -22 399 -22 q 113 26 175 -22 q 50 168 50 75 q 110 304 50 258 q 288 350 171 350 l 460 350 q 324 528 460 528 q 203 511 258 528 l 189 436 l 89 454 l 113 586 q 322 625 221 625 q 516 556 450 625 q 582 354 582 488 l 582 115 l 710 74 l 678 -26 l 493 38 m 292 258 q 205 235 235 258 q 175 167 175 211 q 301 75 175 75 q 460 124 392 75 l 460 257 l 292 258 m 535 1081 l 624 1014 l 465 844 l 410 885 l 535 1081 m 332 892 l 544 749 l 508 685 l 332 779 l 154 688 l 114 749 l 332 892 z "},"ậ":{"ha":739,"x_min":50,"x_max":710,"o":"m 493 38 q 296 -22 399 -22 q 113 26 175 -22 q 50 168 50 75 q 110 304 50 258 q 288 350 171 350 l 460 350 q 324 528 460 528 q 203 511 258 528 l 189 436 l 89 454 l 113 586 q 322 625 221 625 q 516 556 450 625 q 582 354 582 488 l 582 115 l 710 74 l 678 -26 l 493 38 m 292 258 q 205 235 235 258 q 175 167 175 211 q 301 75 175 75 q 460 124 392 75 l 460 257 l 292 258 m 357 -81 q 421 -106 396 -81 q 446 -169 446 -131 q 421 -234 446 -210 q 357 -258 396 -258 q 294 -234 318 -258 q 269 -169 269 -210 q 294 -105 269 -129 q 357 -81 318 -81 m 332 892 l 544 749 l 508 685 l 332 779 l 154 688 l 114 749 l 332 892 z "},"ầ":{"ha":739,"x_min":50,"x_max":710,"o":"m 493 38 q 296 -22 399 -22 q 113 26 175 -22 q 50 168 50 75 q 110 304 50 258 q 288 350 171 350 l 460 350 q 324 528 460 528 q 203 511 258 528 l 189 436 l 89 454 l 113 586 q 322 625 221 625 q 516 556 450 625 q 582 354 582 488 l 582 115 l 710 74 l 678 -26 l 493 38 m 292 258 q 205 235 235 258 q 175 167 175 211 q 301 75 175 75 q 460 124 392 75 l 460 257 l 292 258 m 475 844 l 317 1013 l 407 1079 l 532 885 l 475 844 m 332 892 l 544 749 l 508 685 l 332 779 l 154 688 l 114 749 l 332 892 z "},"ẩ":{"ha":739,"x_min":50,"x_max":710,"o":"m 493 38 q 296 -22 399 -22 q 113 26 175 -22 q 50 168 50 75 q 110 304 50 258 q 288 350 171 350 l 460 350 q 324 528 460 528 q 203 511 258 528 l 189 436 l 89 454 l 113 586 q 322 625 221 625 q 516 556 450 625 q 582 354 582 488 l 582 115 l 710 74 l 678 -26 l 493 38 m 292 258 q 205 235 235 258 q 175 167 175 211 q 301 75 175 75 q 460 124 392 75 l 460 257 l 292 258 m 332 892 l 544 749 l 508 685 l 332 779 l 154 688 l 114 749 l 332 892 m 460 871 q 494 912 482 889 q 507 956 507 935 q 497 986 507 975 q 465 997 486 997 q 399 960 431 997 l 346 1019 q 409 1069 374 1053 q 482 1086 444 1086 q 567 1056 533 1086 q 601 971 601 1025 q 499 826 601 896 l 460 871 z "},"ẫ":{"ha":739,"x_min":50,"x_max":710,"o":"m 493 38 q 296 -22 399 -22 q 113 26 175 -22 q 50 168 50 75 q 110 304 50 258 q 288 350 171 350 l 460 350 q 324 528 460 528 q 203 511 258 528 l 189 436 l 89 454 l 113 586 q 322 625 221 625 q 516 556 450 625 q 582 354 582 488 l 582 115 l 710 74 l 678 -26 l 493 38 m 292 258 q 205 235 235 258 q 175 167 175 211 q 301 75 175 75 q 460 124 392 75 l 460 257 l 292 258 m 115 1010 q 192 1054 163 1042 q 265 1067 222 1067 q 318 1058 294 1067 q 369 1035 342 1050 q 409 1017 394 1022 q 442 1011 424 1011 q 481 1020 464 1011 q 536 1056 499 1029 l 560 976 q 492 929 521 942 q 428 917 464 917 q 388 924 407 917 q 344 946 369 932 q 300 967 319 960 q 261 974 281 974 q 212 967 232 974 q 169 950 192 961 q 136 935 146 939 l 115 1010 m 332 892 l 544 749 l 508 685 l 332 779 l 154 688 l 114 749 l 332 892 z "},"ȁ":{"ha":739,"x_min":-7,"x_max":710,"o":"m 493 38 q 296 -22 399 -22 q 113 26 175 -22 q 50 168 50 75 q 110 304 50 258 q 288 350 171 350 l 460 350 q 324 528 460 528 q 203 511 258 528 l 189 436 l 89 454 l 113 586 q 322 625 221 625 q 516 556 450 625 q 582 354 582 488 l 582 115 l 710 74 l 678 -26 l 493 38 m 292 258 q 205 235 235 258 q 175 167 175 211 q 301 75 175 75 q 460 124 392 75 l 460 257 l 292 258 m 310 983 l 486 722 l 431 682 l 221 917 l 310 983 m 67 956 l 289 732 l 242 682 l -7 874 l 67 956 z "},"ä":{"ha":739,"x_min":50,"x_max":710,"o":"m 493 38 q 296 -22 399 -22 q 113 26 175 -22 q 50 168 50 75 q 110 304 50 258 q 288 350 171 350 l 460 350 q 324 528 460 528 q 203 511 258 528 l 189 436 l 89 454 l 113 586 q 322 625 221 625 q 516 556 450 625 q 582 354 582 488 l 582 115 l 710 74 l 678 -26 l 493 38 m 292 258 q 205 235 235 258 q 175 167 175 211 q 301 75 175 75 q 460 124 392 75 l 460 257 l 292 258 m 203 875 q 261 850 236 875 q 286 792 286 825 q 261 734 286 758 q 203 710 236 710 q 145 734 169 710 q 121 792 121 758 q 145 850 121 825 q 203 875 169 875 m 456 875 q 513 850 489 875 q 538 792 538 825 q 513 734 538 758 q 456 710 489 710 q 397 734 421 710 q 372 792 372 758 q 397 850 372 825 q 456 875 421 875 z "},"ạ":{"ha":739,"x_min":50,"x_max":710,"o":"m 493 38 q 296 -22 399 -22 q 113 26 175 -22 q 50 168 50 75 q 110 304 50 258 q 288 350 171 350 l 460 350 q 324 528 460 528 q 203 511 258 528 l 189 436 l 89 454 l 113 586 q 322 625 221 625 q 516 556 450 625 q 582 354 582 488 l 582 115 l 710 74 l 678 -26 l 493 38 m 292 258 q 205 235 235 258 q 175 167 175 211 q 301 75 175 75 q 460 124 392 75 l 460 257 l 292 258 m 357 -81 q 421 -106 396 -81 q 446 -169 446 -131 q 421 -234 446 -210 q 357 -258 396 -258 q 294 -234 318 -258 q 269 -169 269 -210 q 294 -105 269 -129 q 357 -81 318 -81 z "},"à":{"ha":739,"x_min":50,"x_max":710,"o":"m 493 38 q 296 -22 399 -22 q 113 26 175 -22 q 50 168 50 75 q 110 304 50 258 q 288 350 171 350 l 460 350 q 324 528 460 528 q 203 511 258 528 l 189 436 l 89 454 l 113 586 q 322 625 221 625 q 516 556 450 625 q 582 354 582 488 l 582 115 l 710 74 l 678 -26 l 493 38 m 292 258 q 205 235 235 258 q 175 167 175 211 q 301 75 175 75 q 460 124 392 75 l 460 257 l 292 258 m 324 682 l 114 917 l 203 983 l 379 722 l 324 682 z "},"ả":{"ha":739,"x_min":50,"x_max":710,"o":"m 493 38 q 296 -22 399 -22 q 113 26 175 -22 q 50 168 50 75 q 110 304 50 258 q 288 350 171 350 l 460 350 q 324 528 460 528 q 203 511 258 528 l 189 436 l 89 454 l 113 586 q 322 625 221 625 q 516 556 450 625 q 582 354 582 488 l 582 115 l 710 74 l 678 -26 l 493 38 m 292 258 q 205 235 235 258 q 175 167 175 211 q 301 75 175 75 q 460 124 392 75 l 460 257 l 292 258 m 307 719 q 342 760 329 738 q 354 804 354 783 q 344 835 354 824 q 313 846 333 846 q 246 808 278 846 l 193 868 q 256 918 221 901 q 329 935 292 935 q 415 904 381 935 q 449 819 449 874 q 346 675 449 744 l 307 719 z "},"ȃ":{"ha":739,"x_min":50,"x_max":710,"o":"m 493 38 q 296 -22 399 -22 q 113 26 175 -22 q 50 168 50 75 q 110 304 50 258 q 288 350 171 350 l 460 350 q 324 528 460 528 q 203 511 258 528 l 189 436 l 89 454 l 113 586 q 322 625 221 625 q 516 556 450 625 q 582 354 582 488 l 582 115 l 710 74 l 678 -26 l 493 38 m 292 258 q 205 235 235 258 q 175 167 175 211 q 301 75 175 75 q 460 124 392 75 l 460 257 l 292 258 m 328 896 q 480 851 422 896 q 553 721 538 807 l 457 706 q 419 778 451 753 q 328 803 386 803 q 200 706 213 803 l 104 721 q 176 851 119 807 q 328 896 233 896 z "},"ā":{"ha":739,"x_min":50,"x_max":710,"o":"m 493 38 q 296 -22 399 -22 q 113 26 175 -22 q 50 168 50 75 q 110 304 50 258 q 288 350 171 350 l 460 350 q 324 528 460 528 q 203 511 258 528 l 189 436 l 89 454 l 113 586 q 322 625 221 625 q 516 556 450 625 q 582 354 582 488 l 582 115 l 710 74 l 678 -26 l 493 38 m 292 258 q 205 235 235 258 q 175 167 175 211 q 301 75 175 75 q 460 124 392 75 l 460 257 l 292 258 m 114 829 l 543 829 l 543 740 l 114 740 l 114 829 z "},"ą":{"ha":739,"x_min":50,"x_max":721,"o":"m 653 -236 q 721 -224 686 -236 l 721 -312 q 607 -339 667 -339 q 492 -304 538 -339 q 446 -211 446 -269 q 488 -96 446 -146 q 621 -7 531 -46 l 493 38 q 296 -22 399 -22 q 113 26 175 -22 q 50 168 50 75 q 110 304 50 258 q 288 350 171 350 l 460 350 q 324 528 460 528 q 203 511 258 528 l 189 436 l 89 454 l 113 586 q 322 625 221 625 q 516 556 450 625 q 582 354 582 488 l 582 115 l 710 74 l 678 -25 l 679 -26 q 596 -93 622 -57 q 569 -172 569 -129 q 592 -219 569 -203 q 653 -236 614 -236 m 460 257 l 292 258 q 205 235 235 258 q 175 167 175 211 q 301 75 175 75 q 460 124 392 75 l 460 257 z "},"å":{"ha":739,"x_min":50,"x_max":710,"o":"m 493 38 q 296 -22 399 -22 q 113 26 175 -22 q 50 168 50 75 q 110 304 50 258 q 288 350 171 350 l 460 350 q 324 528 460 528 q 203 511 258 528 l 189 436 l 89 454 l 113 586 q 322 625 221 625 q 516 556 450 625 q 582 354 582 488 l 582 115 l 710 74 l 678 -26 l 493 38 m 292 258 q 205 235 235 258 q 175 167 175 211 q 301 75 175 75 q 460 124 392 75 l 460 257 l 292 258 m 328 950 q 421 915 386 950 q 456 824 456 881 q 421 732 456 767 q 328 697 386 697 q 237 732 271 697 q 203 824 203 767 q 237 915 203 881 q 328 950 271 950 m 328 882 q 287 865 303 882 q 271 824 271 849 q 287 781 271 797 q 328 765 303 765 q 370 781 354 765 q 386 824 386 797 q 370 865 386 849 q 328 882 354 882 z "},"ǻ":{"ha":739,"x_min":50,"x_max":710,"o":"m 493 38 q 296 -22 399 -22 q 113 26 175 -22 q 50 168 50 75 q 110 304 50 258 q 288 350 171 350 l 460 350 q 324 528 460 528 q 203 511 258 528 l 189 436 l 89 454 l 113 586 q 322 625 221 625 q 516 556 450 625 q 582 354 582 488 l 582 115 l 710 74 l 678 -26 l 493 38 m 292 258 q 205 235 235 258 q 175 167 175 211 q 301 75 175 75 q 460 124 392 75 l 460 257 l 292 258 m 328 950 q 421 915 386 950 q 456 824 456 881 q 421 732 456 767 q 328 697 386 697 q 237 732 271 697 q 203 824 203 767 q 237 915 203 881 q 328 950 271 950 m 328 882 q 287 865 303 882 q 271 824 271 849 q 287 781 271 797 q 328 765 303 765 q 370 781 354 765 q 386 824 386 797 q 370 865 386 849 q 328 882 354 882 m 433 1331 l 522 1264 l 313 1029 l 257 1069 l 433 1331 z "},"ã":{"ha":739,"x_min":50,"x_max":710,"o":"m 493 38 q 296 -22 399 -22 q 113 26 175 -22 q 50 168 50 75 q 110 304 50 258 q 288 350 171 350 l 460 350 q 324 528 460 528 q 203 511 258 528 l 189 436 l 89 454 l 113 586 q 322 625 221 625 q 516 556 450 625 q 582 354 582 488 l 582 115 l 710 74 l 678 -26 l 493 38 m 292 258 q 205 235 235 258 q 175 167 175 211 q 301 75 175 75 q 460 124 392 75 l 460 257 l 292 258 m 122 779 q 202 826 171 813 q 279 839 233 839 q 332 831 308 839 q 383 807 356 822 q 422 789 407 794 q 454 783 436 783 q 495 792 478 783 q 550 828 513 801 l 585 747 q 513 698 543 711 q 444 685 483 685 q 405 692 424 685 q 361 714 386 700 q 317 735 335 728 q 279 742 299 742 q 230 735 250 742 q 187 718 210 729 q 154 703 164 707 l 122 779 z "},"æ":{"ha":1089,"x_min":50,"x_max":1031,"o":"m 111 582 q 210 613 165 603 q 317 622 254 622 q 461 588 406 622 q 539 492 517 553 q 641 588 579 553 q 779 622 703 622 q 956 553 886 622 q 1026 342 1026 483 q 1022 269 1026 307 l 579 267 q 634 126 586 175 q 767 76 682 76 q 898 100 844 76 q 975 143 951 124 l 1031 72 q 995 44 1031 68 q 901 -1 960 19 q 765 -22 842 -22 q 540 63 625 -22 q 424 6 497 33 q 296 -22 351 -22 q 116 31 182 -22 q 50 168 50 83 q 116 307 50 261 q 288 353 182 353 l 463 353 q 434 481 463 443 q 322 519 406 519 q 203 504 261 519 l 189 431 l 88 449 l 111 582 m 919 363 q 883 482 918 442 q 774 522 849 522 q 645 480 696 522 q 582 361 594 438 l 919 363 m 292 257 q 206 238 238 257 q 175 167 175 219 q 211 99 175 122 q 301 76 247 76 q 399 94 346 76 q 492 136 453 113 q 461 257 465 192 l 292 257 z "},"ǽ":{"ha":1089,"x_min":50,"x_max":1031,"o":"m 111 582 q 210 613 165 603 q 317 622 254 622 q 461 588 406 622 q 539 492 517 553 q 641 588 579 553 q 779 622 703 622 q 956 553 886 622 q 1026 342 1026 483 q 1022 269 1026 307 l 579 267 q 634 126 586 175 q 767 76 682 76 q 898 100 844 76 q 975 143 951 124 l 1031 72 q 995 44 1031 68 q 901 -1 960 19 q 765 -22 842 -22 q 540 63 625 -22 q 424 6 497 33 q 296 -22 351 -22 q 116 31 182 -22 q 50 168 50 83 q 116 307 50 261 q 288 353 182 353 l 463 353 q 434 481 463 443 q 322 519 406 519 q 203 504 261 519 l 189 431 l 88 449 l 111 582 m 919 363 q 883 482 918 442 q 774 522 849 522 q 645 480 696 522 q 582 361 594 438 l 919 363 m 292 257 q 206 238 238 257 q 175 167 175 219 q 211 99 175 122 q 301 76 247 76 q 399 94 346 76 q 492 136 453 113 q 461 257 465 192 l 292 257 m 651 983 l 740 917 l 531 682 l 475 722 l 651 983 z "},"b":{"ha":729,"x_min":-42,"x_max":669,"o":"m 361 -22 q 214 -3 283 -22 q 92 56 144 17 l 92 765 l -42 811 l -8 910 l 213 835 l 213 581 q 371 625 293 625 q 596 549 522 625 q 669 315 669 472 q 594 60 669 143 q 361 -22 518 -22 m 360 78 q 499 136 454 78 q 544 315 544 194 q 501 474 544 422 q 369 525 458 525 q 213 475 292 525 l 213 108 q 360 78 272 78 z "},"c":{"ha":663,"x_min":56,"x_max":613,"o":"m 493 513 q 376 531 435 531 q 232 472 283 531 q 181 300 181 414 q 236 138 181 196 q 376 79 292 79 q 556 139 469 79 l 607 64 q 494 -2 544 18 q 365 -22 444 -22 q 140 64 225 -22 q 56 300 56 150 q 97 478 56 404 q 210 590 138 551 q 378 628 283 628 q 474 618 428 628 q 589 586 519 608 l 613 428 l 511 406 l 493 513 z "},"ć":{"ha":663,"x_min":56,"x_max":613,"o":"m 493 513 q 376 531 435 531 q 232 472 283 531 q 181 300 181 414 q 236 138 181 196 q 376 79 292 79 q 556 139 469 79 l 607 64 q 494 -2 544 18 q 365 -22 444 -22 q 140 64 225 -22 q 56 300 56 150 q 97 478 56 404 q 210 590 138 551 q 378 628 283 628 q 474 618 428 628 q 589 586 519 608 l 613 428 l 511 406 l 493 513 m 482 983 l 571 917 l 361 682 l 306 722 l 482 983 z "},"č":{"ha":663,"x_min":56,"x_max":613,"o":"m 493 513 q 376 531 435 531 q 232 472 283 531 q 181 300 181 414 q 236 138 181 196 q 376 79 292 79 q 556 139 469 79 l 607 64 q 494 -2 544 18 q 365 -22 444 -22 q 140 64 225 -22 q 56 300 56 150 q 97 478 56 404 q 210 590 138 551 q 378 628 283 628 q 474 618 428 628 q 589 586 519 608 l 613 428 l 511 406 l 493 513 m 381 671 l 163 814 l 203 875 l 381 783 l 557 878 l 593 814 l 381 671 z "},"ç":{"ha":663,"x_min":56,"x_max":613,"o":"m 607 64 q 519 8 557 26 q 431 -18 481 -11 l 431 -83 q 588 -194 588 -81 q 544 -283 588 -251 q 429 -314 501 -314 q 338 -297 374 -314 q 274 -260 301 -279 l 308 -204 q 365 -231 332 -221 q 426 -242 397 -242 q 499 -193 499 -242 q 479 -157 499 -168 q 413 -146 460 -146 l 353 -146 l 353 -22 q 137 67 218 -18 q 56 300 56 153 q 97 478 56 404 q 210 590 138 551 q 378 628 283 628 q 474 618 428 628 q 589 586 519 608 l 613 428 l 511 406 l 493 513 q 376 531 435 531 q 232 472 283 531 q 181 300 181 414 q 236 138 181 196 q 376 79 292 79 q 556 139 469 79 l 607 64 z "},"ḉ":{"ha":663,"x_min":56,"x_max":613,"o":"m 571 917 l 361 682 l 306 722 l 482 983 l 571 917 m 607 64 q 519 8 557 26 q 431 -18 481 -11 l 431 -83 q 588 -194 588 -81 q 544 -283 588 -251 q 429 -314 501 -314 q 338 -297 374 -314 q 274 -260 301 -279 l 308 -204 q 365 -231 332 -221 q 426 -242 397 -242 q 499 -193 499 -242 q 479 -157 499 -168 q 413 -146 460 -146 l 353 -146 l 353 -22 q 137 67 218 -18 q 56 300 56 153 q 97 478 56 404 q 210 590 138 551 q 378 628 283 628 q 474 618 428 628 q 589 586 519 608 l 613 428 l 511 406 l 493 513 q 376 531 435 531 q 232 472 283 531 q 181 300 181 414 q 236 138 181 196 q 376 79 292 79 q 556 139 469 79 l 607 64 z "},"ĉ":{"ha":663,"x_min":56,"x_max":613,"o":"m 493 513 q 376 531 435 531 q 232 472 283 531 q 181 300 181 414 q 236 138 181 196 q 376 79 292 79 q 556 139 469 79 l 607 64 q 494 -2 544 18 q 365 -22 444 -22 q 140 64 225 -22 q 56 300 56 150 q 97 478 56 404 q 210 590 138 551 q 378 628 283 628 q 474 618 428 628 q 589 586 519 608 l 613 428 l 511 406 l 493 513 m 381 892 l 593 749 l 557 685 l 381 779 l 203 688 l 163 749 l 381 892 z "},"ċ":{"ha":663,"x_min":56,"x_max":613,"o":"m 493 513 q 376 531 435 531 q 232 472 283 531 q 181 300 181 414 q 236 138 181 196 q 376 79 292 79 q 556 139 469 79 l 607 64 q 494 -2 544 18 q 365 -22 444 -22 q 140 64 225 -22 q 56 300 56 150 q 97 478 56 404 q 210 590 138 551 q 378 628 283 628 q 474 618 428 628 q 589 586 519 608 l 613 428 l 511 406 l 493 513 m 376 900 q 440 876 415 900 q 465 811 465 851 q 440 747 465 772 q 376 722 415 722 q 313 747 338 722 q 289 811 289 771 q 313 876 289 851 q 376 900 338 900 z "},"d":{"ha":792,"x_min":57,"x_max":763,"o":"m 549 38 q 460 -6 508 10 q 367 -22 413 -22 q 138 66 219 -22 q 57 313 57 154 q 138 542 57 460 q 367 625 219 625 q 514 597 443 625 l 514 765 l 381 811 l 414 910 l 636 835 l 636 119 l 763 75 l 731 -26 l 549 38 m 368 78 q 440 90 400 78 q 514 124 481 103 l 514 493 q 444 516 483 507 q 368 525 404 525 q 233 467 285 525 q 182 314 182 408 q 233 142 182 207 q 368 78 285 78 z "},"ð":{"ha":739,"x_min":54,"x_max":676,"o":"m 418 806 q 601 624 529 747 q 676 364 674 500 q 635 148 676 235 q 524 19 594 61 q 364 -24 454 -24 q 209 12 279 -24 q 97 120 139 47 q 54 299 54 193 q 94 464 54 393 q 203 572 133 535 q 358 610 272 610 q 500 583 440 610 q 351 733 446 674 l 289 664 l 225 725 l 271 776 q 138 829 213 803 l 158 911 q 258 881 211 896 q 338 849 304 865 l 401 921 l 465 858 l 418 806 m 368 515 q 227 458 275 515 q 179 296 179 401 q 226 133 179 189 q 365 76 274 76 q 504 147 456 76 q 553 342 553 217 q 533 471 553 400 q 460 503 506 490 q 368 515 415 515 z "},"ď":{"ha":792,"x_min":57,"x_max":788,"o":"m 549 38 q 460 -6 508 10 q 367 -22 413 -22 q 138 66 219 -22 q 57 313 57 154 q 138 542 57 460 q 367 625 219 625 q 514 597 443 625 l 514 765 l 381 811 l 414 910 l 636 835 l 636 119 l 763 75 l 731 -26 l 549 38 m 368 78 q 440 90 400 78 q 514 124 481 103 l 514 493 q 444 516 483 507 q 368 525 404 525 q 233 467 285 525 q 182 314 182 408 q 233 142 182 207 q 368 78 285 78 m 575 899 l 357 1042 l 397 1103 l 575 1011 l 751 1106 l 788 1042 l 575 899 z "},"đ":{"ha":792,"x_min":57,"x_max":763,"o":"m 763 75 l 731 -26 l 549 38 q 460 -6 508 10 q 367 -22 413 -22 q 138 62 219 -22 q 57 296 57 146 q 139 517 57 436 q 367 597 221 597 q 514 569 438 597 l 514 644 l 313 644 l 313 728 l 514 728 l 514 765 l 381 811 l 414 910 l 636 835 l 636 728 l 747 728 l 747 644 l 636 644 l 636 119 l 763 75 m 514 464 q 444 488 485 479 q 368 497 404 497 q 233 441 285 497 q 182 297 182 385 q 233 138 182 197 q 368 78 285 78 q 514 124 440 78 l 514 464 z "},"ḍ":{"ha":792,"x_min":57,"x_max":763,"o":"m 549 38 q 460 -6 508 10 q 367 -22 413 -22 q 138 66 219 -22 q 57 313 57 154 q 138 542 57 460 q 367 625 219 625 q 514 597 443 625 l 514 765 l 381 811 l 414 910 l 636 835 l 636 119 l 763 75 l 731 -26 l 549 38 m 368 78 q 440 90 400 78 q 514 124 481 103 l 514 493 q 444 516 483 507 q 368 525 404 525 q 233 467 285 525 q 182 314 182 408 q 233 142 182 207 q 368 78 285 78 m 404 -81 q 468 -106 443 -81 q 493 -169 493 -131 q 468 -234 493 -210 q 404 -258 443 -258 q 341 -234 365 -258 q 317 -169 317 -210 q 341 -105 317 -129 q 404 -81 365 -81 z "},"ḏ":{"ha":792,"x_min":57,"x_max":763,"o":"m 549 38 q 460 -6 508 10 q 367 -22 413 -22 q 138 66 219 -22 q 57 313 57 154 q 138 542 57 460 q 367 625 219 625 q 514 597 443 625 l 514 765 l 381 811 l 414 910 l 636 835 l 636 119 l 763 75 l 731 -26 l 549 38 m 368 78 q 440 90 400 78 q 514 124 481 103 l 514 493 q 444 516 483 507 q 368 525 404 525 q 233 467 285 525 q 182 314 182 408 q 233 142 182 207 q 368 78 285 78 m 188 -61 l 622 -61 l 622 -153 l 188 -153 l 188 -61 z "},"e":{"ha":693,"x_min":53,"x_max":643,"o":"m 631 72 q 512 1 572 24 q 381 -22 451 -22 q 141 65 229 -22 q 53 301 53 151 q 91 471 53 397 q 199 585 129 544 q 361 625 269 625 q 567 544 492 625 q 643 329 643 464 q 639 269 643 299 l 172 267 q 235 125 178 172 q 378 78 293 78 q 579 146 494 78 l 631 72 m 522 360 q 478 483 521 436 q 363 529 435 529 q 237 482 290 529 q 174 360 183 435 l 522 360 z "},"é":{"ha":693,"x_min":53,"x_max":643,"o":"m 631 72 q 512 1 572 24 q 381 -22 451 -22 q 141 65 229 -22 q 53 301 53 151 q 91 471 53 397 q 199 585 129 544 q 361 625 269 625 q 567 544 492 625 q 643 329 643 464 q 639 269 643 299 l 172 267 q 235 125 178 172 q 378 78 293 78 q 579 146 494 78 l 631 72 m 522 360 q 478 483 521 436 q 363 529 435 529 q 237 482 290 529 q 174 360 183 435 l 522 360 m 461 983 l 550 917 l 340 682 l 285 722 l 461 983 z "},"ĕ":{"ha":693,"x_min":53,"x_max":643,"o":"m 631 72 q 512 1 572 24 q 381 -22 451 -22 q 141 65 229 -22 q 53 301 53 151 q 91 471 53 397 q 199 585 129 544 q 361 625 269 625 q 567 544 492 625 q 643 329 643 464 q 639 269 643 299 l 172 267 q 235 125 178 172 q 378 78 293 78 q 579 146 494 78 l 631 72 m 522 360 q 478 483 521 436 q 363 529 435 529 q 237 482 290 529 q 174 360 183 435 l 522 360 m 356 690 q 204 735 261 690 q 132 865 147 779 l 228 881 q 356 783 240 783 q 447 808 414 783 q 485 881 479 833 l 581 865 q 508 735 565 779 q 356 690 450 690 z "},"ě":{"ha":693,"x_min":53,"x_max":643,"o":"m 631 72 q 512 1 572 24 q 381 -22 451 -22 q 141 65 229 -22 q 53 301 53 151 q 91 471 53 397 q 199 585 129 544 q 361 625 269 625 q 567 544 492 625 q 643 329 643 464 q 639 269 643 299 l 172 267 q 235 125 178 172 q 378 78 293 78 q 579 146 494 78 l 631 72 m 522 360 q 478 483 521 436 q 363 529 435 529 q 237 482 290 529 q 174 360 183 435 l 522 360 m 360 671 l 142 814 l 182 875 l 360 783 l 536 878 l 572 814 l 360 671 z "},"ḝ":{"ha":693,"x_min":53,"x_max":643,"o":"m 356 690 q 204 735 261 690 q 132 865 147 779 l 228 881 q 356 783 240 783 q 447 808 414 783 q 485 881 479 833 l 581 865 q 508 735 565 779 q 356 690 450 690 m 643 329 q 639 269 643 299 l 172 267 q 235 125 178 172 q 378 78 293 78 q 579 146 494 78 l 631 72 q 424 -19 532 -10 l 424 -83 q 581 -194 581 -81 q 538 -283 581 -251 q 422 -314 494 -314 q 331 -297 367 -314 q 267 -260 294 -279 l 301 -204 q 358 -231 325 -221 q 419 -242 390 -242 q 492 -193 492 -242 q 472 -157 492 -168 q 406 -146 453 -146 l 346 -146 l 346 -21 q 131 76 210 -10 q 53 301 53 161 q 91 471 53 397 q 199 585 129 544 q 361 625 269 625 q 567 544 492 625 q 643 329 643 464 m 522 360 q 478 483 521 436 q 363 529 435 529 q 237 482 290 529 q 174 360 183 435 l 522 360 z "},"ê":{"ha":693,"x_min":53,"x_max":643,"o":"m 631 72 q 512 1 572 24 q 381 -22 451 -22 q 141 65 229 -22 q 53 301 53 151 q 91 471 53 397 q 199 585 129 544 q 361 625 269 625 q 567 544 492 625 q 643 329 643 464 q 639 269 643 299 l 172 267 q 235 125 178 172 q 378 78 293 78 q 579 146 494 78 l 631 72 m 522 360 q 478 483 521 436 q 363 529 435 529 q 237 482 290 529 q 174 360 183 435 l 522 360 m 360 892 l 572 749 l 536 685 l 360 779 l 182 688 l 142 749 l 360 892 z "},"ế":{"ha":693,"x_min":53,"x_max":651,"o":"m 631 72 q 512 1 572 24 q 381 -22 451 -22 q 141 65 229 -22 q 53 301 53 151 q 91 471 53 397 q 199 585 129 544 q 361 625 269 625 q 567 544 492 625 q 643 329 643 464 q 639 269 643 299 l 172 267 q 235 125 178 172 q 378 78 293 78 q 579 146 494 78 l 631 72 m 522 360 q 478 483 521 436 q 363 529 435 529 q 237 482 290 529 q 174 360 183 435 l 522 360 m 563 1081 l 651 1014 l 493 844 l 438 885 l 563 1081 m 360 892 l 572 749 l 536 685 l 360 779 l 182 688 l 142 749 l 360 892 z "},"ệ":{"ha":693,"x_min":53,"x_max":643,"o":"m 631 72 q 512 1 572 24 q 381 -22 451 -22 q 141 65 229 -22 q 53 301 53 151 q 91 471 53 397 q 199 585 129 544 q 361 625 269 625 q 567 544 492 625 q 643 329 643 464 q 639 269 643 299 l 172 267 q 235 125 178 172 q 378 78 293 78 q 579 146 494 78 l 631 72 m 522 360 q 478 483 521 436 q 363 529 435 529 q 237 482 290 529 q 174 360 183 435 l 522 360 m 344 -81 q 408 -106 383 -81 q 433 -169 433 -131 q 408 -234 433 -210 q 344 -258 383 -258 q 281 -234 306 -258 q 257 -169 257 -210 q 281 -105 257 -129 q 344 -81 306 -81 m 360 892 l 572 749 l 536 685 l 360 779 l 182 688 l 142 749 l 360 892 z "},"ề":{"ha":693,"x_min":53,"x_max":643,"o":"m 631 72 q 512 1 572 24 q 381 -22 451 -22 q 141 65 229 -22 q 53 301 53 151 q 91 471 53 397 q 199 585 129 544 q 361 625 269 625 q 567 544 492 625 q 643 329 643 464 q 639 269 643 299 l 172 267 q 235 125 178 172 q 378 78 293 78 q 579 146 494 78 l 631 72 m 522 360 q 478 483 521 436 q 363 529 435 529 q 237 482 290 529 q 174 360 183 435 l 522 360 m 503 844 l 344 1013 l 435 1079 l 560 885 l 503 844 m 360 892 l 572 749 l 536 685 l 360 779 l 182 688 l 142 749 l 360 892 z "},"ể":{"ha":693,"x_min":53,"x_max":643,"o":"m 631 72 q 512 1 572 24 q 381 -22 451 -22 q 141 65 229 -22 q 53 301 53 151 q 91 471 53 397 q 199 585 129 544 q 361 625 269 625 q 567 544 492 625 q 643 329 643 464 q 639 269 643 299 l 172 267 q 235 125 178 172 q 378 78 293 78 q 579 146 494 78 l 631 72 m 522 360 q 478 483 521 436 q 363 529 435 529 q 237 482 290 529 q 174 360 183 435 l 522 360 m 360 892 l 572 749 l 536 685 l 360 779 l 182 688 l 142 749 l 360 892 m 488 871 q 522 912 510 889 q 535 956 535 935 q 524 986 535 975 q 493 997 514 997 q 426 960 458 997 l 374 1019 q 437 1069 401 1053 q 510 1086 472 1086 q 595 1056 561 1086 q 629 971 629 1025 q 526 826 629 896 l 488 871 z "},"ễ":{"ha":693,"x_min":53,"x_max":643,"o":"m 631 72 q 512 1 572 24 q 381 -22 451 -22 q 141 65 229 -22 q 53 301 53 151 q 91 471 53 397 q 199 585 129 544 q 361 625 269 625 q 567 544 492 625 q 643 329 643 464 q 639 269 643 299 l 172 267 q 235 125 178 172 q 378 78 293 78 q 579 146 494 78 l 631 72 m 522 360 q 478 483 521 436 q 363 529 435 529 q 237 482 290 529 q 174 360 183 435 l 522 360 m 143 1010 q 220 1054 190 1042 q 293 1067 250 1067 q 346 1058 322 1067 q 397 1035 369 1050 q 437 1017 422 1022 q 469 1011 451 1011 q 509 1020 492 1011 q 564 1056 526 1029 l 588 976 q 520 929 549 942 q 456 917 492 917 q 416 924 435 917 q 372 946 397 932 q 328 967 347 960 q 289 974 308 974 q 240 967 260 974 q 197 950 219 961 q 164 935 174 939 l 143 1010 m 360 892 l 572 749 l 536 685 l 360 779 l 182 688 l 142 749 l 360 892 z "},"ȅ":{"ha":693,"x_min":21,"x_max":643,"o":"m 631 72 q 512 1 572 24 q 381 -22 451 -22 q 141 65 229 -22 q 53 301 53 151 q 91 471 53 397 q 199 585 129 544 q 361 625 269 625 q 567 544 492 625 q 643 329 643 464 q 639 269 643 299 l 172 267 q 235 125 178 172 q 378 78 293 78 q 579 146 494 78 l 631 72 m 522 360 q 478 483 521 436 q 363 529 435 529 q 237 482 290 529 q 174 360 183 435 l 522 360 m 338 983 l 514 722 l 458 682 l 249 917 l 338 983 m 94 956 l 317 732 l 269 682 l 21 874 l 94 956 z "},"ë":{"ha":693,"x_min":53,"x_max":643,"o":"m 631 72 q 512 1 572 24 q 381 -22 451 -22 q 141 65 229 -22 q 53 301 53 151 q 91 471 53 397 q 199 585 129 544 q 361 625 269 625 q 567 544 492 625 q 643 329 643 464 q 639 269 643 299 l 172 267 q 235 125 178 172 q 378 78 293 78 q 579 146 494 78 l 631 72 m 522 360 q 478 483 521 436 q 363 529 435 529 q 237 482 290 529 q 174 360 183 435 l 522 360 m 231 875 q 289 850 264 875 q 314 792 314 825 q 289 734 314 758 q 231 710 264 710 q 173 734 197 710 q 149 792 149 758 q 173 850 149 825 q 231 875 197 875 m 483 875 q 541 850 517 875 q 565 792 565 825 q 541 734 565 758 q 483 710 517 710 q 424 734 449 710 q 400 792 400 758 q 424 850 400 825 q 483 875 449 875 z "},"ė":{"ha":693,"x_min":53,"x_max":643,"o":"m 631 72 q 512 1 572 24 q 381 -22 451 -22 q 141 65 229 -22 q 53 301 53 151 q 91 471 53 397 q 199 585 129 544 q 361 625 269 625 q 567 544 492 625 q 643 329 643 464 q 639 269 643 299 l 172 267 q 235 125 178 172 q 378 78 293 78 q 579 146 494 78 l 631 72 m 522 360 q 478 483 521 436 q 363 529 435 529 q 237 482 290 529 q 174 360 183 435 l 522 360 m 356 900 q 419 876 394 900 q 444 811 444 851 q 419 747 444 772 q 356 722 394 722 q 292 747 317 722 q 268 811 268 771 q 292 876 268 851 q 356 900 317 900 z "},"ẹ":{"ha":693,"x_min":53,"x_max":643,"o":"m 631 72 q 512 1 572 24 q 381 -22 451 -22 q 141 65 229 -22 q 53 301 53 151 q 91 471 53 397 q 199 585 129 544 q 361 625 269 625 q 567 544 492 625 q 643 329 643 464 q 639 269 643 299 l 172 267 q 235 125 178 172 q 378 78 293 78 q 579 146 494 78 l 631 72 m 522 360 q 478 483 521 436 q 363 529 435 529 q 237 482 290 529 q 174 360 183 435 l 522 360 m 344 -81 q 408 -106 383 -81 q 433 -169 433 -131 q 408 -234 433 -210 q 344 -258 383 -258 q 281 -234 306 -258 q 257 -169 257 -210 q 281 -105 257 -129 q 344 -81 306 -81 z "},"è":{"ha":693,"x_min":53,"x_max":643,"o":"m 631 72 q 512 1 572 24 q 381 -22 451 -22 q 141 65 229 -22 q 53 301 53 151 q 91 471 53 397 q 199 585 129 544 q 361 625 269 625 q 567 544 492 625 q 643 329 643 464 q 639 269 643 299 l 172 267 q 235 125 178 172 q 378 78 293 78 q 579 146 494 78 l 631 72 m 522 360 q 478 483 521 436 q 363 529 435 529 q 237 482 290 529 q 174 360 183 435 l 522 360 m 351 682 l 142 917 l 231 983 l 407 722 l 351 682 z "},"ẻ":{"ha":693,"x_min":53,"x_max":643,"o":"m 631 72 q 512 1 572 24 q 381 -22 451 -22 q 141 65 229 -22 q 53 301 53 151 q 91 471 53 397 q 199 585 129 544 q 361 625 269 625 q 567 544 492 625 q 643 329 643 464 q 639 269 643 299 l 172 267 q 235 125 178 172 q 378 78 293 78 q 579 146 494 78 l 631 72 m 522 360 q 478 483 521 436 q 363 529 435 529 q 237 482 290 529 q 174 360 183 435 l 522 360 m 335 719 q 369 760 357 738 q 382 804 382 783 q 372 835 382 824 q 340 846 361 846 q 274 808 306 846 l 221 868 q 284 918 249 901 q 357 935 319 935 q 442 904 408 935 q 476 819 476 874 q 374 675 476 744 l 335 719 z "},"ȇ":{"ha":693,"x_min":53,"x_max":643,"o":"m 631 72 q 512 1 572 24 q 381 -22 451 -22 q 141 65 229 -22 q 53 301 53 151 q 91 471 53 397 q 199 585 129 544 q 361 625 269 625 q 567 544 492 625 q 643 329 643 464 q 639 269 643 299 l 172 267 q 235 125 178 172 q 378 78 293 78 q 579 146 494 78 l 631 72 m 522 360 q 478 483 521 436 q 363 529 435 529 q 237 482 290 529 q 174 360 183 435 l 522 360 m 356 896 q 508 851 450 896 q 581 721 565 807 l 485 706 q 447 778 479 753 q 356 803 414 803 q 228 706 240 803 l 132 721 q 204 851 147 807 q 356 896 261 896 z "},"ē":{"ha":693,"x_min":53,"x_max":643,"o":"m 631 72 q 512 1 572 24 q 381 -22 451 -22 q 141 65 229 -22 q 53 301 53 151 q 91 471 53 397 q 199 585 129 544 q 361 625 269 625 q 567 544 492 625 q 643 329 643 464 q 639 269 643 299 l 172 267 q 235 125 178 172 q 378 78 293 78 q 579 146 494 78 l 631 72 m 522 360 q 478 483 521 436 q 363 529 435 529 q 237 482 290 529 q 174 360 183 435 l 522 360 m 142 829 l 571 829 l 571 740 l 142 740 l 142 829 z "},"ḗ":{"ha":693,"x_min":53,"x_max":643,"o":"m 631 72 q 512 1 572 24 q 381 -22 451 -22 q 141 65 229 -22 q 53 301 53 151 q 91 471 53 397 q 199 585 129 544 q 361 625 269 625 q 567 544 492 625 q 643 329 643 464 q 639 269 643 299 l 172 267 q 235 125 178 172 q 378 78 293 78 q 579 146 494 78 l 631 72 m 522 360 q 478 483 521 436 q 363 529 435 529 q 237 482 290 529 q 174 360 183 435 l 522 360 m 142 829 l 571 829 l 571 740 l 142 740 l 142 829 m 482 1190 l 571 1124 l 361 889 l 306 929 l 482 1190 z "},"ḕ":{"ha":693,"x_min":53,"x_max":643,"o":"m 631 72 q 512 1 572 24 q 381 -22 451 -22 q 141 65 229 -22 q 53 301 53 151 q 91 471 53 397 q 199 585 129 544 q 361 625 269 625 q 567 544 492 625 q 643 329 643 464 q 639 269 643 299 l 172 267 q 235 125 178 172 q 378 78 293 78 q 579 146 494 78 l 631 72 m 522 360 q 478 483 521 436 q 363 529 435 529 q 237 482 290 529 q 174 360 183 435 l 522 360 m 142 829 l 571 829 l 571 740 l 142 740 l 142 829 m 371 889 l 161 1124 l 250 1190 l 426 929 l 371 889 z "},"ę":{"ha":693,"x_min":53,"x_max":643,"o":"m 643 329 q 639 269 643 299 l 172 267 q 235 125 178 172 q 378 78 293 78 q 579 146 494 78 l 631 72 q 549 17 594 42 q 471 -110 471 -35 q 493 -157 471 -140 q 554 -174 515 -174 q 622 -161 588 -174 l 622 -250 q 508 -276 568 -276 q 393 -242 439 -276 q 347 -149 347 -207 q 400 -22 347 -75 l 381 -22 q 141 65 229 -22 q 53 301 53 151 q 91 471 53 397 q 199 585 129 544 q 361 625 269 625 q 567 544 492 625 q 643 329 643 464 m 522 360 q 478 483 521 436 q 363 529 435 529 q 237 482 290 529 q 174 360 183 435 l 522 360 z "},"ẽ":{"ha":693,"x_min":53,"x_max":643,"o":"m 631 72 q 512 1 572 24 q 381 -22 451 -22 q 141 65 229 -22 q 53 301 53 151 q 91 471 53 397 q 199 585 129 544 q 361 625 269 625 q 567 544 492 625 q 643 329 643 464 q 639 269 643 299 l 172 267 q 235 125 178 172 q 378 78 293 78 q 579 146 494 78 l 631 72 m 522 360 q 478 483 521 436 q 363 529 435 529 q 237 482 290 529 q 174 360 183 435 l 522 360 m 150 779 q 230 826 199 813 q 307 839 261 839 q 360 831 336 839 q 411 807 383 822 q 449 789 435 794 q 482 783 464 783 q 523 792 506 783 q 578 828 540 801 l 613 747 q 541 698 571 711 q 472 685 511 685 q 433 692 451 685 q 389 714 414 700 q 344 735 363 728 q 307 742 326 742 q 258 735 278 742 q 215 718 238 729 q 182 703 192 707 l 150 779 z "},"ə":{"ha":693,"x_min":50,"x_max":640,"o":"m 63 531 q 181 602 121 579 q 313 625 242 625 q 552 538 464 625 q 640 301 640 451 q 602 132 640 206 q 494 18 564 58 q 332 -22 424 -22 q 126 58 201 -22 q 50 274 50 139 q 54 333 50 304 l 521 336 q 458 478 515 431 q 315 525 400 525 q 114 457 199 525 l 63 531 m 171 243 q 215 120 172 167 q 331 74 258 74 q 456 121 403 74 q 519 243 510 168 l 171 243 z "},"f":{"ha":501,"x_min":53,"x_max":600,"o":"m 169 679 q 235 858 169 794 q 421 921 300 921 q 521 906 474 921 q 600 863 568 890 l 554 776 q 421 821 501 821 q 325 779 360 821 q 290 663 290 738 l 290 603 l 463 603 l 463 506 l 290 506 l 290 97 l 415 97 l 415 0 l 53 0 l 53 97 l 169 97 l 169 506 l 53 506 l 53 603 l 169 603 l 169 679 z "},"g":{"ha":758,"x_min":32,"x_max":733,"o":"m 410 47 q 581 3 524 47 q 639 -124 639 -40 q 557 -267 639 -217 q 336 -317 475 -317 q 167 -295 260 -317 q 32 -249 74 -274 l 76 -156 q 201 -197 131 -182 q 336 -212 271 -212 q 472 -192 425 -212 q 518 -131 518 -171 q 383 -51 518 -51 l 179 -51 l 179 188 q 80 265 114 214 q 46 388 46 315 q 122 561 46 497 q 326 625 197 625 q 496 588 429 625 l 697 661 l 733 556 l 568 521 q 610 394 610 471 q 532 224 610 285 q 325 163 454 163 q 290 164 301 163 l 290 47 l 410 47 m 328 528 q 208 492 249 528 q 167 393 167 457 q 210 297 167 333 q 328 260 254 260 q 445 297 401 260 q 489 393 489 333 q 447 492 489 457 q 328 528 406 528 z "},"ğ":{"ha":758,"x_min":32,"x_max":733,"o":"m 410 47 q 581 3 524 47 q 639 -124 639 -40 q 557 -267 639 -217 q 336 -317 475 -317 q 167 -295 260 -317 q 32 -249 74 -274 l 76 -156 q 201 -197 131 -182 q 336 -212 271 -212 q 472 -192 425 -212 q 518 -131 518 -171 q 383 -51 518 -51 l 179 -51 l 179 188 q 80 265 114 214 q 46 388 46 315 q 122 561 46 497 q 326 625 197 625 q 496 588 429 625 l 697 661 l 733 556 l 568 521 q 610 394 610 471 q 532 224 610 285 q 325 163 454 163 q 290 164 301 163 l 290 47 l 410 47 m 328 528 q 208 492 249 528 q 167 393 167 457 q 210 297 167 333 q 328 260 254 260 q 445 297 401 260 q 489 393 489 333 q 447 492 489 457 q 328 528 406 528 m 326 690 q 175 735 232 690 q 103 865 118 779 l 199 881 q 326 783 211 783 q 417 808 385 783 q 456 881 450 833 l 551 865 q 478 735 536 779 q 326 690 421 690 z "},"ǧ":{"ha":758,"x_min":32,"x_max":733,"o":"m 410 47 q 581 3 524 47 q 639 -124 639 -40 q 557 -267 639 -217 q 336 -317 475 -317 q 167 -295 260 -317 q 32 -249 74 -274 l 76 -156 q 201 -197 131 -182 q 336 -212 271 -212 q 472 -192 425 -212 q 518 -131 518 -171 q 383 -51 518 -51 l 179 -51 l 179 188 q 80 265 114 214 q 46 388 46 315 q 122 561 46 497 q 326 625 197 625 q 496 588 429 625 l 697 661 l 733 556 l 568 521 q 610 394 610 471 q 532 224 610 285 q 325 163 454 163 q 290 164 301 163 l 290 47 l 410 47 m 328 528 q 208 492 249 528 q 167 393 167 457 q 210 297 167 333 q 328 260 254 260 q 445 297 401 260 q 489 393 489 333 q 447 492 489 457 q 328 528 406 528 m 331 671 l 113 814 l 153 875 l 331 783 l 507 878 l 543 814 l 331 671 z "},"ĝ":{"ha":758,"x_min":32,"x_max":733,"o":"m 410 47 q 581 3 524 47 q 639 -124 639 -40 q 557 -267 639 -217 q 336 -317 475 -317 q 167 -295 260 -317 q 32 -249 74 -274 l 76 -156 q 201 -197 131 -182 q 336 -212 271 -212 q 472 -192 425 -212 q 518 -131 518 -171 q 383 -51 518 -51 l 179 -51 l 179 188 q 80 265 114 214 q 46 388 46 315 q 122 561 46 497 q 326 625 197 625 q 496 588 429 625 l 697 661 l 733 556 l 568 521 q 610 394 610 471 q 532 224 610 285 q 325 163 454 163 q 290 164 301 163 l 290 47 l 410 47 m 328 528 q 208 492 249 528 q 167 393 167 457 q 210 297 167 333 q 328 260 254 260 q 445 297 401 260 q 489 393 489 333 q 447 492 489 457 q 328 528 406 528 m 331 892 l 543 749 l 507 685 l 331 779 l 153 688 l 113 749 l 331 892 z "},"ģ":{"ha":758,"x_min":32,"x_max":733,"o":"m 410 47 q 581 3 524 47 q 639 -124 639 -40 q 557 -267 639 -217 q 336 -317 475 -317 q 167 -295 260 -317 q 32 -249 74 -274 l 76 -156 q 201 -197 131 -182 q 336 -212 271 -212 q 472 -192 425 -212 q 518 -131 518 -171 q 383 -51 518 -51 l 179 -51 l 179 188 q 80 265 114 214 q 46 388 46 315 q 122 561 46 497 q 326 625 197 625 q 496 588 429 625 l 697 661 l 733 556 l 568 521 q 610 394 610 471 q 532 224 610 285 q 325 163 454 163 q 290 164 301 163 l 290 47 l 410 47 m 328 528 q 208 492 249 528 q 167 393 167 457 q 210 297 167 333 q 328 260 254 260 q 445 297 401 260 q 489 393 489 333 q 447 492 489 457 q 328 528 406 528 m 411 979 q 382 935 404 969 q 346 869 360 900 q 405 840 383 864 q 426 783 426 815 q 399 717 426 743 q 331 692 372 692 q 260 722 290 692 q 231 793 231 753 q 361 1024 231 893 l 411 979 z "},"ġ":{"ha":758,"x_min":32,"x_max":733,"o":"m 410 47 q 581 3 524 47 q 639 -124 639 -40 q 557 -267 639 -217 q 336 -317 475 -317 q 167 -295 260 -317 q 32 -249 74 -274 l 76 -156 q 201 -197 131 -182 q 336 -212 271 -212 q 472 -192 425 -212 q 518 -131 518 -171 q 383 -51 518 -51 l 179 -51 l 179 188 q 80 265 114 214 q 46 388 46 315 q 122 561 46 497 q 326 625 197 625 q 496 588 429 625 l 697 661 l 733 556 l 568 521 q 610 394 610 471 q 532 224 610 285 q 325 163 454 163 q 290 164 301 163 l 290 47 l 410 47 m 328 528 q 208 492 249 528 q 167 393 167 457 q 210 297 167 333 q 328 260 254 260 q 445 297 401 260 q 489 393 489 333 q 447 492 489 457 q 328 528 406 528 m 326 900 q 390 876 365 900 q 415 811 415 851 q 390 747 415 772 q 326 722 365 722 q 263 747 288 722 q 239 811 239 771 q 263 876 239 851 q 326 900 288 900 z "},"ḡ":{"ha":758,"x_min":32,"x_max":733,"o":"m 410 47 q 581 3 524 47 q 639 -124 639 -40 q 557 -267 639 -217 q 336 -317 475 -317 q 167 -295 260 -317 q 32 -249 74 -274 l 76 -156 q 201 -197 131 -182 q 336 -212 271 -212 q 472 -192 425 -212 q 518 -131 518 -171 q 383 -51 518 -51 l 179 -51 l 179 188 q 80 265 114 214 q 46 388 46 315 q 122 561 46 497 q 326 625 197 625 q 496 588 429 625 l 697 661 l 733 556 l 568 521 q 610 394 610 471 q 532 224 610 285 q 325 163 454 163 q 290 164 301 163 l 290 47 l 410 47 m 328 528 q 208 492 249 528 q 167 393 167 457 q 210 297 167 333 q 328 260 254 260 q 445 297 401 260 q 489 393 489 333 q 447 492 489 457 q 328 528 406 528 m 113 829 l 542 829 l 542 740 l 113 740 l 113 829 z "},"h":{"ha":849,"x_min":14,"x_max":815,"o":"m 29 97 l 146 97 l 146 768 l 14 814 l 46 911 l 268 835 l 268 568 q 456 625 357 625 q 639 566 579 625 q 699 385 699 507 l 699 97 l 815 97 l 815 0 l 515 0 l 515 97 l 576 97 l 576 363 q 543 485 576 447 q 436 524 510 524 q 347 511 394 524 q 268 479 300 499 l 268 97 l 329 97 l 329 0 l 29 0 l 29 97 z "},"ħ":{"ha":849,"x_min":14,"x_max":815,"o":"m 815 97 l 815 0 l 515 0 l 515 97 l 576 97 l 576 329 q 543 452 576 414 q 436 490 510 490 q 347 478 394 490 q 268 446 300 465 l 268 97 l 329 97 l 329 0 l 29 0 l 29 97 l 146 97 l 146 644 l 21 644 l 21 728 l 146 728 l 146 768 l 14 814 l 46 911 l 268 835 l 268 728 l 453 728 l 453 644 l 268 644 l 268 535 q 456 592 360 592 q 639 533 579 592 q 699 351 699 474 l 699 97 l 815 97 z "},"ḫ":{"ha":849,"x_min":14,"x_max":815,"o":"m 29 97 l 146 97 l 146 768 l 14 814 l 46 911 l 268 835 l 268 568 q 456 625 357 625 q 639 566 579 625 q 699 385 699 507 l 699 97 l 815 97 l 815 0 l 515 0 l 515 97 l 576 97 l 576 363 q 543 485 576 447 q 436 524 510 524 q 347 511 394 524 q 268 479 300 499 l 268 97 l 329 97 l 329 0 l 29 0 l 29 97 m 418 -260 q 267 -215 324 -260 q 194 -85 210 -171 l 290 -69 q 418 -167 303 -167 q 509 -142 476 -167 q 547 -69 542 -117 l 643 -85 q 570 -215 628 -171 q 418 -260 513 -260 z "},"ĥ":{"ha":849,"x_min":-83,"x_max":815,"o":"m 29 97 l 146 97 l 146 768 l 14 814 l 46 911 l 268 835 l 268 568 q 456 625 357 625 q 639 566 579 625 q 699 385 699 507 l 699 97 l 815 97 l 815 0 l 515 0 l 515 97 l 576 97 l 576 363 q 543 485 576 447 q 436 524 510 524 q 347 511 394 524 q 268 479 300 499 l 268 97 l 329 97 l 329 0 l 29 0 l 29 97 m 158 1101 l 400 964 l 369 915 l 158 994 l -54 915 l -83 964 l 158 1101 z "},"ḥ":{"ha":849,"x_min":14,"x_max":815,"o":"m 29 97 l 146 97 l 146 768 l 14 814 l 46 911 l 268 835 l 268 568 q 456 625 357 625 q 639 566 579 625 q 699 385 699 507 l 699 97 l 815 97 l 815 0 l 515 0 l 515 97 l 576 97 l 576 363 q 543 485 576 447 q 436 524 510 524 q 347 511 394 524 q 268 479 300 499 l 268 97 l 329 97 l 329 0 l 29 0 l 29 97 m 418 -81 q 482 -106 457 -81 q 507 -169 507 -131 q 482 -234 507 -210 q 418 -258 457 -258 q 355 -234 379 -258 q 331 -169 331 -210 q 355 -105 331 -129 q 418 -81 379 -81 z "},"i":{"ha":438,"x_min":51,"x_max":406,"o":"m 51 603 l 290 603 l 290 97 l 406 97 l 406 0 l 51 0 l 51 97 l 167 97 l 167 506 l 51 506 l 51 603 m 214 900 q 278 876 253 900 q 303 811 303 851 q 278 747 303 772 q 214 722 253 722 q 151 747 175 722 q 126 811 126 771 q 151 876 126 851 q 214 900 175 900 z "},"ı":{"ha":438,"x_min":51,"x_max":406,"o":"m 51 603 l 290 603 l 290 97 l 406 97 l 406 0 l 51 0 l 51 97 l 167 97 l 167 506 l 51 506 l 51 603 z "},"í":{"ha":438,"x_min":51,"x_max":408,"o":"m 51 603 l 290 603 l 290 97 l 406 97 l 406 0 l 51 0 l 51 97 l 167 97 l 167 506 l 51 506 l 51 603 m 319 983 l 408 917 l 199 682 l 143 722 l 319 983 z "},"ĭ":{"ha":438,"x_min":18,"x_max":411,"o":"m 51 603 l 290 603 l 290 97 l 406 97 l 406 0 l 51 0 l 51 97 l 167 97 l 167 506 l 51 506 l 51 603 m 214 690 q 82 735 132 690 q 18 865 32 779 l 113 881 q 214 783 124 783 q 315 881 307 783 l 411 865 q 214 690 382 690 z "},"î":{"ha":438,"x_min":0,"x_max":431,"o":"m 51 603 l 290 603 l 290 97 l 406 97 l 406 0 l 51 0 l 51 97 l 167 97 l 167 506 l 51 506 l 51 603 m 218 892 l 431 749 l 394 685 l 218 779 l 40 688 l 0 749 l 218 892 z "},"ȉ":{"ha":438,"x_min":-121,"x_max":406,"o":"m 51 603 l 290 603 l 290 97 l 406 97 l 406 0 l 51 0 l 51 97 l 167 97 l 167 506 l 51 506 l 51 603 m 196 983 l 372 722 l 317 682 l 107 917 l 196 983 m -47 956 l 175 732 l 128 682 l -121 874 l -47 956 z "},"ï":{"ha":438,"x_min":7,"x_max":424,"o":"m 51 603 l 290 603 l 290 97 l 406 97 l 406 0 l 51 0 l 51 97 l 167 97 l 167 506 l 51 506 l 51 603 m 89 875 q 147 850 122 875 q 172 792 172 825 q 147 734 172 758 q 89 710 122 710 q 31 734 56 710 q 7 792 7 758 q 31 850 7 825 q 89 875 56 875 m 342 875 q 399 850 375 875 q 424 792 424 825 q 399 734 424 758 q 342 710 375 710 q 283 734 307 710 q 258 792 258 758 q 283 850 258 825 q 342 875 307 875 z "},"ḯ":{"ha":438,"x_min":7,"x_max":424,"o":"m 51 603 l 290 603 l 290 97 l 406 97 l 406 0 l 51 0 l 51 97 l 167 97 l 167 506 l 51 506 l 51 603 m 89 875 q 147 850 122 875 q 172 792 172 825 q 147 734 172 758 q 89 710 122 710 q 31 734 56 710 q 7 792 7 758 q 31 850 7 825 q 89 875 56 875 m 342 875 q 399 850 375 875 q 424 792 424 825 q 399 734 424 758 q 342 710 375 710 q 283 734 307 710 q 258 792 258 758 q 283 850 258 825 q 342 875 307 875 m 319 1175 l 408 1108 l 199 874 l 143 914 l 319 1175 z "},"ị":{"ha":438,"x_min":51,"x_max":406,"o":"m 51 603 l 290 603 l 290 97 l 406 97 l 406 0 l 51 0 l 51 97 l 167 97 l 167 506 l 51 506 l 51 603 m 214 900 q 278 876 253 900 q 303 811 303 851 q 278 747 303 772 q 214 722 253 722 q 151 747 175 722 q 126 811 126 771 q 151 876 126 851 q 214 900 175 900 m 264 -81 q 328 -106 303 -81 q 353 -169 353 -131 q 328 -234 353 -210 q 264 -258 303 -258 q 201 -234 225 -258 q 176 -169 176 -210 q 201 -105 176 -129 q 264 -81 225 -81 z "},"ì":{"ha":438,"x_min":0,"x_max":406,"o":"m 51 603 l 290 603 l 290 97 l 406 97 l 406 0 l 51 0 l 51 97 l 167 97 l 167 506 l 51 506 l 51 603 m 210 682 l 0 917 l 89 983 l 265 722 l 210 682 z "},"ỉ":{"ha":438,"x_min":51,"x_max":406,"o":"m 51 603 l 290 603 l 290 97 l 406 97 l 406 0 l 51 0 l 51 97 l 167 97 l 167 506 l 51 506 l 51 603 m 193 719 q 228 760 215 738 q 240 804 240 783 q 230 835 240 824 q 199 846 219 846 q 132 808 164 846 l 79 868 q 142 918 107 901 q 215 935 178 935 q 301 904 267 935 q 335 819 335 874 q 232 675 335 744 l 193 719 z "},"ȋ":{"ha":438,"x_min":25,"x_max":406,"o":"m 51 603 l 290 603 l 290 97 l 406 97 l 406 0 l 51 0 l 51 97 l 167 97 l 167 506 l 51 506 l 51 603 m 214 894 q 346 851 297 894 q 404 721 394 807 l 319 704 q 214 803 313 803 q 110 704 117 803 l 25 721 q 83 851 35 807 q 214 894 132 894 z "},"ī":{"ha":438,"x_min":42,"x_max":406,"o":"m 51 603 l 290 603 l 290 97 l 406 97 l 406 0 l 51 0 l 51 97 l 167 97 l 167 506 l 51 506 l 51 603 m 42 829 l 388 829 l 388 740 l 42 740 l 42 829 z "},"į":{"ha":438,"x_min":51,"x_max":406,"o":"m 214 722 q 151 747 175 722 q 126 811 126 771 q 151 876 126 851 q 214 900 175 900 q 278 876 254 900 q 303 811 303 851 q 278 747 303 772 q 214 722 254 722 m 318 0 q 235 -67 261 -31 q 208 -146 208 -103 q 231 -193 208 -176 q 292 -210 253 -210 q 360 -197 325 -210 l 360 -286 q 246 -312 306 -312 q 131 -278 176 -312 q 85 -185 85 -243 q 117 -83 85 -128 q 218 0 150 -37 l 51 0 l 51 97 l 167 97 l 167 506 l 51 506 l 51 603 l 290 603 l 290 97 l 406 97 l 406 0 l 318 0 z "},"ĩ":{"ha":438,"x_min":32,"x_max":426,"o":"m 51 603 l 290 603 l 290 97 l 406 97 l 406 0 l 51 0 l 51 97 l 167 97 l 167 506 l 51 506 l 51 603 m 32 779 q 99 826 72 813 q 165 839 126 839 q 203 833 186 839 q 233 819 219 826 q 250 808 246 811 q 283 790 269 796 q 311 783 296 783 q 349 792 332 783 q 396 828 365 801 l 426 747 q 366 698 393 711 q 300 685 339 685 q 267 692 283 685 q 232 713 251 699 q 195 734 211 726 q 161 742 179 742 q 124 735 140 742 q 90 718 108 729 q 63 703 71 707 l 32 779 z "},"j":{"ha":364,"x_min":-62,"x_max":286,"o":"m 271 -44 q 258 -181 271 -126 q 189 -276 244 -236 q 15 -317 133 -317 q -62 -308 -4 -317 l -47 -214 q 15 -217 -11 -217 q 110 -192 81 -217 q 144 -138 139 -168 q 149 -56 149 -108 l 149 506 l 32 506 l 32 603 l 271 603 l 271 -44 m 197 900 q 261 876 236 900 q 286 811 286 851 q 261 747 286 772 q 197 722 236 722 q 134 747 158 722 q 110 811 110 771 q 134 876 110 851 q 197 900 158 900 z "},"ȷ":{"ha":364,"x_min":-62,"x_max":271,"o":"m 271 -44 q 258 -181 271 -126 q 189 -276 244 -236 q 15 -317 133 -317 q -62 -308 -4 -317 l -47 -214 q 15 -217 -11 -217 q 110 -192 81 -217 q 144 -138 139 -168 q 149 -56 149 -108 l 149 506 l 32 506 l 32 603 l 271 603 l 271 -44 z "},"ĵ":{"ha":364,"x_min":-62,"x_max":414,"o":"m 271 -44 q 258 -181 271 -126 q 189 -276 244 -236 q 15 -317 133 -317 q -62 -308 -4 -317 l -47 -214 q 15 -217 -11 -217 q 110 -192 81 -217 q 144 -138 139 -168 q 149 -56 149 -108 l 149 506 l 32 506 l 32 603 l 271 603 l 271 -44 m 201 892 l 414 749 l 378 685 l 201 779 l 24 688 l -17 749 l 201 892 z "},"k":{"ha":779,"x_min":17,"x_max":732,"o":"m 50 913 l 271 836 l 271 353 l 390 353 l 481 506 l 408 506 l 408 603 l 713 603 l 713 506 l 599 506 l 482 311 l 614 97 l 732 97 l 732 0 l 544 0 l 389 256 l 271 256 l 271 97 l 329 97 l 329 0 l 32 0 l 32 97 l 149 97 l 149 769 l 17 815 l 50 913 z "},"ķ":{"ha":779,"x_min":17,"x_max":732,"o":"m 50 913 l 271 836 l 271 353 l 390 353 l 481 506 l 408 506 l 408 603 l 713 603 l 713 506 l 599 506 l 482 311 l 614 97 l 732 97 l 732 0 l 544 0 l 389 256 l 271 256 l 271 97 l 329 97 l 329 0 l 32 0 l 32 97 l 149 97 l 149 769 l 17 815 l 50 913 m 344 -385 q 374 -340 351 -375 q 410 -275 396 -306 q 351 -245 372 -269 q 329 -189 329 -221 q 356 -123 329 -149 q 425 -97 383 -97 q 495 -127 465 -97 q 525 -197 525 -157 q 394 -429 526 -297 l 344 -385 z "},"ĸ":{"ha":810,"x_min":60,"x_max":763,"o":"m 60 603 l 357 603 l 357 506 l 299 506 l 299 346 l 419 346 l 522 506 l 451 506 l 451 603 l 754 603 l 754 506 l 642 506 l 511 304 l 644 97 l 763 97 l 763 0 l 571 0 l 411 249 l 299 249 l 299 97 l 357 97 l 357 0 l 60 0 l 60 97 l 176 97 l 176 506 l 60 506 l 60 603 z "},"l":{"ha":422,"x_min":14,"x_max":390,"o":"m 35 0 l 35 97 l 151 97 l 151 781 l 14 814 l 42 914 l 274 854 l 274 97 l 390 97 l 390 0 l 35 0 z "},"ĺ":{"ha":422,"x_min":14,"x_max":433,"o":"m 35 0 l 35 97 l 151 97 l 151 781 l 14 814 l 42 914 l 274 854 l 274 97 l 390 97 l 390 0 l 35 0 m 406 1129 l 433 1019 l 83 957 l 68 1010 l 406 1129 z "},"ľ":{"ha":422,"x_min":-25,"x_max":410,"o":"m 10 1038 l 193 947 l 376 1038 l 410 986 l 193 835 l -25 986 l 10 1038 m 35 0 l 35 97 l 151 97 l 151 678 l 14 711 l 42 810 l 274 751 l 274 97 l 390 97 l 390 0 l 35 0 z "},"ļ":{"ha":422,"x_min":14,"x_max":390,"o":"m 35 0 l 35 97 l 151 97 l 151 781 l 14 814 l 42 914 l 274 854 l 274 97 l 390 97 l 390 0 l 35 0 m 126 -385 q 156 -340 133 -375 q 192 -275 178 -306 q 133 -245 154 -269 q 111 -189 111 -221 q 138 -123 111 -149 q 207 -97 165 -97 q 277 -127 247 -97 q 307 -197 307 -157 q 176 -429 308 -297 l 126 -385 z "},"ŀ":{"ha":532,"x_min":14,"x_max":504,"o":"m 35 0 l 35 97 l 151 97 l 151 781 l 14 814 l 42 914 l 274 854 l 274 97 l 390 97 l 390 0 l 35 0 m 413 499 q 477 472 450 499 q 504 406 504 444 q 477 340 504 367 q 413 313 450 313 q 347 340 374 313 q 319 406 319 367 q 347 472 319 444 q 413 499 374 499 z "},"ḷ":{"ha":422,"x_min":14,"x_max":390,"o":"m 35 0 l 35 97 l 151 97 l 151 781 l 14 814 l 42 914 l 274 854 l 274 97 l 390 97 l 390 0 l 35 0 m 208 -81 q 272 -106 247 -81 q 297 -169 297 -131 q 272 -234 297 -210 q 208 -258 247 -258 q 145 -234 169 -258 q 121 -169 121 -210 q 145 -105 121 -129 q 208 -81 169 -81 z "},"ḻ":{"ha":422,"x_min":-8,"x_max":426,"o":"m 35 0 l 35 97 l 151 97 l 151 781 l 14 814 l 42 914 l 274 854 l 274 97 l 390 97 l 390 0 l 35 0 m -8 -61 l 426 -61 l 426 -153 l -8 -153 l -8 -61 z "},"ł":{"ha":422,"x_min":14,"x_max":390,"o":"m 274 97 l 390 97 l 390 0 l 35 0 l 35 97 l 151 97 l 151 346 l 53 260 l 53 368 l 151 453 l 151 781 l 14 814 l 42 914 l 274 854 l 274 558 l 378 649 l 378 542 l 274 451 l 274 97 z "},"m":{"ha":1242,"x_min":43,"x_max":1210,"o":"m 60 97 l 176 97 l 176 481 l 43 525 l 75 622 l 263 558 q 353 607 301 589 q 454 625 406 625 q 651 551 590 625 q 743 605 689 585 q 851 625 797 625 q 1035 568 979 625 q 1092 381 1092 511 l 1092 97 l 1210 97 l 1210 0 l 910 0 l 910 97 l 969 97 l 969 363 q 940 487 969 450 q 840 524 911 524 q 758 510 799 524 q 696 476 718 497 l 696 97 l 756 97 l 756 0 l 513 0 l 513 97 l 574 97 l 574 363 q 544 487 574 450 q 443 524 514 524 q 361 510 401 524 q 299 476 321 497 l 299 97 l 360 97 l 360 0 l 60 0 l 60 97 z "},"ṃ":{"ha":1242,"x_min":43,"x_max":1210,"o":"m 60 97 l 176 97 l 176 481 l 43 525 l 75 622 l 263 558 q 353 607 301 589 q 454 625 406 625 q 651 551 590 625 q 743 605 689 585 q 851 625 797 625 q 1035 568 979 625 q 1092 381 1092 511 l 1092 97 l 1210 97 l 1210 0 l 910 0 l 910 97 l 969 97 l 969 363 q 940 487 969 450 q 840 524 911 524 q 758 510 799 524 q 696 476 718 497 l 696 97 l 756 97 l 756 0 l 513 0 l 513 97 l 574 97 l 574 363 q 544 487 574 450 q 443 524 514 524 q 361 510 401 524 q 299 476 321 497 l 299 97 l 360 97 l 360 0 l 60 0 l 60 97 m 618 -81 q 682 -106 657 -81 q 707 -169 707 -131 q 682 -234 707 -210 q 618 -258 657 -258 q 555 -234 579 -258 q 531 -169 531 -210 q 555 -105 531 -129 q 618 -81 579 -81 z "},"n":{"ha":878,"x_min":43,"x_max":844,"o":"m 60 97 l 176 97 l 176 479 l 43 525 l 75 622 l 263 557 q 482 625 365 625 q 660 561 592 625 q 729 383 729 497 l 729 97 l 844 97 l 844 0 l 546 0 l 546 97 l 607 97 l 607 361 q 567 482 607 442 q 458 522 528 522 q 378 510 421 522 q 299 475 336 497 l 299 97 l 360 97 l 360 0 l 60 0 l 60 97 z "},"ń":{"ha":878,"x_min":43,"x_max":844,"o":"m 60 97 l 176 97 l 176 479 l 43 525 l 75 622 l 263 557 q 482 625 365 625 q 660 561 592 625 q 729 383 729 497 l 729 97 l 844 97 l 844 0 l 546 0 l 546 97 l 607 97 l 607 361 q 567 482 607 442 q 458 522 528 522 q 378 510 421 522 q 299 475 336 497 l 299 97 l 360 97 l 360 0 l 60 0 l 60 97 m 540 983 l 629 917 l 419 682 l 364 722 l 540 983 z "},"ň":{"ha":878,"x_min":43,"x_max":844,"o":"m 60 97 l 176 97 l 176 479 l 43 525 l 75 622 l 263 557 q 482 625 365 625 q 660 561 592 625 q 729 383 729 497 l 729 97 l 844 97 l 844 0 l 546 0 l 546 97 l 607 97 l 607 361 q 567 482 607 442 q 458 522 528 522 q 378 510 421 522 q 299 475 336 497 l 299 97 l 360 97 l 360 0 l 60 0 l 60 97 m 439 671 l 221 814 l 261 875 l 439 783 l 615 878 l 651 814 l 439 671 z "},"ņ":{"ha":878,"x_min":43,"x_max":844,"o":"m 60 97 l 176 97 l 176 479 l 43 525 l 75 622 l 263 557 q 482 625 365 625 q 660 561 592 625 q 729 383 729 497 l 729 97 l 844 97 l 844 0 l 546 0 l 546 97 l 607 97 l 607 361 q 567 482 607 442 q 458 522 528 522 q 378 510 421 522 q 299 475 336 497 l 299 97 l 360 97 l 360 0 l 60 0 l 60 97 m 353 -385 q 382 -340 360 -375 q 418 -275 404 -306 q 359 -245 381 -269 q 338 -189 338 -221 q 365 -123 338 -149 q 433 -97 392 -97 q 503 -127 474 -97 q 533 -197 533 -157 q 403 -429 535 -297 l 353 -385 z "},"ṅ":{"ha":878,"x_min":43,"x_max":844,"o":"m 60 97 l 176 97 l 176 479 l 43 525 l 75 622 l 263 557 q 482 625 365 625 q 660 561 592 625 q 729 383 729 497 l 729 97 l 844 97 l 844 0 l 546 0 l 546 97 l 607 97 l 607 361 q 567 482 607 442 q 458 522 528 522 q 378 510 421 522 q 299 475 336 497 l 299 97 l 360 97 l 360 0 l 60 0 l 60 97 m 435 900 q 499 876 474 900 q 524 811 524 851 q 499 747 524 772 q 435 722 474 722 q 372 747 396 722 q 347 811 347 771 q 372 876 347 851 q 435 900 396 900 z "},"ṇ":{"ha":878,"x_min":43,"x_max":844,"o":"m 60 97 l 176 97 l 176 479 l 43 525 l 75 622 l 263 557 q 482 625 365 625 q 660 561 592 625 q 729 383 729 497 l 729 97 l 844 97 l 844 0 l 546 0 l 546 97 l 607 97 l 607 361 q 567 482 607 442 q 458 522 528 522 q 378 510 421 522 q 299 475 336 497 l 299 97 l 360 97 l 360 0 l 60 0 l 60 97 m 435 -81 q 499 -106 474 -81 q 524 -169 524 -131 q 499 -234 524 -210 q 435 -258 474 -258 q 372 -234 396 -258 q 347 -169 347 -210 q 372 -105 347 -129 q 435 -81 396 -81 z "},"ŋ":{"ha":799,"x_min":43,"x_max":729,"o":"m 482 625 q 663 560 596 625 q 729 383 729 494 l 729 21 q 666 -229 729 -142 q 488 -317 603 -317 q 308 -276 403 -317 l 338 -183 q 467 -210 408 -210 q 572 -160 536 -210 q 607 -7 607 -111 l 607 361 q 569 481 607 439 q 458 522 531 522 q 378 510 421 522 q 299 475 336 497 l 299 97 l 360 97 l 360 0 l 60 0 l 60 97 l 176 97 l 176 479 l 43 525 l 75 622 l 263 557 q 482 625 364 625 z "},"ṉ":{"ha":878,"x_min":43,"x_max":844,"o":"m 60 97 l 176 97 l 176 479 l 43 525 l 75 622 l 263 557 q 482 625 365 625 q 660 561 592 625 q 729 383 729 497 l 729 97 l 844 97 l 844 0 l 546 0 l 546 97 l 607 97 l 607 361 q 567 482 607 442 q 458 522 528 522 q 378 510 421 522 q 299 475 336 497 l 299 97 l 360 97 l 360 0 l 60 0 l 60 97 m 218 -61 l 653 -61 l 653 -153 l 218 -153 l 218 -61 z "},"ñ":{"ha":878,"x_min":43,"x_max":844,"o":"m 60 97 l 176 97 l 176 479 l 43 525 l 75 622 l 263 557 q 482 625 365 625 q 660 561 592 625 q 729 383 729 497 l 729 97 l 844 97 l 844 0 l 546 0 l 546 97 l 607 97 l 607 361 q 567 482 607 442 q 458 522 528 522 q 378 510 421 522 q 299 475 336 497 l 299 97 l 360 97 l 360 0 l 60 0 l 60 97 m 229 779 q 309 826 278 813 q 386 839 340 839 q 439 831 415 839 q 490 807 463 822 q 528 789 514 794 q 561 783 543 783 q 602 792 585 783 q 657 828 619 801 l 692 747 q 620 698 650 711 q 551 685 590 685 q 512 692 531 685 q 468 714 493 700 q 424 735 442 728 q 386 742 406 742 q 337 735 357 742 q 294 718 317 729 q 261 703 271 707 l 229 779 z "},"o":{"ha":736,"x_min":58,"x_max":681,"o":"m 367 625 q 595 538 510 625 q 681 300 681 451 q 596 64 681 150 q 367 -22 511 -22 q 142 64 226 -22 q 58 300 58 150 q 142 538 58 451 q 367 625 226 625 m 368 525 q 229 467 276 525 q 182 300 182 408 q 229 135 182 192 q 368 78 276 78 q 509 135 461 78 q 557 300 557 192 q 509 467 557 408 q 368 525 461 525 z "},"ó":{"ha":736,"x_min":58,"x_max":681,"o":"m 367 625 q 595 538 510 625 q 681 300 681 451 q 596 64 681 150 q 367 -22 511 -22 q 142 64 226 -22 q 58 300 58 150 q 142 538 58 451 q 367 625 226 625 m 368 525 q 229 467 276 525 q 182 300 182 408 q 229 135 182 192 q 368 78 276 78 q 509 135 461 78 q 557 300 557 192 q 509 467 557 408 q 368 525 461 525 m 474 983 l 563 917 l 353 682 l 297 722 l 474 983 z "},"ŏ":{"ha":736,"x_min":58,"x_max":681,"o":"m 367 625 q 595 538 510 625 q 681 300 681 451 q 596 64 681 150 q 367 -22 511 -22 q 142 64 226 -22 q 58 300 58 150 q 142 538 58 451 q 367 625 226 625 m 368 525 q 229 467 276 525 q 182 300 182 408 q 229 135 182 192 q 368 78 276 78 q 509 135 461 78 q 557 300 557 192 q 509 467 557 408 q 368 525 461 525 m 368 690 q 217 735 274 690 q 144 865 160 779 l 240 881 q 368 783 253 783 q 459 808 426 783 q 497 881 492 833 l 593 865 q 520 735 578 779 q 368 690 463 690 z "},"ô":{"ha":736,"x_min":58,"x_max":681,"o":"m 367 625 q 595 538 510 625 q 681 300 681 451 q 596 64 681 150 q 367 -22 511 -22 q 142 64 226 -22 q 58 300 58 150 q 142 538 58 451 q 367 625 226 625 m 368 525 q 229 467 276 525 q 182 300 182 408 q 229 135 182 192 q 368 78 276 78 q 509 135 461 78 q 557 300 557 192 q 509 467 557 408 q 368 525 461 525 m 372 892 l 585 749 l 549 685 l 372 779 l 194 688 l 154 749 l 372 892 z "},"ố":{"ha":736,"x_min":58,"x_max":681,"o":"m 367 625 q 595 538 510 625 q 681 300 681 451 q 596 64 681 150 q 367 -22 511 -22 q 142 64 226 -22 q 58 300 58 150 q 142 538 58 451 q 367 625 226 625 m 368 525 q 229 467 276 525 q 182 300 182 408 q 229 135 182 192 q 368 78 276 78 q 509 135 461 78 q 557 300 557 192 q 509 467 557 408 q 368 525 461 525 m 575 1081 l 664 1014 l 506 844 l 450 885 l 575 1081 m 372 892 l 585 749 l 549 685 l 372 779 l 194 688 l 154 749 l 372 892 z "},"ộ":{"ha":736,"x_min":58,"x_max":681,"o":"m 367 625 q 595 538 510 625 q 681 300 681 451 q 596 64 681 150 q 367 -22 511 -22 q 142 64 226 -22 q 58 300 58 150 q 142 538 58 451 q 367 625 226 625 m 368 525 q 229 467 276 525 q 182 300 182 408 q 229 135 182 192 q 368 78 276 78 q 509 135 461 78 q 557 300 557 192 q 509 467 557 408 q 368 525 461 525 m 368 -81 q 432 -106 407 -81 q 457 -169 457 -131 q 432 -234 457 -210 q 368 -258 407 -258 q 305 -234 329 -258 q 281 -169 281 -210 q 305 -105 281 -129 q 368 -81 329 -81 m 372 892 l 585 749 l 549 685 l 372 779 l 194 688 l 154 749 l 372 892 z "},"ồ":{"ha":736,"x_min":58,"x_max":681,"o":"m 367 625 q 595 538 510 625 q 681 300 681 451 q 596 64 681 150 q 367 -22 511 -22 q 142 64 226 -22 q 58 300 58 150 q 142 538 58 451 q 367 625 226 625 m 368 525 q 229 467 276 525 q 182 300 182 408 q 229 135 182 192 q 368 78 276 78 q 509 135 461 78 q 557 300 557 192 q 509 467 557 408 q 368 525 461 525 m 515 844 l 357 1013 l 447 1079 l 572 885 l 515 844 m 372 892 l 585 749 l 549 685 l 372 779 l 194 688 l 154 749 l 372 892 z "},"ổ":{"ha":736,"x_min":58,"x_max":681,"o":"m 367 625 q 595 538 510 625 q 681 300 681 451 q 596 64 681 150 q 367 -22 511 -22 q 142 64 226 -22 q 58 300 58 150 q 142 538 58 451 q 367 625 226 625 m 368 525 q 229 467 276 525 q 182 300 182 408 q 229 135 182 192 q 368 78 276 78 q 509 135 461 78 q 557 300 557 192 q 509 467 557 408 q 368 525 461 525 m 372 892 l 585 749 l 549 685 l 372 779 l 194 688 l 154 749 l 372 892 m 500 871 q 535 912 522 889 q 547 956 547 935 q 537 986 547 975 q 506 997 526 997 q 439 960 471 997 l 386 1019 q 449 1069 414 1053 q 522 1086 485 1086 q 608 1056 574 1086 q 642 971 642 1025 q 539 826 642 896 l 500 871 z "},"ỗ":{"ha":736,"x_min":58,"x_max":681,"o":"m 367 625 q 595 538 510 625 q 681 300 681 451 q 596 64 681 150 q 367 -22 511 -22 q 142 64 226 -22 q 58 300 58 150 q 142 538 58 451 q 367 625 226 625 m 368 525 q 229 467 276 525 q 182 300 182 408 q 229 135 182 192 q 368 78 276 78 q 509 135 461 78 q 557 300 557 192 q 509 467 557 408 q 368 525 461 525 m 156 1010 q 233 1054 203 1042 q 306 1067 263 1067 q 358 1058 335 1067 q 410 1035 382 1050 q 449 1017 435 1022 q 482 1011 464 1011 q 522 1020 504 1011 q 576 1056 539 1029 l 600 976 q 533 929 561 942 q 468 917 504 917 q 428 924 447 917 q 385 946 410 932 q 340 967 360 960 q 301 974 321 974 q 252 967 272 974 q 209 950 232 961 q 176 935 186 939 l 156 1010 m 372 892 l 585 749 l 549 685 l 372 779 l 194 688 l 154 749 l 372 892 z "},"ȍ":{"ha":736,"x_min":33,"x_max":681,"o":"m 367 625 q 595 538 510 625 q 681 300 681 451 q 596 64 681 150 q 367 -22 511 -22 q 142 64 226 -22 q 58 300 58 150 q 142 538 58 451 q 367 625 226 625 m 368 525 q 229 467 276 525 q 182 300 182 408 q 229 135 182 192 q 368 78 276 78 q 509 135 461 78 q 557 300 557 192 q 509 467 557 408 q 368 525 461 525 m 350 983 l 526 722 l 471 682 l 261 917 l 350 983 m 107 956 l 329 732 l 282 682 l 33 874 l 107 956 z "},"ö":{"ha":736,"x_min":58,"x_max":681,"o":"m 367 625 q 595 538 510 625 q 681 300 681 451 q 596 64 681 150 q 367 -22 511 -22 q 142 64 226 -22 q 58 300 58 150 q 142 538 58 451 q 367 625 226 625 m 368 525 q 229 467 276 525 q 182 300 182 408 q 229 135 182 192 q 368 78 276 78 q 509 135 461 78 q 557 300 557 192 q 509 467 557 408 q 368 525 461 525 m 243 875 q 301 850 276 875 q 326 792 326 825 q 301 734 326 758 q 243 710 276 710 q 185 734 210 710 q 161 792 161 758 q 185 850 161 825 q 243 875 210 875 m 496 875 q 553 850 529 875 q 578 792 578 825 q 553 734 578 758 q 496 710 529 710 q 437 734 461 710 q 413 792 413 758 q 437 850 413 825 q 496 875 461 875 z "},"ȫ":{"ha":736,"x_min":58,"x_max":681,"o":"m 367 625 q 595 538 510 625 q 681 300 681 451 q 596 64 681 150 q 367 -22 511 -22 q 142 64 226 -22 q 58 300 58 150 q 142 538 58 451 q 367 625 226 625 m 368 525 q 229 467 276 525 q 182 300 182 408 q 229 135 182 192 q 368 78 276 78 q 509 135 461 78 q 557 300 557 192 q 509 467 557 408 q 368 525 461 525 m 243 875 q 301 850 276 875 q 326 792 326 825 q 301 734 326 758 q 243 710 276 710 q 185 734 210 710 q 161 792 161 758 q 185 850 161 825 q 243 875 210 875 m 496 875 q 553 850 529 875 q 578 792 578 825 q 553 734 578 758 q 496 710 529 710 q 437 734 461 710 q 413 792 413 758 q 437 850 413 825 q 496 875 461 875 m 154 1021 l 583 1021 l 583 932 l 154 932 l 154 1021 z "},"ȱ":{"ha":736,"x_min":58,"x_max":681,"o":"m 367 625 q 595 538 510 625 q 681 300 681 451 q 596 64 681 150 q 367 -22 511 -22 q 142 64 226 -22 q 58 300 58 150 q 142 538 58 451 q 367 625 226 625 m 368 525 q 229 467 276 525 q 182 300 182 408 q 229 135 182 192 q 368 78 276 78 q 509 135 461 78 q 557 300 557 192 q 509 467 557 408 q 368 525 461 525 m 368 900 q 432 876 407 900 q 457 811 457 851 q 432 747 457 772 q 368 722 407 722 q 305 747 329 722 q 281 811 281 771 q 305 876 281 851 q 368 900 329 900 m 154 1043 l 583 1043 l 583 954 l 154 954 l 154 1043 z "},"ọ":{"ha":736,"x_min":58,"x_max":681,"o":"m 367 625 q 595 538 510 625 q 681 300 681 451 q 596 64 681 150 q 367 -22 511 -22 q 142 64 226 -22 q 58 300 58 150 q 142 538 58 451 q 367 625 226 625 m 368 525 q 229 467 276 525 q 182 300 182 408 q 229 135 182 192 q 368 78 276 78 q 509 135 461 78 q 557 300 557 192 q 509 467 557 408 q 368 525 461 525 m 368 -81 q 432 -106 407 -81 q 457 -169 457 -131 q 432 -234 457 -210 q 368 -258 407 -258 q 305 -234 329 -258 q 281 -169 281 -210 q 305 -105 281 -129 q 368 -81 329 -81 z "},"ò":{"ha":736,"x_min":58,"x_max":681,"o":"m 367 625 q 595 538 510 625 q 681 300 681 451 q 596 64 681 150 q 367 -22 511 -22 q 142 64 226 -22 q 58 300 58 150 q 142 538 58 451 q 367 625 226 625 m 368 525 q 229 467 276 525 q 182 300 182 408 q 229 135 182 192 q 368 78 276 78 q 509 135 461 78 q 557 300 557 192 q 509 467 557 408 q 368 525 461 525 m 364 682 l 154 917 l 243 983 l 419 722 l 364 682 z "},"ỏ":{"ha":736,"x_min":58,"x_max":681,"o":"m 367 625 q 595 538 510 625 q 681 300 681 451 q 596 64 681 150 q 367 -22 511 -22 q 142 64 226 -22 q 58 300 58 150 q 142 538 58 451 q 367 625 226 625 m 368 525 q 229 467 276 525 q 182 300 182 408 q 229 135 182 192 q 368 78 276 78 q 509 135 461 78 q 557 300 557 192 q 509 467 557 408 q 368 525 461 525 m 347 719 q 382 760 369 738 q 394 804 394 783 q 384 835 394 824 q 353 846 374 846 q 286 808 318 846 l 233 868 q 297 918 261 901 q 369 935 332 935 q 455 904 421 935 q 489 819 489 874 q 386 675 489 744 l 347 719 z "},"ơ":{"ha":736,"x_min":58,"x_max":681,"o":"m 681 713 q 600 533 681 582 q 681 300 681 446 q 596 64 681 150 q 367 -22 511 -22 q 142 64 226 -22 q 58 300 58 150 q 142 538 58 451 q 367 625 226 625 q 496 603 439 625 q 561 633 539 606 q 583 713 583 661 l 681 713 m 368 78 q 509 135 461 78 q 557 300 557 192 q 509 467 557 408 q 368 525 461 525 q 229 467 276 525 q 182 300 182 408 q 229 135 182 192 q 368 78 276 78 z "},"ớ":{"ha":736,"x_min":58,"x_max":681,"o":"m 681 713 q 600 533 681 582 q 681 300 681 446 q 596 64 681 150 q 367 -22 511 -22 q 142 64 226 -22 q 58 300 58 150 q 142 538 58 451 q 367 625 226 625 q 496 603 439 625 q 561 633 539 606 q 583 713 583 661 l 681 713 m 368 78 q 509 135 461 78 q 557 300 557 192 q 509 467 557 408 q 368 525 461 525 q 229 467 276 525 q 182 300 182 408 q 229 135 182 192 q 368 78 276 78 m 474 983 l 563 917 l 353 682 l 297 722 l 474 983 z "},"ợ":{"ha":736,"x_min":58,"x_max":681,"o":"m 681 713 q 600 533 681 582 q 681 300 681 446 q 596 64 681 150 q 367 -22 511 -22 q 142 64 226 -22 q 58 300 58 150 q 142 538 58 451 q 367 625 226 625 q 496 603 439 625 q 561 633 539 606 q 583 713 583 661 l 681 713 m 368 78 q 509 135 461 78 q 557 300 557 192 q 509 467 557 408 q 368 525 461 525 q 229 467 276 525 q 182 300 182 408 q 229 135 182 192 q 368 78 276 78 m 368 -81 q 432 -106 407 -81 q 457 -169 457 -131 q 432 -234 457 -210 q 368 -258 407 -258 q 305 -234 329 -258 q 281 -169 281 -210 q 305 -105 281 -129 q 368 -81 329 -81 z "},"ờ":{"ha":736,"x_min":58,"x_max":681,"o":"m 681 713 q 600 533 681 582 q 681 300 681 446 q 596 64 681 150 q 367 -22 511 -22 q 142 64 226 -22 q 58 300 58 150 q 142 538 58 451 q 367 625 226 625 q 496 603 439 625 q 561 633 539 606 q 583 713 583 661 l 681 713 m 368 78 q 509 135 461 78 q 557 300 557 192 q 509 467 557 408 q 368 525 461 525 q 229 467 276 525 q 182 300 182 408 q 229 135 182 192 q 368 78 276 78 m 364 682 l 154 917 l 243 983 l 419 722 l 364 682 z "},"ở":{"ha":736,"x_min":58,"x_max":681,"o":"m 681 713 q 600 533 681 582 q 681 300 681 446 q 596 64 681 150 q 367 -22 511 -22 q 142 64 226 -22 q 58 300 58 150 q 142 538 58 451 q 367 625 226 625 q 496 603 439 625 q 561 633 539 606 q 583 713 583 661 l 681 713 m 368 78 q 509 135 461 78 q 557 300 557 192 q 509 467 557 408 q 368 525 461 525 q 229 467 276 525 q 182 300 182 408 q 229 135 182 192 q 368 78 276 78 m 347 719 q 382 760 369 738 q 394 804 394 783 q 384 835 394 824 q 353 846 374 846 q 286 808 318 846 l 233 868 q 297 918 261 901 q 369 935 332 935 q 455 904 421 935 q 489 819 489 874 q 386 675 489 744 l 347 719 z "},"ỡ":{"ha":736,"x_min":58,"x_max":681,"o":"m 681 713 q 600 533 681 582 q 681 300 681 446 q 596 64 681 150 q 367 -22 511 -22 q 142 64 226 -22 q 58 300 58 150 q 142 538 58 451 q 367 625 226 625 q 496 603 439 625 q 561 633 539 606 q 583 713 583 661 l 681 713 m 368 78 q 509 135 461 78 q 557 300 557 192 q 509 467 557 408 q 368 525 461 525 q 229 467 276 525 q 182 300 182 408 q 229 135 182 192 q 368 78 276 78 m 163 779 q 242 826 211 813 q 319 839 274 839 q 372 831 349 839 q 424 807 396 822 q 462 789 447 794 q 494 783 476 783 q 535 792 518 783 q 590 828 553 801 l 625 747 q 553 698 583 711 q 485 685 524 685 q 445 692 464 685 q 401 714 426 700 q 357 735 375 728 q 319 742 339 742 q 270 735 290 742 q 227 718 250 729 q 194 703 204 707 l 163 779 z "},"ő":{"ha":736,"x_min":58,"x_max":707,"o":"m 367 625 q 595 538 510 625 q 681 300 681 451 q 596 64 681 150 q 367 -22 511 -22 q 142 64 226 -22 q 58 300 58 150 q 142 538 58 451 q 367 625 226 625 m 368 525 q 229 467 276 525 q 182 300 182 408 q 229 135 182 192 q 368 78 276 78 q 509 135 461 78 q 557 300 557 192 q 509 467 557 408 q 368 525 461 525 m 390 983 l 479 917 l 269 682 l 214 722 l 390 983 m 633 956 l 707 874 l 458 682 l 411 732 l 633 956 z "},"ȏ":{"ha":736,"x_min":58,"x_max":681,"o":"m 367 625 q 595 538 510 625 q 681 300 681 451 q 596 64 681 150 q 367 -22 511 -22 q 142 64 226 -22 q 58 300 58 150 q 142 538 58 451 q 367 625 226 625 m 368 525 q 229 467 276 525 q 182 300 182 408 q 229 135 182 192 q 368 78 276 78 q 509 135 461 78 q 557 300 557 192 q 509 467 557 408 q 368 525 461 525 m 368 896 q 520 851 463 896 q 593 721 578 807 l 497 706 q 459 778 492 753 q 368 803 426 803 q 240 706 253 803 l 144 721 q 217 851 160 807 q 368 896 274 896 z "},"ō":{"ha":736,"x_min":58,"x_max":681,"o":"m 367 625 q 595 538 510 625 q 681 300 681 451 q 596 64 681 150 q 367 -22 511 -22 q 142 64 226 -22 q 58 300 58 150 q 142 538 58 451 q 367 625 226 625 m 368 525 q 229 467 276 525 q 182 300 182 408 q 229 135 182 192 q 368 78 276 78 q 509 135 461 78 q 557 300 557 192 q 509 467 557 408 q 368 525 461 525 m 154 829 l 583 829 l 583 740 l 154 740 l 154 829 z "},"ṓ":{"ha":736,"x_min":58,"x_max":681,"o":"m 367 625 q 595 538 510 625 q 681 300 681 451 q 596 64 681 150 q 367 -22 511 -22 q 142 64 226 -22 q 58 300 58 150 q 142 538 58 451 q 367 625 226 625 m 368 525 q 229 467 276 525 q 182 300 182 408 q 229 135 182 192 q 368 78 276 78 q 509 135 461 78 q 557 300 557 192 q 509 467 557 408 q 368 525 461 525 m 154 829 l 583 829 l 583 740 l 154 740 l 154 829 m 494 1190 l 583 1124 l 374 889 l 318 929 l 494 1190 z "},"ṑ":{"ha":736,"x_min":58,"x_max":681,"o":"m 367 625 q 595 538 510 625 q 681 300 681 451 q 596 64 681 150 q 367 -22 511 -22 q 142 64 226 -22 q 58 300 58 150 q 142 538 58 451 q 367 625 226 625 m 368 525 q 229 467 276 525 q 182 300 182 408 q 229 135 182 192 q 368 78 276 78 q 509 135 461 78 q 557 300 557 192 q 509 467 557 408 q 368 525 461 525 m 154 829 l 583 829 l 583 740 l 154 740 l 154 829 m 383 889 l 174 1124 l 263 1190 l 439 929 l 383 889 z "},"ǫ":{"ha":736,"x_min":58,"x_max":681,"o":"m 446 -117 q 468 -164 446 -147 q 529 -181 490 -181 q 597 -168 561 -181 l 597 -257 q 483 -283 543 -283 q 368 -249 414 -283 q 322 -156 322 -214 q 382 -22 322 -78 l 367 -22 q 142 64 226 -22 q 58 300 58 150 q 142 538 58 451 q 367 625 226 625 q 595 538 510 625 q 681 300 681 451 q 648 140 681 208 q 554 31 615 71 l 556 29 q 472 -37 499 -1 q 446 -117 446 -74 m 182 300 q 229 135 182 192 q 368 78 276 78 q 509 135 461 78 q 557 300 557 192 q 509 467 557 408 q 368 525 461 525 q 229 467 276 525 q 182 300 182 408 z "},"ø":{"ha":736,"x_min":58,"x_max":681,"o":"m 526 589 q 640 477 600 551 q 681 300 681 403 q 596 64 681 150 q 367 -22 511 -22 q 274 -11 321 -22 l 238 -99 l 164 -99 l 211 13 q 99 124 139 50 q 58 300 58 199 q 142 538 58 451 q 367 625 226 625 q 463 614 415 625 l 499 699 l 572 699 l 526 589 m 182 300 q 253 113 182 167 l 424 519 q 368 525 401 525 q 229 467 276 525 q 182 300 182 408 m 368 78 q 509 135 461 78 q 557 300 557 192 q 485 490 557 433 l 314 83 q 368 78 336 78 z "},"ǿ":{"ha":736,"x_min":58,"x_max":681,"o":"m 526 589 q 640 477 600 551 q 681 300 681 403 q 596 64 681 150 q 367 -22 511 -22 q 274 -11 321 -22 l 238 -99 l 164 -99 l 211 13 q 99 124 139 50 q 58 300 58 199 q 142 538 58 451 q 367 625 226 625 q 463 614 415 625 l 499 699 l 572 699 l 526 589 m 182 300 q 253 113 182 167 l 424 519 q 368 525 401 525 q 229 467 276 525 q 182 300 182 408 m 368 78 q 509 135 461 78 q 557 300 557 192 q 485 490 557 433 l 314 83 q 368 78 336 78 m 474 983 l 563 917 l 353 682 l 297 722 l 474 983 z "},"õ":{"ha":736,"x_min":58,"x_max":681,"o":"m 367 625 q 595 538 510 625 q 681 300 681 451 q 596 64 681 150 q 367 -22 511 -22 q 142 64 226 -22 q 58 300 58 150 q 142 538 58 451 q 367 625 226 625 m 368 525 q 229 467 276 525 q 182 300 182 408 q 229 135 182 192 q 368 78 276 78 q 509 135 461 78 q 557 300 557 192 q 509 467 557 408 q 368 525 461 525 m 163 779 q 242 826 211 813 q 319 839 274 839 q 372 831 349 839 q 424 807 396 822 q 462 789 447 794 q 494 783 476 783 q 535 792 518 783 q 590 828 553 801 l 625 747 q 553 698 583 711 q 485 685 524 685 q 445 692 464 685 q 401 714 426 700 q 357 735 375 728 q 319 742 339 742 q 270 735 290 742 q 227 718 250 729 q 194 703 204 707 l 163 779 z "},"ṍ":{"ha":736,"x_min":58,"x_max":681,"o":"m 367 625 q 595 538 510 625 q 681 300 681 451 q 596 64 681 150 q 367 -22 511 -22 q 142 64 226 -22 q 58 300 58 150 q 142 538 58 451 q 367 625 226 625 m 368 525 q 229 467 276 525 q 182 300 182 408 q 229 135 182 192 q 368 78 276 78 q 509 135 461 78 q 557 300 557 192 q 509 467 557 408 q 368 525 461 525 m 163 779 q 242 826 211 813 q 319 839 274 839 q 372 831 349 839 q 424 807 396 822 q 462 789 447 794 q 494 783 476 783 q 535 792 518 783 q 590 828 553 801 l 625 747 q 553 698 583 711 q 485 685 524 685 q 445 692 464 685 q 401 714 426 700 q 357 735 375 728 q 319 742 339 742 q 270 735 290 742 q 227 718 250 729 q 194 703 204 707 l 163 779 m 467 1192 l 556 1125 l 346 890 l 290 931 l 467 1192 z "},"ṏ":{"ha":736,"x_min":58,"x_max":681,"o":"m 367 625 q 595 538 510 625 q 681 300 681 451 q 596 64 681 150 q 367 -22 511 -22 q 142 64 226 -22 q 58 300 58 150 q 142 538 58 451 q 367 625 226 625 m 368 525 q 229 467 276 525 q 182 300 182 408 q 229 135 182 192 q 368 78 276 78 q 509 135 461 78 q 557 300 557 192 q 509 467 557 408 q 368 525 461 525 m 163 779 q 242 826 211 813 q 319 839 274 839 q 372 831 349 839 q 424 807 396 822 q 462 789 447 794 q 494 783 476 783 q 535 792 518 783 q 590 828 553 801 l 625 747 q 553 698 583 711 q 485 685 524 685 q 445 692 464 685 q 401 714 426 700 q 357 735 375 728 q 319 742 339 742 q 270 735 290 742 q 227 718 250 729 q 194 703 204 707 l 163 779 m 236 1083 q 294 1058 269 1083 q 319 1000 319 1033 q 294 942 319 967 q 236 918 269 918 q 178 942 203 918 q 154 1000 154 967 q 178 1058 154 1033 q 236 1083 203 1083 m 489 1083 q 547 1058 522 1083 q 571 1000 571 1033 q 547 942 571 967 q 489 918 522 918 q 430 942 454 918 q 406 1000 406 967 q 430 1058 406 1033 q 489 1083 454 1083 z "},"ȭ":{"ha":736,"x_min":58,"x_max":681,"o":"m 367 625 q 595 538 510 625 q 681 300 681 451 q 596 64 681 150 q 367 -22 511 -22 q 142 64 226 -22 q 58 300 58 150 q 142 538 58 451 q 367 625 226 625 m 368 525 q 229 467 276 525 q 182 300 182 408 q 229 135 182 192 q 368 78 276 78 q 509 135 461 78 q 557 300 557 192 q 509 467 557 408 q 368 525 461 525 m 163 779 q 242 826 211 813 q 319 839 274 839 q 372 831 349 839 q 424 807 396 822 q 462 789 447 794 q 494 783 476 783 q 535 792 518 783 q 590 828 553 801 l 625 747 q 553 698 583 711 q 485 685 524 685 q 445 692 464 685 q 401 714 426 700 q 357 735 375 728 q 319 742 339 742 q 270 735 290 742 q 227 718 250 729 q 194 703 204 707 l 163 779 m 147 1038 l 576 1038 l 576 949 l 147 949 l 147 1038 z "},"œ":{"ha":1054,"x_min":56,"x_max":994,"o":"m 993 72 q 956 43 990 67 q 862 -1 921 19 q 726 -22 803 -22 q 544 33 621 -22 q 365 -22 464 -22 q 203 18 274 -22 q 94 133 133 58 q 56 308 56 208 q 96 472 56 400 q 207 583 136 543 q 365 622 278 622 q 558 574 472 622 q 728 622 632 622 q 922 556 849 622 q 994 338 994 489 q 990 267 994 299 l 546 264 q 599 124 553 172 q 728 76 644 76 q 860 100 807 76 q 938 143 914 124 l 993 72 m 367 522 q 231 463 282 522 q 181 310 181 404 q 228 139 181 201 q 367 76 276 76 q 478 104 425 76 q 425 299 425 183 q 440 410 425 358 q 483 501 456 463 q 367 522 433 522 m 883 363 q 844 481 883 439 q 728 522 804 522 q 606 481 651 522 q 547 361 561 439 l 883 363 z "},"p":{"ha":793,"x_min":28,"x_max":738,"o":"m 42 -197 l 158 -197 l 158 485 l 28 528 l 60 628 l 249 563 q 343 608 294 592 q 436 625 392 625 q 657 542 576 625 q 738 317 738 460 q 699 140 738 217 q 590 20 660 63 q 428 -22 519 -22 q 281 -1 350 -22 l 281 -197 l 397 -197 l 397 -293 l 42 -293 l 42 -197 m 426 76 q 563 140 514 76 q 613 317 613 203 q 567 472 613 419 q 433 525 522 525 q 348 510 390 525 q 281 474 306 496 l 281 108 q 344 85 304 94 q 426 76 385 76 z "},"þ":{"ha":731,"x_min":-36,"x_max":676,"o":"m 218 582 q 374 624 296 624 q 594 542 511 624 q 676 315 676 461 q 638 139 676 215 q 528 20 599 63 q 365 -22 457 -22 q 219 -1 286 -22 l 219 -197 l 336 -197 l 336 -293 l -19 -293 l -19 -197 l 97 -197 l 97 768 l -36 813 l -3 914 l 218 838 l 218 582 m 218 108 q 237 100 219 108 q 290 84 254 92 q 364 76 325 76 q 502 141 454 76 q 550 315 550 206 q 504 471 550 418 q 369 524 458 524 q 281 508 315 524 q 218 474 246 492 l 218 108 z "},"q":{"ha":726,"x_min":57,"x_max":749,"o":"m 393 -197 l 514 -197 l 514 19 q 439 -11 479 0 q 363 -22 399 -22 q 138 67 218 -22 q 57 314 57 156 q 144 542 57 460 q 381 625 232 625 q 522 605 456 625 q 638 546 588 585 l 638 -197 l 749 -197 l 749 -293 l 393 -293 l 393 -197 m 367 78 q 443 90 403 78 q 514 124 483 103 l 514 489 q 367 525 451 525 q 233 467 283 525 q 182 315 182 410 q 233 143 182 208 q 367 78 283 78 z "},"r":{"ha":601,"x_min":44,"x_max":581,"o":"m 267 556 q 376 607 317 589 q 492 625 435 625 q 557 617 538 625 l 581 464 l 479 443 l 465 519 q 378 506 422 518 q 300 471 335 493 l 299 97 l 435 97 l 435 0 l 61 0 l 61 97 l 178 97 l 178 478 l 44 524 l 76 621 l 267 556 z "},"ŕ":{"ha":601,"x_min":44,"x_max":581,"o":"m 267 556 q 376 607 317 589 q 492 625 435 625 q 557 617 538 625 l 581 464 l 479 443 l 465 519 q 378 506 422 518 q 300 471 335 493 l 299 97 l 435 97 l 435 0 l 61 0 l 61 97 l 178 97 l 178 478 l 44 524 l 76 621 l 267 556 m 403 983 l 492 917 l 282 682 l 226 722 l 403 983 z "},"ř":{"ha":601,"x_min":44,"x_max":581,"o":"m 267 556 q 376 607 317 589 q 492 625 435 625 q 557 617 538 625 l 581 464 l 479 443 l 465 519 q 378 506 422 518 q 300 471 335 493 l 299 97 l 435 97 l 435 0 l 61 0 l 61 97 l 178 97 l 178 478 l 44 524 l 76 621 l 267 556 m 301 671 l 83 814 l 124 875 l 301 783 l 478 878 l 514 814 l 301 671 z "},"ŗ":{"ha":601,"x_min":44,"x_max":581,"o":"m 267 556 q 376 607 317 589 q 492 625 435 625 q 557 617 538 625 l 581 464 l 479 443 l 465 519 q 378 506 422 518 q 300 471 335 493 l 299 97 l 435 97 l 435 0 l 61 0 l 61 97 l 178 97 l 178 478 l 44 524 l 76 621 l 267 556 m 158 -385 q 188 -340 165 -375 q 224 -275 210 -306 q 165 -245 186 -269 q 143 -189 143 -221 q 170 -123 143 -149 q 239 -97 197 -97 q 309 -127 279 -97 q 339 -197 339 -157 q 208 -429 340 -297 l 158 -385 z "},"ȑ":{"ha":601,"x_min":-37,"x_max":581,"o":"m 267 556 q 376 607 317 589 q 492 625 435 625 q 557 617 538 625 l 581 464 l 479 443 l 465 519 q 378 506 422 518 q 300 471 335 493 l 299 97 l 435 97 l 435 0 l 61 0 l 61 97 l 178 97 l 178 478 l 44 524 l 76 621 l 267 556 m 279 983 l 456 722 l 400 682 l 190 917 l 279 983 m 36 956 l 258 732 l 211 682 l -37 874 l 36 956 z "},"ṛ":{"ha":601,"x_min":44,"x_max":581,"o":"m 267 556 q 376 607 317 589 q 492 625 435 625 q 557 617 538 625 l 581 464 l 479 443 l 465 519 q 378 506 422 518 q 300 471 335 493 l 299 97 l 435 97 l 435 0 l 61 0 l 61 97 l 178 97 l 178 478 l 44 524 l 76 621 l 267 556 m 240 -81 q 304 -106 279 -81 q 329 -169 329 -131 q 304 -234 329 -210 q 240 -258 279 -258 q 177 -234 201 -258 q 153 -169 153 -210 q 177 -105 153 -129 q 240 -81 201 -81 z "},"ȓ":{"ha":601,"x_min":44,"x_max":581,"o":"m 267 556 q 376 607 317 589 q 492 625 435 625 q 557 617 538 625 l 581 464 l 479 443 l 465 519 q 378 506 422 518 q 300 471 335 493 l 299 97 l 435 97 l 435 0 l 61 0 l 61 97 l 178 97 l 178 478 l 44 524 l 76 621 l 267 556 m 297 896 q 449 851 392 896 q 522 721 507 807 l 426 706 q 388 778 421 753 q 297 803 356 803 q 169 706 182 803 l 74 721 q 146 851 89 807 q 297 896 203 896 z "},"ṟ":{"ha":601,"x_min":24,"x_max":581,"o":"m 267 556 q 376 607 317 589 q 492 625 435 625 q 557 617 538 625 l 581 464 l 479 443 l 465 519 q 378 506 422 518 q 300 471 335 493 l 299 97 l 435 97 l 435 0 l 61 0 l 61 97 l 178 97 l 178 478 l 44 524 l 76 621 l 267 556 m 24 -61 l 458 -61 l 458 -153 l 24 -153 l 24 -61 z "},"s":{"ha":631,"x_min":49,"x_max":576,"o":"m 436 510 q 378 528 406 522 q 313 533 351 533 q 218 510 257 533 q 179 449 179 488 q 306 358 179 371 l 371 350 q 528 294 479 339 q 576 172 576 250 q 504 31 576 83 q 319 -22 432 -22 q 187 -6 250 -22 q 74 40 124 11 l 49 182 l 156 206 l 174 114 q 314 79 238 79 q 422 103 378 79 q 465 169 465 126 q 439 226 465 208 q 346 251 413 243 l 279 260 q 123 320 178 272 q 68 440 68 368 q 140 577 68 528 q 313 626 211 626 q 531 574 436 626 l 556 442 l 460 421 l 436 510 z "},"ś":{"ha":631,"x_min":49,"x_max":576,"o":"m 436 510 q 378 528 406 522 q 313 533 351 533 q 218 510 257 533 q 179 449 179 488 q 306 358 179 371 l 371 350 q 528 294 479 339 q 576 172 576 250 q 504 31 576 83 q 319 -22 432 -22 q 187 -6 250 -22 q 74 40 124 11 l 49 182 l 156 206 l 174 114 q 314 79 238 79 q 422 103 378 79 q 465 169 465 126 q 439 226 465 208 q 346 251 413 243 l 279 260 q 123 320 178 272 q 68 440 68 368 q 140 577 68 528 q 313 626 211 626 q 531 574 436 626 l 556 442 l 460 421 l 436 510 m 417 983 l 506 917 l 296 682 l 240 722 l 417 983 z "},"ṥ":{"ha":631,"x_min":49,"x_max":576,"o":"m 436 510 q 378 528 406 522 q 313 533 351 533 q 218 510 257 533 q 179 449 179 488 q 306 358 179 371 l 371 350 q 528 294 479 339 q 576 172 576 250 q 504 31 576 83 q 319 -22 432 -22 q 187 -6 250 -22 q 74 40 124 11 l 49 182 l 156 206 l 174 114 q 314 79 238 79 q 422 103 378 79 q 465 169 465 126 q 439 226 465 208 q 346 251 413 243 l 279 260 q 123 320 178 272 q 68 440 68 368 q 140 577 68 528 q 313 626 211 626 q 531 574 436 626 l 556 442 l 460 421 l 436 510 m 417 983 l 506 917 l 296 682 l 240 722 l 417 983 m 397 1200 q 461 1176 436 1200 q 486 1111 486 1151 q 461 1047 486 1072 q 397 1022 436 1022 q 334 1047 358 1022 q 310 1111 310 1071 q 334 1176 310 1151 q 397 1200 358 1200 z "},"š":{"ha":631,"x_min":49,"x_max":576,"o":"m 436 510 q 378 528 406 522 q 313 533 351 533 q 218 510 257 533 q 179 449 179 488 q 306 358 179 371 l 371 350 q 528 294 479 339 q 576 172 576 250 q 504 31 576 83 q 319 -22 432 -22 q 187 -6 250 -22 q 74 40 124 11 l 49 182 l 156 206 l 174 114 q 314 79 238 79 q 422 103 378 79 q 465 169 465 126 q 439 226 465 208 q 346 251 413 243 l 279 260 q 123 320 178 272 q 68 440 68 368 q 140 577 68 528 q 313 626 211 626 q 531 574 436 626 l 556 442 l 460 421 l 436 510 m 315 671 l 97 814 l 138 875 l 315 783 l 492 878 l 528 814 l 315 671 z "},"ṧ":{"ha":631,"x_min":49,"x_max":576,"o":"m 436 510 q 378 528 406 522 q 313 533 351 533 q 218 510 257 533 q 179 449 179 488 q 306 358 179 371 l 371 350 q 528 294 479 339 q 576 172 576 250 q 504 31 576 83 q 319 -22 432 -22 q 187 -6 250 -22 q 74 40 124 11 l 49 182 l 156 206 l 174 114 q 314 79 238 79 q 422 103 378 79 q 465 169 465 126 q 439 226 465 208 q 346 251 413 243 l 279 260 q 123 320 178 272 q 68 440 68 368 q 140 577 68 528 q 313 626 211 626 q 531 574 436 626 l 556 442 l 460 421 l 436 510 m 315 671 l 97 814 l 138 875 l 315 783 l 492 878 l 528 814 l 315 671 m 311 1075 q 375 1051 350 1075 q 400 986 400 1026 q 375 922 400 947 q 311 897 350 897 q 248 922 272 897 q 224 986 224 946 q 248 1051 224 1026 q 311 1075 272 1075 z "},"ş":{"ha":631,"x_min":49,"x_max":576,"o":"m 390 -83 q 547 -194 547 -81 q 504 -283 547 -251 q 389 -314 461 -314 q 297 -297 333 -314 q 233 -260 261 -279 l 268 -204 q 324 -231 292 -221 q 386 -242 357 -242 q 458 -193 458 -242 q 439 -157 458 -168 q 372 -146 419 -146 l 313 -146 l 313 -22 q 184 -4 246 -21 q 74 40 122 13 l 49 182 l 156 206 l 174 114 q 314 79 238 79 q 422 103 378 79 q 465 169 465 126 q 439 226 465 208 q 346 251 413 243 l 279 260 q 123 320 178 272 q 68 440 68 368 q 140 577 68 528 q 313 626 211 626 q 531 574 436 626 l 556 442 l 460 421 l 436 510 q 378 528 406 522 q 313 533 351 533 q 218 510 257 533 q 179 449 179 488 q 306 358 179 371 l 371 350 q 528 294 479 339 q 576 172 576 250 q 526 49 576 99 q 390 -17 475 0 l 390 -83 z "},"ŝ":{"ha":631,"x_min":49,"x_max":576,"o":"m 436 510 q 378 528 406 522 q 313 533 351 533 q 218 510 257 533 q 179 449 179 488 q 306 358 179 371 l 371 350 q 528 294 479 339 q 576 172 576 250 q 504 31 576 83 q 319 -22 432 -22 q 187 -6 250 -22 q 74 40 124 11 l 49 182 l 156 206 l 174 114 q 314 79 238 79 q 422 103 378 79 q 465 169 465 126 q 439 226 465 208 q 346 251 413 243 l 279 260 q 123 320 178 272 q 68 440 68 368 q 140 577 68 528 q 313 626 211 626 q 531 574 436 626 l 556 442 l 460 421 l 436 510 m 315 892 l 528 749 l 492 685 l 315 779 l 138 688 l 97 749 l 315 892 z "},"ș":{"ha":631,"x_min":49,"x_max":576,"o":"m 436 510 q 378 528 406 522 q 313 533 351 533 q 218 510 257 533 q 179 449 179 488 q 306 358 179 371 l 371 350 q 528 294 479 339 q 576 172 576 250 q 504 31 576 83 q 319 -22 432 -22 q 187 -6 250 -22 q 74 40 124 11 l 49 182 l 156 206 l 174 114 q 314 79 238 79 q 422 103 378 79 q 465 169 465 126 q 439 226 465 208 q 346 251 413 243 l 279 260 q 123 320 178 272 q 68 440 68 368 q 140 577 68 528 q 313 626 211 626 q 531 574 436 626 l 556 442 l 460 421 l 436 510 m 229 -385 q 258 -340 236 -375 q 294 -275 281 -306 q 235 -245 257 -269 q 214 -189 214 -221 q 241 -123 214 -149 q 310 -97 268 -97 q 380 -127 350 -97 q 410 -197 410 -157 q 279 -429 411 -297 l 229 -385 z "},"ṡ":{"ha":631,"x_min":49,"x_max":576,"o":"m 436 510 q 378 528 406 522 q 313 533 351 533 q 218 510 257 533 q 179 449 179 488 q 306 358 179 371 l 371 350 q 528 294 479 339 q 576 172 576 250 q 504 31 576 83 q 319 -22 432 -22 q 187 -6 250 -22 q 74 40 124 11 l 49 182 l 156 206 l 174 114 q 314 79 238 79 q 422 103 378 79 q 465 169 465 126 q 439 226 465 208 q 346 251 413 243 l 279 260 q 123 320 178 272 q 68 440 68 368 q 140 577 68 528 q 313 626 211 626 q 531 574 436 626 l 556 442 l 460 421 l 436 510 m 311 900 q 375 876 350 900 q 400 811 400 851 q 375 747 400 772 q 311 722 350 722 q 248 747 272 722 q 224 811 224 771 q 248 876 224 851 q 311 900 272 900 z "},"ṣ":{"ha":631,"x_min":49,"x_max":576,"o":"m 436 510 q 378 528 406 522 q 313 533 351 533 q 218 510 257 533 q 179 449 179 488 q 306 358 179 371 l 371 350 q 528 294 479 339 q 576 172 576 250 q 504 31 576 83 q 319 -22 432 -22 q 187 -6 250 -22 q 74 40 124 11 l 49 182 l 156 206 l 174 114 q 314 79 238 79 q 422 103 378 79 q 465 169 465 126 q 439 226 465 208 q 346 251 413 243 l 279 260 q 123 320 178 272 q 68 440 68 368 q 140 577 68 528 q 313 626 211 626 q 531 574 436 626 l 556 442 l 460 421 l 436 510 m 311 -81 q 375 -106 350 -81 q 400 -169 400 -131 q 375 -234 400 -210 q 311 -258 350 -258 q 248 -234 272 -258 q 224 -169 224 -210 q 248 -105 224 -129 q 311 -81 272 -81 z "}}}
